<?xml version="1.0" encoding="UTF-8" standalone="no"?><!DOCTYPE svg PUBLIC "-//W3C//DTD SVG 1.1//EN" "http://www.w3.org/Graphics/SVG/1.1/DTD/svg11.dtd"><svg width="100%" height="100%" viewBox="0 0 562 415" version="1.1" xmlns="http://www.w3.org/2000/svg" xmlns:xlink="http://www.w3.org/1999/xlink" xml:space="preserve" style="fill-rule:evenodd;clip-rule:evenodd;"><rect x="0" y="0" width="561.828" height="414.746" style="fill:#f5f5f5;"/><path d="M513.298,71.468c35.08,34.519 35.08,90.484 0,125.002c-35.079,34.519 -91.954,34.519 -127.033,0c-35.08,-34.518 -35.08,-90.483 0,-125.002c35.079,-34.518 91.954,-34.518 127.033,0Z" style="fill:#fff;fill-rule:nonzero;stroke:#161616;stroke-width:2px;"/><path d="M298.779,303.797l0.497,-0.389l104.751,-81.914l0.497,-0.389" style="fill:none;stroke:#000;stroke-width:2px;"/><path d="M405.895,223.883l2.909,-6.125l-6.645,1.347l3.736,4.778Z" style="fill-rule:nonzero;"/><path d="M297.408,301.019l-2.909,6.125l6.645,-1.347l-3.736,-4.778Z" style="fill-rule:nonzero;"/><path d="M153.113,223.323l52.056,79.306" style="fill:none;stroke:#000;stroke-width:2px;"/><path d="M289.985,302.681c21.218,21.261 21.218,55.732 0,76.994c-21.218,21.261 -55.62,21.261 -76.838,0c-21.218,-21.262 -21.218,-55.733 0,-76.994c21.218,-21.261 55.62,-21.261 76.838,0Z" style="fill:#fff;fill-rule:nonzero;stroke:#000;stroke-width:2px;"/><path d="M202.343,303.897l6.014,3.132l-1.103,-6.69l-4.911,3.558Z" style="fill-rule:nonzero;"/><clipPath id="_clip1"><rect x="163.95" y="258.747" width="40.431" height="25.901"/></clipPath><g clip-path="url(#_clip1)"><path d="M173.356,269.46c2.364,0.014 1.195,-9.536 8.98,-9.849c6.423,-0.259 4.892,4.222 7.89,5.464c1.697,0.704 2.612,-1.006 5.482,0.627c3.984,2.266 2.08,5.743 3.277,8.057c0.371,0.718 3.848,0.091 4.464,3.855c1.205,7.366 -13.203,5.861 -20.738,5.872c-5.575,0.009 -15.673,1.811 -17.579,-3.377c-1.655,-4.502 3.402,-10.676 8.224,-10.649Z" style="fill:#fff;stroke:#000;stroke-width:0.66px;"/></g><text x="220.554px" y="346.772px" style="font-family:'Helvetica-Bold', 'Helvetica';font-weight:700;font-size:15px;">app store</text><text x="419.548px" y="101.082px" style="font-family:'Helvetica-Bold', 'Helvetica';font-weight:700;font-size:15px;">databox</text><g transform="matrix(1,0,0,1,-255.971,-433.358)"><text x="638px" y="560.24px" style="font-family:'Helvetica-Bold', 'Helvetica';font-weight:700;font-size:12px;">7.</text><text x="651.342px" y="560.24px" style="font-family:'Helvetica-Light', 'Helvetica', sans-serif;font-weight:300;font-size:12px;">review SLA (constructed</text><text x="638px" y="579.24px" style="font-family:'Helvetica-Light', 'Helvetica', sans-serif;font-weight:300;font-size:12px;">from manifest)</text><text x="638px" y="598.24px" style="font-family:'Helvetica-Bold', 'Helvetica';font-weight:700;font-size:12px;">8</text><text x="644.674px" y="598.24px" style="font-family:'Helvetica-Light', 'Helvetica', sans-serif;font-weight:300;font-size:12px;">. accept SLA &amp; install app</text><text x="638px" y="617.24px" style="font-family:'Helvetica-Bold', 'Helvetica';font-weight:700;font-size:12px;">9.</text><text x="651.342px" y="617.24px" style="font-family:'Helvetica-Light', 'Helvetica', sans-serif;font-weight:300;font-size:12px;">run app</text></g><g transform="matrix(1,0,0,1,-275.564,-293.705)"><text x="638px" y="585.24px" style="font-family:'Helvetica-Bold', 'Helvetica';font-weight:700;font-size:12px;">6.</text><text x="651.342px" y="585.24px" style="font-family:'Helvetica-Light', 'Helvetica', sans-serif;font-weight:300;font-size:12px;">list apps on app sto</text><text x="757.374px" y="585.24px" style="font-family:'Helvetica-Light', 'Helvetica', sans-serif;font-weight:300;font-size:12px;">r</text><text x="761.16px" y="585.24px" style="font-family:'Helvetica-Light', 'Helvetica', sans-serif;font-weight:300;font-size:12px;">e</text></g><g transform="matrix(0.631729,0,0,0.631729,-12.6929,-21.0822)"><text x="128px" y="510px" style="font-family:'Helvetica-Bold', 'Helvetica';font-weight:700;font-size:18.995px;">5</text><text x="138.564px" y="510px" style="font-family:'Helvetica-Light', 'Helvetica', sans-serif;font-weight:300;font-size:18.995px;">. publish to app sto</text><text x="302.192px" y="510px" style="font-family:'Helvetica-Light', 'Helvetica', sans-serif;font-weight:300;font-size:18.995px;">r</text><text x="308.185px" y="510px" style="font-family:'Helvetica-Light', 'Helvetica', sans-serif;font-weight:300;font-size:18.995px;">e</text></g><path d="M202.365,74.687c35.079,34.518 35.079,90.484 0,125.002c-35.08,34.518 -91.955,34.518 -127.034,0c-35.079,-34.518 -35.079,-90.484 0,-125.002c35.079,-34.518 91.954,-34.518 127.034,0Z" style="fill:#fff;fill-rule:nonzero;stroke:#161616;stroke-width:2px;"/><text x="80.913px" y="119.337px" style="font-family:'Helvetica-Bold', 'Helvetica';font-weight:700;font-size:15px;">app development</text><clipPath id="_clip2"><rect x="331.361" y="249.513" width="40.431" height="25.901"/></clipPath><g clip-path="url(#_clip2)"><path d="M340.767,260.226c2.364,0.014 1.195,-9.536 8.98,-9.849c6.423,-0.258 4.892,4.222 7.889,5.465c1.697,0.703 2.613,-1.007 5.483,0.626c3.984,2.266 2.08,5.744 3.276,8.057c0.372,0.718 3.849,0.091 4.465,3.855c1.205,7.366 -13.203,5.861 -20.738,5.872c-5.575,0.009 -15.673,1.811 -17.58,-3.376c-1.654,-4.503 3.403,-10.677 8.225,-10.65Z" style="fill:#fff;stroke:#000;stroke-width:0.66px;"/></g><g transform="matrix(1,0,0,1,-340.377,-98.3195)"><text x="441.236px" y="241.803px" style="font-family:'Helvetica-Bold', 'Helvetica';font-weight:700;font-size:12px;">1</text><text x="447.91px" y="241.803px" style="font-family:'Helvetica-Light', 'Helvetica', sans-serif;font-weight:300;font-size:12px;">. build</text><text x="441.236px" y="260.803px" style="font-family:'Helvetica-Bold', 'Helvetica';font-weight:700;font-size:12px;">2.</text><text x="454.578px" y="260.803px" style="font-family:'Helvetica-Light', 'Helvetica', sans-serif;font-weight:300;font-size:12px;">test</text><text x="441.236px" y="279.803px" style="font-family:'Helvetica-Bold', 'Helvetica';font-weight:700;font-size:12px;">3.</text><text x="454.578px" y="279.803px" style="font-family:'Helvetica-Light', 'Helvetica', sans-serif;font-weight:300;font-size:12px;">c</text><text x="461.25px" y="279.803px" style="font-family:'Helvetica-Light', 'Helvetica', sans-serif;font-weight:300;font-size:12px;">r</text><text x="465.036px" y="279.803px" style="font-family:'Helvetica-Light', 'Helvetica', sans-serif;font-weight:300;font-size:12px;">eate manifest</text><text x="441.236px" y="298.803px" style="font-family:'Helvetica-Bold', 'Helvetica';font-weight:700;font-size:12px;">4</text><text x="447.91px" y="298.803px" style="font-family:'Helvetica-Light', 'Helvetica', sans-serif;font-weight:300;font-size:12px;">. dockerise</text></g><circle cx="137.434" cy="66.055" r="34.75" style="fill:#fff;stroke:#3a3a3a;stroke-width:2px;stroke-linecap:round;stroke-linejoin:round;stroke-miterlimit:1.5;"/><circle cx="252.414" cy="280.121" r="34.75" style="fill:#fff;stroke:#3a3a3a;stroke-width:2px;stroke-linecap:round;stroke-linejoin:round;stroke-miterlimit:1.5;"/><circle cx="447.063" cy="52.988" r="34.75" style="fill:#fff;stroke:#3a3a3a;stroke-width:2px;stroke-linecap:round;stroke-linejoin:round;stroke-miterlimit:1.5;"/><g><clipPath id="_clip3"><rect x="115.281" y="47.886" width="42.328" height="37.66"/></clipPath><g clip-path="url(#_clip3)"><path d="M140.277,81.421c0,-0.995 -0.809,-1.803 -1.806,-1.803l-2.732,0c-0.997,0 -1.806,0.808 -1.806,1.803l0,1.618c0,0.996 0.809,1.803 1.806,1.803l2.732,0c0.997,0 1.806,-0.807 1.806,-1.803l0,-1.618Z" style="stroke:#000;stroke-width:1.1px;"/><path d="M156.905,50.566c0,-1.091 -0.887,-1.977 -1.981,-1.977l-36.957,0c-1.094,0 -1.981,0.886 -1.981,1.977l0,28.499c0,1.092 0.887,1.978 1.981,1.978l36.957,0c1.094,0 1.981,-0.886 1.981,-1.978l0,-28.499Z" style="stroke:#000;stroke-width:1.1px;"/><path d="M155.02,51.795c0,-0.995 -0.809,-1.803 -1.806,-1.803l-33.692,0c-0.997,0 -1.806,0.808 -1.806,1.803l0,25.556c0,0.996 0.809,1.803 1.806,1.803l33.692,0c0.997,0 1.806,-0.807 1.806,-1.803l0,-25.556Z" style="fill:#fff;stroke:#000;stroke-width:0.99px;"/><path d="M129.512,58.146c0,-0.657 -0.534,-1.19 -1.192,-1.19l-1.756,0c-0.658,0 -1.192,0.533 -1.192,1.19l0,1.581c0,0.657 0.534,1.189 1.192,1.189l1.756,0c0.658,0 1.192,-0.532 1.192,-1.189l0,-1.581Z" style="fill:#fc0;stroke:#000;stroke-width:1.1px;"/><path d="M129.512,67.615c0,-0.656 -0.534,-1.189 -1.192,-1.189l-1.756,0c-0.658,0 -1.192,0.533 -1.192,1.189l0,1.582c0,0.656 0.534,1.189 1.192,1.189l1.756,0c0.658,0 1.192,-0.533 1.192,-1.189l0,-1.582Z" style="fill:#fc0;stroke:#000;stroke-width:1.1px;"/><path d="M138.999,62.795c0,-0.657 -0.534,-1.19 -1.192,-1.19l-1.756,0c-0.658,0 -1.192,0.533 -1.192,1.19l0,1.581c0,0.656 0.534,1.189 1.192,1.189l1.756,0c0.658,0 1.192,-0.533 1.192,-1.189l0,-1.581Z" style="fill:#f60;stroke:#000;stroke-width:1.1px;"/><path d="M148.831,62.795c0,-0.657 -0.534,-1.19 -1.192,-1.19l-1.756,0c-0.658,0 -1.192,0.533 -1.192,1.19l0,1.581c0,0.656 0.534,1.189 1.192,1.189l1.756,0c0.658,0 1.192,-0.533 1.192,-1.189l0,-1.581Z" style="fill:#3771c8;stroke:#000;stroke-width:1.1px;"/><path d="M129.598,58.85c0.403,0.959 1.796,0.746 2.359,1.505c0.874,1.179 1.084,3.122 2.816,3.23" style="fill:none;stroke:#000;stroke-width:1.1px;"/><path d="M129.512,68.51c0.403,-0.958 1.796,-0.746 2.359,-1.505c0.873,-1.179 1.084,-3.121 2.816,-3.23" style="fill:none;stroke:#000;stroke-width:1.1px;"/><path d="M139.085,63.413l5.434,0.086" style="fill:none;stroke:#000;stroke-width:1.1px;"/></g></g><g><clipPath id="_clip4"><rect x="416.701" y="39.118" width="61.488" height="36.738"/></clipPath><g clip-path="url(#_clip4)"><path d="M442.25,57.571c-0.812,5.789 -0.532,11.579 -0.503,17.368c12.031,-3.371 24.04,-6.805 35.196,-12.815c0.056,-5.954 0.112,-9.541 0.168,-13.321c-11.888,2.923 -23.417,5.845 -34.861,8.768Z" style="fill:#fff;stroke:#000;stroke-width:0.94px;"/><path d="M441.915,57.74c-7.921,-3.187 -15.938,-6.952 -24.302,-12.815l-0.167,14.164c8.415,6.922 16.311,11.236 24.301,16.018l0.168,-17.367Z" style="fill:#fff;stroke:#000;stroke-width:0.94px;"/><path d="M417.613,44.756c10.615,-3.871 21.229,-4.561 31.844,-4.89c11.298,2.222 21.158,5.367 27.989,8.937c-17.669,5.466 -23.856,5.958 -35.531,9.105c-9.257,-3.686 -17.279,-8.117 -24.302,-13.152Z" style="fill:#1a1a1a;stroke:#000;stroke-width:0.94px;"/><path d="M445.937,67.351l0.335,3.71l5.028,-1.518l-0.502,-3.372l-4.861,1.18Z" style="fill:#fff;stroke:#000;stroke-width:0.94px;"/><path d="M452.809,65.496l0.335,2.867l4.19,-1.518l-0.671,-3.035l-3.854,1.686Z" style="fill:#fff;stroke:#000;stroke-width:0.94px;"/></g></g><g><clipPath id="_clip5"><rect x="235.285" y="256.323" width="34.404" height="42.88"/></clipPath><g clip-path="url(#_clip5)"><path d="M235.992,260.207l0.638,37.814l24.064,0.159l-0.956,-41.151l-23.746,3.178Z" style="fill:#1a1a1a;stroke:#000;stroke-width:0.69px;"/><path d="M259.738,257.188l8.924,6.673l0.319,34.637l-8.606,-0.636l-0.637,-40.674Z" style="fill:#fff;stroke:#000;stroke-width:0.69px;"/></g></g></svg>