<?xml version="1.0" encoding="UTF-8" standalone="no"?><!DOCTYPE svg PUBLIC "-//W3C//DTD SVG 1.1//EN" "http://www.w3.org/Graphics/SVG/1.1/DTD/svg11.dtd"><svg width="100%" height="100%" viewBox="0 0 100 43" version="1.1" xmlns="http://www.w3.org/2000/svg" xmlns:xlink="http://www.w3.org/1999/xlink" xml:space="preserve" style="fill-rule:evenodd;clip-rule:evenodd;stroke-linecap:round;stroke-linejoin:round;stroke-miterlimit:1.5;"><rect x="0" y="0" width="100" height="42.595" style="fill:#f5f5f5;"/><path d="M47.613,21.612c8.426,1.44 19.385,-12.419 32.63,-12.392" style="fill:none;stroke:#888;stroke-width:0.65px;"/><path d="M48.09,21.842c8.425,-1.44 19.384,12.418 32.629,12.392" style="fill:none;stroke:#888;stroke-width:0.65px;"/><g><rect x="80.8" y="28.982" width="10.582" height="10.504" style="fill:#d65500;fill-opacity:0.992157;stroke:#fff;stroke-width:0.39px;"/><ellipse cx="80.753" cy="34.386" rx="1.153" ry="1.147" style="fill:#ddd;stroke:#fff;stroke-width:0.52px;"/></g><g><g><rect x="81.087" y="3.688" width="10.582" height="10.504" style="fill:#d65500;fill-opacity:0.992157;stroke:#fff;stroke-width:0.39px;"/><ellipse cx="81.039" cy="9.092" rx="1.153" ry="1.147" style="fill:#ddd;stroke:#fff;stroke-width:0.52px;"/></g><g><path d="M84.788,7.656l3.753,0c0.034,2.695 -0.485,4.167 -1.811,3.854c-1.478,0.351 -2.099,-1.287 -1.942,-3.854l0,0Z" style="fill:#fff;"/><g><path d="M89.179,7.027l-0.846,0.706" style="fill:none;stroke:#fff;stroke-width:0.52px;stroke-linecap:square;"/><path d="M84.065,7.03l0.845,0.706" style="fill:none;stroke:#fff;stroke-width:0.52px;stroke-linecap:square;"/></g><g><path d="M89.189,11.218l-0.845,-0.707" style="fill:none;stroke:#fff;stroke-width:0.52px;stroke-linecap:square;"/><path d="M84.075,11.215l0.845,-0.707" style="fill:none;stroke:#fff;stroke-width:0.52px;stroke-linecap:square;"/></g><path d="M83.632,9.05l5.92,0" style="fill:none;stroke:#fff;stroke-width:0.52px;stroke-linecap:square;"/><rect x="86.297" y="8.176" width="0.68" height="3.38" style="fill:#d65500;"/><path d="M85.513,7.205l2.42,0c-0.093,-0.727 -0.425,-1.177 -1.189,-1.237c-0.694,0.044 -1.184,0.436 -1.231,1.237Z" style="fill:#fff;"/></g></g><g><path d="M85.183,36.074l0,1.224l1.015,0.683l1.094,-0.683l0,-1.224l-2.109,0Z" style="fill:#fff;"/><path d="M86.799,36.228c1.035,-0.58 2.335,-2.985 1.881,-4.089c-0.745,-1.813 -4.12,-1.89 -4.777,0c-0.286,0.821 0.418,2.801 1.756,4.089l1.14,0Z" style="fill:none;stroke:#fff;stroke-width:0.39px;"/><path d="M86.607,31.584c0.69,0.017 1.123,0.296 1.098,1.041" style="fill:none;stroke:#fff;stroke-width:0.39px;"/></g><path d="M15.453,21.857l21.369,0" style="fill:none;stroke:#888;stroke-width:0.65px;stroke-linecap:square;stroke-linejoin:miter;"/><rect x="36.979" y="16.439" width="10.582" height="10.504" style="fill:#002156;fill-opacity:0.992157;stroke:#fff;stroke-width:0.39px;"/><ellipse cx="47.608" cy="21.842" rx="1.153" ry="1.147" style="fill:#ddd;stroke:#fff;stroke-width:0.52px;"/><ellipse cx="36.878" cy="21.68" rx="1.153" ry="1.147" style="fill:#ddd;stroke:#fff;stroke-width:0.52px;"/><g><path id="Back" d="M43.321,23.785l1.682,-1.824l-1.682,-1.859l-0.321,0.351l1.362,1.508l-1.362,1.474l0.321,0.35Z" style="fill:#fff;fill-rule:nonzero;stroke:#fffcfc;stroke-width:0.06px;stroke-linecap:butt;stroke-miterlimit:1.41421;"/><path id="Back1" d="M40.764,23.614l-1.682,-1.824l1.682,-1.86l0.32,0.351l-1.361,1.509l1.361,1.473l-0.32,0.351Z" style="fill:#fff;fill-rule:nonzero;stroke:#fffcfc;stroke-width:0.06px;stroke-linecap:butt;stroke-miterlimit:1.41421;"/><path d="M41.451,23.953l1.04,-4.266" style="fill:none;stroke:#fffdfd;stroke-width:0.65px;"/></g><rect x="3.775" y="16.256" width="10.46" height="10.383" style="fill:#d60000;fill-opacity:0.992157;stroke:#fff;stroke-width:0.39px;"/><g><ellipse cx="9.005" cy="21.207" rx="2.996" ry="3.029" style="fill:none;stroke:#fffdfd;stroke-width:0.52px;"/><path d="M9.328,20.162l0,1.511l-1.263,0" style="fill:none;stroke:#fffdfd;stroke-width:0.52px;"/></g><ellipse cx="14.474" cy="21.415" rx="1.068" ry="1.062" style="fill:#ddd;stroke:#fff;stroke-width:0.52px;"/></svg>