<?xml version="1.0" encoding="UTF-8" standalone="no"?><!DOCTYPE svg PUBLIC "-//W3C//DTD SVG 1.1//EN" "http://www.w3.org/Graphics/SVG/1.1/DTD/svg11.dtd"><svg width="100%" height="100%" viewBox="0 0 1023 756" version="1.1" xmlns="http://www.w3.org/2000/svg" xmlns:xlink="http://www.w3.org/1999/xlink" xml:space="preserve" style="fill-rule:evenodd;clip-rule:evenodd;stroke-linecap:round;stroke-linejoin:round;stroke-miterlimit:1.5;"><rect id="Artboard3" x="0" y="0" width="1022.56" height="755.515" style="fill:none;"/><clipPath id="_clip1"><rect x="0" y="0" width="1022.56" height="755.515"/></clipPath><g clip-path="url(#_clip1)"><rect x="1.559" y="0.97" width="1022.95" height="46.337" style="fill:#4767d3;"/><rect x="0.96" y="47.028" width="130.892" height="708.368" style="fill:#303030;"/><rect x="133.841" y="47.165" width="888.844" height="708.448" style="fill:#e3e3e3;"/><path d="M496.256,264.187c46.352,-0.9 51.153,1.662 80.621,0" style="fill:none;stroke:#888;stroke-width:2.5px;"/><path d="M254.813,399.128c33.339,-0.9 49.963,-95.196 71.158,-96.857" style="fill:none;stroke:#888;stroke-width:2.5px;"/><path d="M257.625,401.996c32.691,-0.388 54.334,99.722 75.116,99.005" style="fill:none;stroke:#888;stroke-width:2.5px;"/><path d="M365.658,301.262c44.347,4.964 61.465,82.814 91.94,87.067" style="fill:none;stroke:#888;stroke-width:2.5px;"/><path d="M363.511,298.229c12.173,1.363 71.549,-35.838 93.659,-32.752" style="fill:none;stroke:#888;stroke-width:2.5px;"/><path d="M376.971,488.048c6.72,4.096 17.472,-1.885 29.537,-9.724c15.948,-10.362 34.19,-23.971 48.44,-21.841" style="fill:none;stroke:#888;stroke-width:2.5px;"/><path d="M376.971,500.903c7.188,0.232 56.627,11.833 74.131,13.283" style="fill:none;stroke:#888;stroke-width:2.5px;"/><path d="M376.971,514.186c32.276,-5.517 49.221,52.216 73.328,55.537" style="fill:none;stroke:#888;stroke-width:2.5px;"/><rect x="267.942" y="21.566" width="9.099" height="8.752" style="fill:#d8586c;"/><rect x="244.145" y="21.566" width="9.099" height="8.752" style="fill:#d8586c;"/><rect x="256.044" y="21.566" width="9.099" height="8.752" style="fill:#d8586c;"/><rect x="232.247" y="21.566" width="9.099" height="8.752" style="fill:#d8586c;"/><rect x="220.349" y="21.566" width="9.099" height="8.752" style="fill:#d8586c;"/><rect x="220.349" y="21.566" width="9.099" height="8.752" style="fill:#d8586c;"/><rect x="47.237" y="186.924" width="43.257" height="42.941" style="fill:#ffcd00;fill-opacity:0.996078;"/><g><path d="M64.424,215.385l0,4.691l3.887,2.613l4.19,-2.613l0,-4.691l-8.077,0Z" style="fill:#fff;"/><path d="M70.613,215.976c3.965,-2.221 8.945,-11.436 7.206,-15.665c-2.854,-6.942 -15.783,-7.239 -18.302,0c-1.094,3.146 1.603,10.731 6.731,15.665l4.365,0Z" style="fill:none;stroke:#fff;stroke-width:1.5px;"/><path d="M69.879,198.185c2.64,0.068 4.301,1.133 4.204,3.989" style="fill:none;stroke:#fff;stroke-width:1.5px;"/></g><rect x="47.237" y="82.823" width="43.257" height="42.941" style="fill:#d60000;fill-opacity:0.996078;"/><g><rect x="47.237" y="265.255" width="43.257" height="42.941" style="fill:#ffcd00;fill-opacity:0.996078;"/><g><path d="M77.881,282.549c0,-1.303 -1.058,-2.36 -2.36,-2.36l-11.391,0c-1.302,0 -2.36,1.057 -2.36,2.36l0,9.701c0,1.302 1.058,2.36 2.36,2.36l11.391,0c1.302,0 2.36,-1.058 2.36,-2.36l0,-9.701Z" style="fill:#fff;"/><path d="M59.989,281.538c0,-0.842 -0.684,-1.525 -1.526,-1.525l-0.483,0c-0.842,0 -1.526,0.683 -1.526,1.525l0,7.71c0,0.842 0.684,1.526 1.526,1.526l0.483,0c0.842,0 1.526,-0.684 1.526,-1.526l0,-7.71Z" style="fill:#fff;"/><path d="M75.226,271.025c0.141,-0.294 0.017,-0.646 -0.276,-0.787l-0.168,-0.08c-0.294,-0.141 -0.646,-0.017 -0.787,0.276l-1.745,3.637c-0.14,0.293 -0.017,0.646 0.277,0.786l0.168,0.081c0.293,0.141 0.646,0.017 0.786,-0.276l1.745,-3.637Z" style="fill:#fff;"/><path d="M63.596,271.369c-0.141,-0.293 -0.017,-0.646 0.276,-0.786l0.169,-0.081c0.293,-0.141 0.645,-0.017 0.786,0.276l1.745,3.637c0.141,0.294 0.017,0.646 -0.276,0.787l-0.169,0.08c-0.293,0.141 -0.645,0.017 -0.786,-0.276l-1.745,-3.637Z" style="fill:#fff;"/><path d="M83.043,281.725c0,-0.842 -0.683,-1.526 -1.525,-1.526l-0.484,0c-0.842,0 -1.525,0.684 -1.525,1.526l0,7.71c0,0.842 0.683,1.525 1.525,1.525l0.484,0c0.842,0 1.525,-0.683 1.525,-1.525l0,-7.71Z" style="fill:#fff;"/><path d="M68.048,292.361c0,-0.842 -0.683,-1.525 -1.525,-1.525l-0.484,0c-0.842,0 -1.525,0.683 -1.525,1.525l0,7.71c0,0.842 0.683,1.526 1.525,1.526l0.484,0c0.842,0 1.525,-0.684 1.525,-1.526l0,-7.71Z" style="fill:#fff;"/><path d="M74.847,292.393c0,-0.842 -0.684,-1.525 -1.526,-1.525l-0.483,0c-0.842,0 -1.526,0.683 -1.526,1.525l0,7.71c0,0.842 0.684,1.526 1.526,1.526l0.483,0c0.842,0 1.526,-0.684 1.526,-1.526l0,-7.71Z" style="fill:#fff;"/><path d="M61.609,279.227c0.574,-4.065 3.833,-7.184 7.763,-7.184c3.929,0 7.188,3.119 7.762,7.184l-15.525,0Z" style="fill:#fff;"/><ellipse cx="65.442" cy="275.996" rx="0.773" ry="0.895" style="fill:#ffcd01;"/><ellipse cx="72.473" cy="275.996" rx="0.773" ry="0.895" style="fill:#ffcd01;"/></g></g><g><rect x="47.237" y="344.311" width="43.257" height="42.941" style="fill:#ffcd00;fill-opacity:0.996078;"/><path id="Back" d="M56.611,377.472l9.524,-9.434l-9.524,-9.615l-1.814,1.814l7.71,7.801l-7.71,7.619l1.814,1.815Z" style="fill:#fff;fill-rule:nonzero;stroke:#fffcfc;stroke-width:0.24px;stroke-linecap:butt;stroke-miterlimit:1.41421;"/><path d="M66.405,377.488l18.308,0" style="fill:none;stroke:#fffdfd;stroke-width:2.5px;"/></g><rect x="47.237" y="501.818" width="43.257" height="42.941" style="fill:#ffcd00;fill-opacity:0.996078;"/><rect x="47.237" y="605.351" width="43.257" height="42.941" style="fill:#002156;fill-opacity:0.996078;"/><g><path id="Back1" d="M76.856,636.892l9.525,-9.433l-9.525,-9.616l-1.814,1.815l7.71,7.801l-7.71,7.619l1.814,1.814Z" style="fill:#fff;fill-rule:nonzero;stroke:#fffcfc;stroke-width:0.24px;stroke-linecap:butt;stroke-miterlimit:1.41421;"/><path id="Back2" d="M62.377,636.005l-9.525,-9.434l9.525,-9.615l1.814,1.814l-7.71,7.801l7.71,7.62l-1.814,1.814Z" style="fill:#fff;fill-rule:nonzero;stroke:#fffcfc;stroke-width:0.24px;stroke-linecap:butt;stroke-miterlimit:1.41421;"/><path d="M66.264,637.757l5.895,-22.059" style="fill:none;stroke:#fffdfd;stroke-width:2.5px;"/></g><rect x="47.237" y="423.185" width="43.257" height="42.941" style="fill:#ffcd00;fill-opacity:0.996078;"/><path d="M81.398,441.8c-0.739,9.289 -3.578,12.289 -10.999,14.295c-5.304,1.41 -9.978,0.832 -13.768,-1.516c3.162,0.399 5.88,-0.054 7.535,-2.541c-1.831,-0.56 -3.603,-1.257 -4.88,-3.096l2.231,-0.704c-3.452,-1.615 -4.56,-2.403 -4.886,-5.437l2.655,0c-0.938,0.035 -2.539,-3.453 -2.099,-7.175c3.816,3.959 9.039,5.802 12.156,5.653c1.832,-0.322 1.138,-2.284 1.807,-4.327c1.236,-3.775 4.21,-3.11 8.346,-1.326l4.534,0l-3.293,1.948l4.018,0c-2.213,0.862 -3.888,2.044 -3.357,4.226Z" style="fill:#fff;"/><g><path d="M74.132,513.71c0,-2.933 -2.382,-5.315 -5.315,-5.315c-2.934,0 -5.315,2.382 -5.315,5.315l0,10.769c0,2.934 2.381,5.315 5.315,5.315c2.933,0 5.315,-2.381 5.315,-5.315l0,-10.769Z" style="fill:#fff;stroke:#fffdfd;stroke-width:2.5px;"/><path d="M78.214,524.058c-0.564,5.765 -4.538,10.238 -9.349,10.238c-4.811,0 -8.784,-4.473 -9.348,-10.238" style="fill:none;stroke:#fffdfd;stroke-width:2.5px;"/><path d="M68.62,535.005l0,3.953l-6.22,0l11.7,0" style="fill:none;stroke:#fffdfd;stroke-width:2.5px;"/></g><g><ellipse cx="68.865" cy="103.3" rx="12.39" ry="12.527" style="fill:none;stroke:#fffdfd;stroke-width:2.5px;"/><path d="M70.2,98.978l0,6.249l-5.223,0" style="fill:none;stroke:#fffdfd;stroke-width:2.5px;"/></g><rect x="47.343" y="687.031" width="43.257" height="42.941" style="fill:#002156;fill-opacity:0.996078;"/><g><rect x="64.722" y="716.522" width="14.019" height="5.927" style="fill:#fff;stroke:#fff;stroke-width:0.8px;"/><path d="M77.536,719.422c0,-0.314 -0.255,-0.57 -0.569,-0.57l-1.478,0c-0.314,0 -0.57,0.256 -0.57,0.57l0,1.14c0,0.314 0.256,0.569 0.57,0.569l1.478,0c0.314,0 0.569,-0.255 0.569,-0.569l0,-1.14Z" style="fill:#002156;"/><path d="M65.872,716.419c-1.396,-2.719 -6.768,-5.813 -8.71,-6.987c-1.127,-0.683 -0.916,-3.295 0,-3.953c0.916,-0.659 4.296,0.988 5.497,0c0.948,-0.78 0.029,-9.068 1.321,-10.655c0.983,-1.209 3.711,-1.431 4.56,-0.603c0.179,0.175 0.213,0.43 0.367,0.603c0.783,0.88 -0.643,6.536 1.39,6.889c2.792,0.486 9.629,-0.214 10.697,2.697c0.965,2.631 -2.014,6.08 -2.772,10.937c-0.679,4.351 -11.846,2.054 -12.35,1.072Z" style="fill:none;stroke:#fff;stroke-width:2.5px;"/></g><g><rect x="216.115" y="379.75" width="40.535" height="40.239" style="fill:#ffcd00;fill-opacity:0.996078;stroke:#fff;stroke-width:1.5px;"/><ellipse cx="256.832" cy="400.45" rx="4.415" ry="4.394" style="fill:#ddd;stroke:#fff;stroke-width:2px;"/></g><g><g><rect x="324.719" y="280.894" width="40.535" height="40.239" style="fill:#002156;fill-opacity:0.996078;stroke:#fff;stroke-width:1.5px;"/><ellipse cx="365.436" cy="301.594" rx="4.415" ry="4.394" style="fill:#ddd;stroke:#fff;stroke-width:2px;"/><ellipse cx="324.332" cy="300.971" rx="4.415" ry="4.394" style="fill:#ddd;stroke:#fff;stroke-width:2px;"/></g><g><path id="Back3" d="M349.013,309.037l6.442,-6.988l-6.442,-7.122l-1.227,1.344l5.215,5.778l-5.215,5.644l1.227,1.344Z" style="fill:#fff;fill-rule:nonzero;stroke:#fffcfc;stroke-width:0.24px;stroke-linecap:butt;stroke-miterlimit:1.41421;"/><path id="Back4" d="M339.22,308.38l-6.442,-6.988l6.442,-7.123l1.227,1.344l-5.215,5.779l5.215,5.644l-1.227,1.344Z" style="fill:#fff;fill-rule:nonzero;stroke:#fffcfc;stroke-width:0.24px;stroke-linecap:butt;stroke-miterlimit:1.41421;"/><path d="M341.849,309.678l3.987,-16.341" style="fill:none;stroke:#fffdfd;stroke-width:2.5px;"/></g></g><rect x="332.7" y="480.126" width="40.535" height="40.239" style="fill:#002156;fill-opacity:0.996078;stroke:#fff;stroke-width:1.5px;"/><ellipse cx="373.417" cy="500.012" rx="4.415" ry="4.394" style="fill:#ddd;stroke:#fff;stroke-width:2px;"/><ellipse cx="373.272" cy="487.951" rx="4.415" ry="4.394" style="fill:#ddd;stroke:#fff;stroke-width:2px;"/><ellipse cx="373.459" cy="512.573" rx="4.415" ry="4.394" style="fill:#ddd;stroke:#fff;stroke-width:2px;"/><ellipse cx="332.313" cy="500.203" rx="4.415" ry="4.394" style="fill:#ddd;stroke:#fff;stroke-width:2px;"/><g><path id="Back5" d="M356.994,508.269l6.442,-6.987l-6.442,-7.123l-1.227,1.344l5.215,5.779l-5.215,5.644l1.227,1.343Z" style="fill:#fff;fill-rule:nonzero;stroke:#fffcfc;stroke-width:0.24px;stroke-linecap:butt;stroke-miterlimit:1.41421;"/><path id="Back6" d="M347.2,507.612l-6.442,-6.988l6.442,-7.122l1.227,1.344l-5.215,5.778l5.215,5.644l-1.227,1.344Z" style="fill:#fff;fill-rule:nonzero;stroke:#fffcfc;stroke-width:0.24px;stroke-linecap:butt;stroke-miterlimit:1.41421;"/><path d="M349.83,508.91l3.986,-16.34" style="fill:none;stroke:#fffdfd;stroke-width:2.5px;"/></g><g><rect x="455.819" y="243.891" width="40.535" height="40.239" style="fill:#002156;fill-opacity:0.996078;stroke:#fff;stroke-width:1.5px;"/><ellipse cx="496.536" cy="264.591" rx="4.415" ry="4.394" style="fill:#ddd;stroke:#fff;stroke-width:2px;"/><ellipse cx="455.433" cy="263.969" rx="4.415" ry="4.394" style="fill:#ddd;stroke:#fff;stroke-width:2px;"/></g><g><path d="M467.708,268.347l3.635,-4.086l1.827,2.219l6.647,-6.619l5.175,4.4l0,5.95l-17.284,0l0,-1.864Z" style="fill:#fff;"/><ellipse cx="469.532" cy="260.756" rx="2.071" ry="2.138" style="fill:#fff;"/><path d="M487.841,257.707c0,-1.435 -1.165,-2.601 -2.601,-2.601l-18.039,0c-1.435,0 -2.601,1.166 -2.601,2.601l0,13.4c0,1.436 1.166,2.601 2.601,2.601l18.039,0c1.436,0 2.601,-1.165 2.601,-2.601l0,-13.4Z" style="fill:none;stroke:#fff;stroke-width:2px;"/></g><g><rect x="456.556" y="493.677" width="40.535" height="40.239" style="fill:#d65500;fill-opacity:0.996078;stroke:#fff;stroke-width:1.5px;"/><ellipse cx="456.374" cy="514.377" rx="4.415" ry="4.394" style="fill:#ddd;stroke:#fff;stroke-width:2px;"/></g><g><rect x="457.941" y="434.779" width="40.535" height="40.239" style="fill:#d65500;fill-opacity:0.996078;stroke:#fff;stroke-width:1.5px;"/><ellipse cx="457.76" cy="455.479" rx="4.415" ry="4.394" style="fill:#ddd;stroke:#fff;stroke-width:2px;"/></g><g><rect x="584.085" y="243.528" width="40.535" height="40.239" style="fill:#d65500;fill-opacity:0.996078;stroke:#fff;stroke-width:1.5px;"/><ellipse cx="583.903" cy="264.228" rx="4.415" ry="4.394" style="fill:#ddd;stroke:#fff;stroke-width:2px;"/></g><g><rect x="457.144" y="547.833" width="40.535" height="40.239" style="fill:#d65500;fill-opacity:0.996078;stroke:#fff;stroke-width:1.5px;"/><ellipse cx="456.963" cy="568.533" rx="4.415" ry="4.394" style="fill:#ddd;stroke:#fff;stroke-width:2px;"/></g><g><rect x="456.754" y="365.984" width="40.535" height="40.239" style="fill:#d65500;fill-opacity:0.996078;stroke:#fff;stroke-width:1.5px;"/><ellipse cx="456.573" cy="386.684" rx="4.415" ry="4.394" style="fill:#ddd;stroke:#fff;stroke-width:2px;"/></g><g><path d="M473.935,460.939l0,4.691l3.887,2.614l4.19,-2.614l0,-4.691l-8.077,0Z" style="fill:#fff;"/><path d="M480.124,461.53c3.965,-2.221 8.945,-11.436 7.206,-15.665c-2.854,-6.942 -15.783,-7.239 -18.302,0c-1.094,3.146 1.603,10.731 6.731,15.665l4.365,0Z" style="fill:none;stroke:#fff;stroke-width:1.5px;"/><path d="M479.39,443.739c2.64,0.068 4.301,1.134 4.204,3.989" style="fill:none;stroke:#fff;stroke-width:1.5px;"/></g><g><path d="M473.935,519.446l0,4.691l3.887,2.613l4.19,-2.613l0,-4.691l-8.077,0Z" style="fill:#fff;"/><path d="M480.124,520.036c3.965,-2.22 8.945,-11.435 7.206,-15.664c-2.854,-6.942 -15.783,-7.239 -18.302,0c-1.094,3.145 1.603,10.73 6.731,15.664l4.365,0Z" style="fill:none;stroke:#fff;stroke-width:1.5px;"/><path d="M479.39,502.245c2.64,0.069 4.301,1.134 4.204,3.99" style="fill:none;stroke:#fff;stroke-width:1.5px;"/></g><g><path d="M473.935,574.999l0,4.691l3.887,2.614l4.19,-2.614l0,-4.691l-8.077,0Z" style="fill:#fff;"/><path d="M480.124,575.59c3.965,-2.221 8.945,-11.436 7.206,-15.665c-2.854,-6.942 -15.783,-7.239 -18.302,0c-1.094,3.146 1.603,10.731 6.731,15.665l4.365,0Z" style="fill:none;stroke:#fff;stroke-width:1.5px;"/><path d="M479.39,557.799c2.64,0.068 4.301,1.134 4.204,3.989" style="fill:none;stroke:#fff;stroke-width:1.5px;"/></g><g><path d="M612.284,254.765c0,-1.888 -1.532,-3.421 -3.42,-3.421l-6.842,0c-1.888,0 -3.42,1.533 -3.42,3.421l0,16.326c0,1.887 1.532,3.42 3.42,3.42l6.842,0c1.888,0 3.42,-1.533 3.42,-3.42l0,-16.326Z" style="fill:#fff;"/><rect x="599.898" y="254.644" width="10.688" height="15.66" style="fill:#d65500;"/><rect x="604.058" y="271.077" width="2.435" height="2.517" style="fill:#d65500;"/></g><g transform="matrix(0.24,0,0,0.24,-981.537,-114.271)"><text x="4158.92px" y="600.925px" style="font-family:'Roboto-Light', 'Roboto';font-weight:300;font-size:83.333px;fill:none;">databo<tspan x="4414.5px " y="600.925px ">x</tspan> sdk</text><text x="4158.92px" y="600.925px" style="font-family:'Roboto-Light', 'Roboto';font-weight:300;font-size:83.333px;fill:#fff;stroke:#575757;stroke-width:1px;stroke-linecap:butt;stroke-miterlimit:1.41421;">databo<tspan x="4414.5px " y="600.925px ">x</tspan> sdk</text></g><g transform="matrix(0.24,0,0,0.24,-846.795,-115.394)"><text x="4158.92px" y="600.925px" style="font-family:'Roboto-Bold', 'Roboto';font-weight:700;font-size:54.167px;fill:none;">risk rating</text><text x="4158.92px" y="600.925px" style="font-family:'Roboto-Bold', 'Roboto';font-weight:700;font-size:54.167px;fill:#fff;stroke:#575757;stroke-width:1px;stroke-linecap:butt;stroke-miterlimit:1.41421;">risk rating</text></g><g transform="matrix(0.24,0,0,0.24,-960.96,-115.823)"><text x="4212.4px" y="765.635px" style="font-family:'Roboto-Light', 'Roboto';font-weight:300;font-size:62.5px;fill:none;">input</text><text x="4212.4px" y="765.635px" style="font-family:'Roboto-Light', 'Roboto';font-weight:300;font-size:62.5px;fill:#fff;stroke:#575757;stroke-width:1px;stroke-linecap:butt;stroke-miterlimit:1.41421;">input</text></g><g transform="matrix(0.24,0,0,0.24,-962.746,-39.4797)"><text x="4212.4px" y="765.635px" style="font-family:'Roboto-Light', 'Roboto';font-weight:300;font-size:62.5px;fill:none;">inject</text><text x="4212.4px" y="765.635px" style="font-family:'Roboto-Light', 'Roboto';font-weight:300;font-size:62.5px;fill:#fff;stroke:#575757;stroke-width:1px;stroke-linecap:butt;stroke-miterlimit:1.41421;">inject</text></g><g transform="matrix(0.24,0,0,0.24,-968.781,62.5381)"><text x="4212.4px" y="765.635px" style="font-family:'Roboto-Light', 'Roboto';font-weight:300;font-size:62.5px;fill:none;">bulbsin</text><text x="4212.4px" y="765.635px" style="font-family:'Roboto-Light', 'Roboto';font-weight:300;font-size:62.5px;fill:#fff;stroke:#575757;stroke-width:1px;stroke-linecap:butt;stroke-miterlimit:1.41421;">bulbsin</text></g><g transform="matrix(0.24,0,0,0.24,-978.467,143.172)"><text x="4212.4px" y="765.635px" style="font-family:'Roboto-Light', 'Roboto';font-weight:300;font-size:62.5px;fill:none;">sensingkit</text><text x="4212.4px" y="765.635px" style="font-family:'Roboto-Light', 'Roboto';font-weight:300;font-size:62.5px;fill:#fff;stroke:#575757;stroke-width:1px;stroke-linecap:butt;stroke-miterlimit:1.41421;">sensingkit</text></g><g transform="matrix(0.24,0,0,0.24,-978.694,221.51)"><text x="4212.4px" y="765.635px" style="font-family:'Roboto-Light', 'Roboto';font-weight:300;font-size:62.5px;fill:none;">osmonit<tspan x="4438.32px " y="765.635px ">o</tspan>r</text><text x="4212.4px" y="765.635px" style="font-family:'Roboto-Light', 'Roboto';font-weight:300;font-size:62.5px;fill:#fff;stroke:#575757;stroke-width:1px;stroke-linecap:butt;stroke-miterlimit:1.41421;">osmonit<tspan x="4438.32px " y="765.635px ">o</tspan>r</text></g><g transform="matrix(0.24,0,0,0.24,-966.122,299.849)"><text x="4212.4px" y="765.635px" style="font-family:'Roboto-Light', 'Roboto';font-weight:300;font-size:62.5px;fill:none;">twitter</text><text x="4212.4px" y="765.635px" style="font-family:'Roboto-Light', 'Roboto';font-weight:300;font-size:62.5px;fill:#fff;stroke:#575757;stroke-width:1px;stroke-linecap:butt;stroke-miterlimit:1.41421;">twitter</text></g><g transform="matrix(0.24,0,0,0.24,-955.119,379.335)"><text x="4212.4px" y="765.635px" style="font-family:'Roboto-Light', 'Roboto';font-weight:300;font-size:62.5px;fill:none;">mic</text><text x="4212.4px" y="765.635px" style="font-family:'Roboto-Light', 'Roboto';font-weight:300;font-size:62.5px;fill:#fff;stroke:#575757;stroke-width:1px;stroke-linecap:butt;stroke-miterlimit:1.41421;">mic</text></g><g transform="matrix(0.24,0,0,0.24,-980.448,479.03)"><text x="4212.4px" y="765.635px" style="font-family:'Roboto-Light', 'Roboto';font-weight:300;font-size:62.5px;fill:none;">dbfunction</text><text x="4212.4px" y="765.635px" style="font-family:'Roboto-Light', 'Roboto';font-weight:300;font-size:62.5px;fill:#fff;stroke:#575757;stroke-width:1px;stroke-linecap:butt;stroke-miterlimit:1.41421;">dbfunction</text></g><g transform="matrix(0.24,0,0,0.24,-967.84,561.265)"><text x="4212.4px" y="765.635px" style="font-family:'Roboto-Light', 'Roboto';font-weight:300;font-size:62.5px;fill:none;">extract</text><text x="4212.4px" y="765.635px" style="font-family:'Roboto-Light', 'Roboto';font-weight:300;font-size:62.5px;fill:#fff;stroke:#575757;stroke-width:1px;stroke-linecap:butt;stroke-miterlimit:1.41421;">extract</text></g><g transform="matrix(0.24,0,0,0.24,-977.421,-9.55858)"><text x="4212.4px" y="765.635px" style="font-family:'Roboto-Light', 'Roboto';font-weight:300;font-size:62.5px;fill:none;">datast<tspan x="4387.11px 4421.9px 4442.59px " y="765.635px 765.635px 765.635px ">ore</tspan>s</text><text x="4212.4px" y="765.635px" style="font-family:'Roboto-Light', 'Roboto';font-weight:300;font-size:62.5px;fill:#fff;stroke:#575757;stroke-width:1px;stroke-linecap:butt;stroke-miterlimit:1.41421;">datast<tspan x="4387.11px 4421.9px 4442.59px " y="765.635px 765.635px 765.635px ">ore</tspan>s</text></g><g transform="matrix(0.24,0,0,0.24,-977.82,405.991)"><text x="4212.4px" y="765.635px" style="font-family:'Roboto-Light', 'Roboto';font-weight:300;font-size:62.5px;fill:none;">pr<tspan x="4267.85px " y="765.635px ">o</tspan>cessors</text><text x="4212.4px" y="765.635px" style="font-family:'Roboto-Light', 'Roboto';font-weight:300;font-size:62.5px;fill:#fff;stroke:#575757;stroke-width:1px;stroke-linecap:butt;stroke-miterlimit:1.41421;">pr<tspan x="4267.85px " y="765.635px ">o</tspan>cessors</text></g><g transform="matrix(0.24,0,0,0.24,-919.947,-116.746)"><text x="6487.86px" y="602.397px" style="font-family:'Roboto-Light', 'Roboto';font-weight:300;font-size:62.5px;fill:none;">L<tspan x="6518.81px " y="602.397px ">O</tspan>GOUT</text><text x="6487.86px" y="602.397px" style="font-family:'Roboto-Light', 'Roboto';font-weight:300;font-size:62.5px;fill:#fff;stroke:#575757;stroke-width:1px;stroke-linecap:butt;stroke-miterlimit:1.41421;">L<tspan x="6518.81px " y="602.397px ">O</tspan>GOUT</text></g><g transform="matrix(0.24,0,0,0.24,-829.28,-116.746)"><text x="6487.86px" y="602.397px" style="font-family:'Roboto-Light', 'Roboto';font-weight:300;font-size:62.5px;fill:none;">L<tspan x="6518.81px 6560.22px " y="602.397px 602.397px ">OA</tspan>D</text><text x="6487.86px" y="602.397px" style="font-family:'Roboto-Light', 'Roboto';font-weight:300;font-size:62.5px;fill:#fff;stroke:#575757;stroke-width:1px;stroke-linecap:butt;stroke-miterlimit:1.41421;">L<tspan x="6518.81px 6560.22px " y="602.397px 602.397px ">OA</tspan>D</text></g><g transform="matrix(0.24,0,0,0.24,-758.857,-116.746)"><text x="6487.86px" y="602.397px" style="font-family:'Roboto-Light', 'Roboto';font-weight:300;font-size:62.5px;fill:none;">SA<tspan x="6561.81px " y="602.397px ">V</tspan>E</text><text x="6487.86px" y="602.397px" style="font-family:'Roboto-Light', 'Roboto';font-weight:300;font-size:62.5px;fill:#fff;stroke:#575757;stroke-width:1px;stroke-linecap:butt;stroke-miterlimit:1.41421;">SA<tspan x="6561.81px " y="602.397px ">V</tspan>E</text></g><g transform="matrix(0.24,0,0,0.24,-689.372,-116.746)"><text x="6487.86px" y="602.397px" style="font-family:'Roboto-Light', 'Roboto';font-weight:300;font-size:62.5px;fill:none;">TEST</text><text x="6487.86px" y="602.397px" style="font-family:'Roboto-Light', 'Roboto';font-weight:300;font-size:62.5px;fill:#fff;stroke:#575757;stroke-width:1px;stroke-linecap:butt;stroke-miterlimit:1.41421;">TEST</text></g><g transform="matrix(0.24,0,0,0.24,-620.099,-116.746)"><text x="6487.86px" y="602.397px" style="font-family:'Roboto-Light', 'Roboto';font-weight:300;font-size:62.5px;fill:none;">PUBLISH</text><text x="6487.86px" y="602.397px" style="font-family:'Roboto-Light', 'Roboto';font-weight:300;font-size:62.5px;fill:#fff;stroke:#575757;stroke-width:1px;stroke-linecap:butt;stroke-miterlimit:1.41421;">PUBLISH</text></g><g><path d="M240.423,391.386c0,-2.45 -1.989,-4.439 -4.439,-4.439c-2.45,0 -4.439,1.989 -4.439,4.439l0,8.994c0,2.45 1.989,4.439 4.439,4.439c2.45,0 4.439,-1.989 4.439,-4.439l0,-8.994Z" style="fill:#fff;stroke:#fffdfd;stroke-width:2.5px;"/><path d="M243.832,400.028c-0.471,4.815 -3.789,8.551 -7.807,8.551c-4.018,0 -7.337,-3.736 -7.808,-8.551" style="fill:none;stroke:#fffdfd;stroke-width:2.5px;"/><path d="M235.819,409.171l0,3.301l-5.194,0l9.771,0" style="fill:none;stroke:#fffdfd;stroke-width:2.5px;"/></g><g><path id="path4640" d="M471.07,382.681c1.853,0.011 0.937,-7.744 7.038,-7.998c5.034,-0.209 3.834,3.428 6.183,4.437c1.33,0.572 2.047,-0.817 4.296,0.509c3.122,1.84 1.63,4.664 2.568,6.542c0.291,0.583 3.016,0.074 3.498,3.13c0.945,5.981 -10.346,4.759 -16.251,4.768c-4.369,0.007 -12.283,1.47 -13.776,-2.742c-1.297,-3.656 2.666,-8.669 6.444,-8.646l0,0Z" style="fill:#fff;"/></g></g></svg>