<?xml version="1.0" encoding="UTF-8" standalone="no"?><!DOCTYPE svg PUBLIC "-//W3C//DTD SVG 1.1//EN" "http://www.w3.org/Graphics/SVG/1.1/DTD/svg11.dtd"><svg width="100%" height="100%" viewBox="0 0 667 378" version="1.1" xmlns="http://www.w3.org/2000/svg" xmlns:xlink="http://www.w3.org/1999/xlink" xml:space="preserve" style="fill-rule:evenodd;clip-rule:evenodd;"><rect x="0" y="0" width="666.195" height="377.676" style="fill:#f5f5f5;"/><path d="M522.083,69.754c31.002,30.507 31.002,79.968 0,110.475c-31.003,30.506 -81.268,30.506 -112.27,0c-31.003,-30.507 -31.003,-79.968 0,-110.475c31.002,-30.506 81.267,-30.506 112.27,0Z" style="fill:#fff;fill-rule:nonzero;stroke:#161616;stroke-width:2px;"/><path d="M332.494,275.082l0.44,-0.344l92.577,-72.394l0.439,-0.344" style="fill:none;stroke:#000;stroke-width:2px;"/><path d="M427.161,204.455l2.572,-5.413l-5.873,1.191l3.301,4.222Z" style="fill-rule:nonzero;"/><path d="M331.283,272.627l-2.571,5.413l5.873,-1.191l-3.302,-4.222Z" style="fill-rule:nonzero;"/><path d="M203.758,203.961l46.006,70.089" style="fill:none;stroke:#000;stroke-width:2px;"/><path d="M324.722,274.096c18.752,18.79 18.752,49.255 0,68.045c-18.752,18.79 -49.155,18.79 -67.907,0c-18.752,-18.79 -18.752,-49.255 0,-68.045c18.752,-18.79 49.155,-18.79 67.907,0Z" style="fill:#fff;fill-rule:nonzero;stroke:#000;stroke-width:2px;"/><path d="M247.267,275.17l5.314,2.768l-0.974,-5.913l-4.34,3.145Z" style="fill-rule:nonzero;"/><clipPath id="_clip1"><rect x="213.336" y="235.268" width="35.732" height="22.891"/></clipPath><g clip-path="url(#_clip1)"><path d="M221.648,244.736c2.089,0.012 1.056,-8.429 7.937,-8.705c5.676,-0.228 4.323,3.731 6.972,4.83c1.5,0.621 2.309,-0.89 4.846,0.553c3.521,2.003 1.838,5.076 2.895,7.121c0.329,0.635 3.401,0.08 3.946,3.407c1.065,6.51 -11.668,5.18 -18.328,5.19c-4.927,0.007 -13.852,1.6 -15.536,-2.985c-1.463,-3.979 3.007,-9.436 7.268,-9.411Z" style="fill:#fff;stroke:#000;stroke-width:0.66px;"/></g><text x="263.703px" y="313.201px" style="font-family:'Helvetica-Bold', 'Helvetica';font-weight:700;font-size:12px;">app store</text><text x="439.228px" y="95.926px" style="font-family:'Helvetica-Bold', 'Helvetica';font-weight:700;font-size:13.257px;">databox</text><g transform="matrix(1,0,0,1,-226.402,-443.576)"><text x="638px" y="558.8px" style="font-family:'Helvetica-Bold', 'Helvetica';font-weight:700;font-size:10px;">7.</text><text x="649.118px" y="558.8px" style="font-family:'Helvetica-Light', 'Helvetica', sans-serif;font-weight:300;font-size:10px;">review SLA (constructed</text><text x="638px" y="577.8px" style="font-family:'Helvetica-Light', 'Helvetica', sans-serif;font-weight:300;font-size:10px;">from manifest)</text><text x="638px" y="596.8px" style="font-family:'Helvetica-Bold', 'Helvetica';font-weight:700;font-size:10px;">8</text><text x="643.562px" y="596.8px" style="font-family:'Helvetica-Light', 'Helvetica', sans-serif;font-weight:300;font-size:10px;">. accept SLA &amp; install app</text><text x="638px" y="615.8px" style="font-family:'Helvetica-Bold', 'Helvetica';font-weight:700;font-size:10px;">9.</text><text x="649.118px" y="615.8px" style="font-family:'Helvetica-Light', 'Helvetica', sans-serif;font-weight:300;font-size:10px;">run app</text></g><g transform="matrix(1,0,0,1,-249.247,-314.877)"><text x="638px" y="583.8px" style="font-family:'Helvetica-Bold', 'Helvetica';font-weight:700;font-size:10px;">6.</text><text x="649.118px" y="583.8px" style="font-family:'Helvetica-Light', 'Helvetica', sans-serif;font-weight:300;font-size:10px;">list apps on app sto</text><text x="737.478px" y="583.8px" style="font-family:'Helvetica-Light', 'Helvetica', sans-serif;font-weight:300;font-size:10px;">r</text><text x="740.633px" y="583.8px" style="font-family:'Helvetica-Light', 'Helvetica', sans-serif;font-weight:300;font-size:10px;">e</text></g><g transform="matrix(0.55831,0,0,0.55831,57.2217,-12.0402)"><text x="128px" y="510px" style="font-family:'Helvetica-Bold', 'Helvetica';font-weight:700;font-size:17.911px;">5</text><text x="137.961px" y="510px" style="font-family:'Helvetica-Light', 'Helvetica', sans-serif;font-weight:300;font-size:17.911px;">. publish to app sto</text><text x="292.248px" y="510px" style="font-family:'Helvetica-Light', 'Helvetica', sans-serif;font-weight:300;font-size:17.911px;">r</text><text x="297.899px" y="510px" style="font-family:'Helvetica-Light', 'Helvetica', sans-serif;font-weight:300;font-size:17.911px;">e</text></g><path d="M247.285,72.599c31.003,30.507 31.003,79.968 0,110.474c-31.002,30.507 -81.267,30.507 -112.269,0c-31.003,-30.506 -31.003,-79.967 0,-110.474c31.002,-30.507 81.267,-30.507 112.269,0Z" style="fill:#fff;fill-rule:nonzero;stroke:#161616;stroke-width:2px;"/><text x="138.965px" y="109.072px" style="font-family:'Helvetica-Bold', 'Helvetica';font-weight:700;font-size:12px;">app development</text><clipPath id="_clip2"><rect x="361.29" y="227.107" width="35.732" height="22.891"/></clipPath><g clip-path="url(#_clip2)"><path d="M369.602,236.575c2.09,0.012 1.057,-8.428 7.937,-8.705c5.677,-0.228 4.324,3.732 6.973,4.83c1.5,0.621 2.308,-0.89 4.845,0.553c3.521,2.003 1.838,5.076 2.896,7.121c0.328,0.635 3.401,0.08 3.945,3.407c1.065,6.51 -11.668,5.18 -18.328,5.19c-4.926,0.007 -13.851,1.6 -15.536,-2.984c-1.462,-3.98 3.007,-9.436 7.268,-9.412Z" style="fill:#fff;stroke:#000;stroke-width:0.66px;"/></g><g transform="matrix(1,0,0,1,-281.33,-113.771)"><text x="441.236px" y="240.363px" style="font-family:'Helvetica-Bold', 'Helvetica';font-weight:700;font-size:10px;">1</text><text x="446.798px" y="240.363px" style="font-family:'Helvetica-Light', 'Helvetica', sans-serif;font-weight:300;font-size:10px;">. build</text><text x="441.236px" y="259.363px" style="font-family:'Helvetica-Bold', 'Helvetica';font-weight:700;font-size:10px;">2.</text><text x="452.354px" y="259.363px" style="font-family:'Helvetica-Light', 'Helvetica', sans-serif;font-weight:300;font-size:10px;">test</text><text x="441.236px" y="278.363px" style="font-family:'Helvetica-Bold', 'Helvetica';font-weight:700;font-size:10px;">3.</text><text x="452.354px" y="278.363px" style="font-family:'Helvetica-Light', 'Helvetica', sans-serif;font-weight:300;font-size:10px;">c</text><text x="457.914px" y="278.363px" style="font-family:'Helvetica-Light', 'Helvetica', sans-serif;font-weight:300;font-size:10px;">r</text><text x="461.069px" y="278.363px" style="font-family:'Helvetica-Light', 'Helvetica', sans-serif;font-weight:300;font-size:10px;">eate manifest</text><text x="441.236px" y="297.363px" style="font-family:'Helvetica-Bold', 'Helvetica';font-weight:700;font-size:10px;">4</text><text x="446.798px" y="297.363px" style="font-family:'Helvetica-Light', 'Helvetica', sans-serif;font-weight:300;font-size:10px;">. dockerise</text></g><circle cx="189.901" cy="64.97" r="30.711" style="fill:#fff;stroke:#3a3a3a;stroke-width:2px;stroke-linecap:round;stroke-linejoin:round;stroke-miterlimit:1.5;"/><circle cx="291.518" cy="254.158" r="30.711" style="fill:#fff;stroke:#3a3a3a;stroke-width:2px;stroke-linecap:round;stroke-linejoin:round;stroke-miterlimit:1.5;"/><circle cx="463.545" cy="53.422" r="30.711" style="fill:#fff;stroke:#3a3a3a;stroke-width:2px;stroke-linecap:round;stroke-linejoin:round;stroke-miterlimit:1.5;"/><g><clipPath id="_clip3"><rect x="170.323" y="48.912" width="37.409" height="33.283"/></clipPath><g clip-path="url(#_clip3)"><path d="M192.414,78.55c0,-0.879 -0.715,-1.593 -1.597,-1.593l-2.414,0c-0.881,0 -1.596,0.714 -1.596,1.593l0,1.431c0,0.879 0.715,1.593 1.596,1.593l2.414,0c0.882,0 1.597,-0.714 1.597,-1.593l0,-1.431Z" style="stroke:#000;stroke-width:1.1px;"/><path d="M207.109,51.281c0,-0.964 -0.784,-1.747 -1.751,-1.747l-32.662,0c-0.966,0 -1.751,0.783 -1.751,1.747l0,25.187c0,0.965 0.785,1.748 1.751,1.748l32.662,0c0.967,0 1.751,-0.783 1.751,-1.748l0,-25.187Z" style="stroke:#000;stroke-width:1.1px;"/><path d="M205.443,52.368c0,-0.88 -0.715,-1.594 -1.596,-1.594l-29.776,0c-0.881,0 -1.596,0.714 -1.596,1.594l0,22.586c0,0.879 0.715,1.593 1.596,1.593l29.776,0c0.881,0 1.596,-0.714 1.596,-1.593l0,-22.586Z" style="fill:#fff;stroke:#000;stroke-width:0.99px;"/><path d="M182.9,57.98c0,-0.58 -0.472,-1.051 -1.053,-1.051l-1.553,0c-0.581,0 -1.053,0.471 -1.053,1.051l0,1.398c0,0.58 0.472,1.051 1.053,1.051l1.553,0c0.581,0 1.053,-0.471 1.053,-1.051l0,-1.398Z" style="fill:#fc0;stroke:#000;stroke-width:1.1px;"/><path d="M182.9,66.349c0,-0.58 -0.472,-1.051 -1.053,-1.051l-1.553,0c-0.581,0 -1.053,0.471 -1.053,1.051l0,1.398c0,0.58 0.472,1.051 1.053,1.051l1.553,0c0.581,0 1.053,-0.471 1.053,-1.051l0,-1.398Z" style="fill:#fc0;stroke:#000;stroke-width:1.1px;"/><path d="M191.284,62.088c0,-0.58 -0.472,-1.051 -1.053,-1.051l-1.553,0c-0.581,0 -1.053,0.471 -1.053,1.051l0,1.398c0,0.58 0.472,1.051 1.053,1.051l1.553,0c0.581,0 1.053,-0.471 1.053,-1.051l0,-1.398Z" style="fill:#f60;stroke:#000;stroke-width:1.1px;"/><path d="M199.973,62.088c0,-0.58 -0.472,-1.051 -1.053,-1.051l-1.552,0c-0.582,0 -1.053,0.471 -1.053,1.051l0,1.398c0,0.58 0.471,1.051 1.053,1.051l1.552,0c0.581,0 1.053,-0.471 1.053,-1.051l0,-1.398Z" style="fill:#3771c8;stroke:#000;stroke-width:1.1px;"/><path d="M182.976,58.603c0.356,0.847 1.587,0.659 2.084,1.33c0.773,1.042 0.958,2.759 2.489,2.854" style="fill:none;stroke:#000;stroke-width:1.1px;"/><path d="M182.9,67.14c0.356,-0.847 1.587,-0.659 2.084,-1.33c0.772,-1.042 0.958,-2.759 2.489,-2.855" style="fill:none;stroke:#000;stroke-width:1.1px;"/><path d="M191.36,62.635l4.802,0.076" style="fill:none;stroke:#000;stroke-width:1.1px;"/></g></g><g><clipPath id="_clip4"><rect x="436.712" y="41.163" width="54.342" height="32.469"/></clipPath><g clip-path="url(#_clip4)"><path d="M459.292,57.472c-0.718,5.117 -0.47,10.233 -0.445,15.349c10.633,-2.979 21.246,-6.014 31.105,-11.325c0.05,-5.262 0.099,-8.432 0.149,-11.773c-10.506,2.583 -20.695,5.166 -30.809,7.749Z" style="fill:#fff;stroke:#000;stroke-width:0.94px;"/><path d="M458.995,57.621c-7,-2.816 -14.085,-6.143 -21.477,-11.325l-0.148,12.517c7.437,6.118 14.416,9.931 21.477,14.157l0.148,-15.349Z" style="fill:#fff;stroke:#000;stroke-width:0.94px;"/><path d="M437.518,46.147c9.381,-3.422 18.762,-4.031 28.143,-4.322c9.985,1.964 18.699,4.743 24.736,7.898c-15.616,4.831 -21.083,5.266 -31.402,8.047c-8.181,-3.257 -15.27,-7.174 -21.477,-11.623Z" style="fill:#1a1a1a;stroke:#000;stroke-width:0.94px;"/><path d="M462.55,66.115l0.296,3.279l4.444,-1.341l-0.444,-2.981l-4.296,1.043Z" style="fill:#fff;stroke:#000;stroke-width:0.94px;"/><path d="M468.623,64.476l0.296,2.534l3.703,-1.342l-0.592,-2.682l-3.407,1.49Z" style="fill:#fff;stroke:#000;stroke-width:0.94px;"/></g></g><g><clipPath id="_clip5"><rect x="276.38" y="233.126" width="30.405" height="37.897"/></clipPath><g clip-path="url(#_clip5)"><path d="M277.005,236.558l0.563,33.419l21.268,0.141l-0.845,-36.369l-20.986,2.809Z" style="fill:#1a1a1a;stroke:#000;stroke-width:0.69px;"/><path d="M297.991,233.89l7.887,5.897l0.282,30.612l-7.606,-0.562l-0.563,-35.947Z" style="fill:#fff;stroke:#000;stroke-width:0.69px;"/></g></g></svg>