<?xml version="1.0" encoding="UTF-8" standalone="no"?><!DOCTYPE svg PUBLIC "-//W3C//DTD SVG 1.1//EN" "http://www.w3.org/Graphics/SVG/1.1/DTD/svg11.dtd"><svg width="100%" height="100%" viewBox="0 0 100 38" version="1.1" xmlns="http://www.w3.org/2000/svg" xmlns:xlink="http://www.w3.org/1999/xlink" xml:space="preserve" style="fill-rule:evenodd;clip-rule:evenodd;stroke-linecap:round;stroke-linejoin:round;stroke-miterlimit:1.5;"><rect x="0" y="0" width="100" height="37.452" style="fill:#f5f5f5;"/><rect x="11.142" y="14.671" width="8.911" height="8.846" style="fill:#ffcd00;fill-opacity:0.996078;stroke:#fff;stroke-width:0.3px;"/><path d="M18.652,18.763c-0.163,2.042 -0.787,2.702 -2.418,3.142c-1.166,0.31 -2.193,0.183 -3.027,-0.333c0.696,0.088 1.293,-0.012 1.657,-0.558c-0.403,-0.123 -0.792,-0.277 -1.073,-0.681l0.491,-0.155c-0.759,-0.355 -1.003,-0.528 -1.075,-1.195l0.584,0c-0.206,0.008 -0.558,-0.759 -0.461,-1.577c0.839,0.87 1.987,1.275 2.672,1.242c0.403,-0.07 0.25,-0.502 0.397,-0.951c0.272,-0.829 0.926,-0.683 1.835,-0.291l0.996,0l-0.723,0.428l0.883,0c-0.487,0.19 -0.855,0.449 -0.738,0.929Z" style="fill:#fff;"/><path d="M41.032,19.233c7.095,-1.212 10.82,11.479 16.119,12.209" style="fill:none;stroke:#888;stroke-width:0.7px;"/><path d="M41.455,18.748c7.095,1.213 10.82,-11.478 16.119,-12.208" style="fill:none;stroke:#888;stroke-width:0.7px;"/><rect x="58.841" y="1.635" width="8.911" height="8.846" style="fill:#d65500;fill-opacity:0.996078;stroke:#fff;stroke-width:0.3px;"/><ellipse cx="58.801" cy="6.186" rx="0.971" ry="0.966" style="fill:#ddd;stroke:#fff;stroke-width:0.5px;"/><g><path d="M61.958,4.977l3.16,0c0.029,2.269 -0.408,3.509 -1.525,3.245c-1.244,0.295 -1.767,-1.083 -1.635,-3.245Z" style="fill:#fff;stroke:#fff;stroke-width:0.3px;stroke-linecap:square;"/><g><path d="M65.655,4.447l-0.711,0.595" style="fill:none;stroke:#fff;stroke-width:0.3px;stroke-linecap:square;"/><path d="M61.349,4.45l0.712,0.595" style="fill:none;stroke:#fff;stroke-width:0.3px;stroke-linecap:square;"/></g><g><path d="M65.664,7.976l-0.712,-0.594" style="fill:none;stroke:#fff;stroke-width:0.3px;stroke-linecap:square;"/><path d="M61.357,7.974l0.712,-0.595" style="fill:none;stroke:#fff;stroke-width:0.3px;stroke-linecap:square;"/></g><path d="M60.985,6.151l4.985,0" style="fill:none;stroke:#fff;stroke-width:0.3px;stroke-linecap:square;"/><rect x="63.229" y="5.415" width="0.573" height="2.846" style="fill:#d65500;stroke:#fff;stroke-width:0.3px;stroke-linecap:square;stroke-linejoin:miter;"/><path d="M62.568,4.597l2.038,0c-0.078,-0.612 -0.357,-0.991 -1.001,-1.041c-0.584,0.037 -0.997,0.367 -1.037,1.041Z" style="fill:#fff;stroke:#fff;stroke-width:0.3px;stroke-linecap:butt;stroke-linejoin:miter;"/></g><path d="M21.377,19.144l10.226,0" style="fill:none;stroke:#888;stroke-width:0.7px;stroke-linecap:square;stroke-linejoin:miter;"/><rect x="31.804" y="14.512" width="8.911" height="8.846" style="fill:#002156;fill-opacity:0.996078;stroke:#fff;stroke-width:0.3px;"/><ellipse cx="40.754" cy="19.062" rx="0.971" ry="0.966" style="fill:#ddd;stroke:#fff;stroke-width:0.5px;"/><ellipse cx="31.719" cy="18.925" rx="0.971" ry="0.966" style="fill:#ddd;stroke:#fff;stroke-width:0.5px;"/><g><path id="Back" d="M37.144,20.698l1.416,-1.536l-1.416,-1.566l-0.27,0.296l1.147,1.27l-1.147,1.241l0.27,0.295Z" style="fill:#fff;fill-rule:nonzero;"/><path id="Back1" d="M34.991,20.554l-1.416,-1.536l1.416,-1.566l0.27,0.295l-1.146,1.271l1.146,1.24l-0.27,0.296Z" style="fill:#fff;fill-rule:nonzero;"/><path d="M35.569,20.839l0.877,-3.592" style="fill:none;"/></g><ellipse cx="20.553" cy="19.036" rx="0.899" ry="0.895" style="fill:#ddd;stroke:#fff;stroke-width:0.5px;"/><path d="M67.302,31.496l10.226,0" style="fill:none;stroke:#888;stroke-width:0.7px;stroke-linecap:square;stroke-linejoin:miter;"/><rect x="78.449" y="26.831" width="8.911" height="8.846" style="fill:#d65500;fill-opacity:0.996078;stroke:#fff;stroke-width:0.3px;"/><ellipse cx="78.409" cy="31.381" rx="0.971" ry="0.966" style="fill:#ddd;stroke:#fff;stroke-width:0.5px;"/><g><path d="M84.648,29.301c0,-0.415 -0.336,-0.752 -0.751,-0.752l-1.504,0c-0.415,0 -0.752,0.337 -0.752,0.752l0,3.589c0,0.415 0.337,0.752 0.752,0.752l1.504,0c0.415,0 0.751,-0.337 0.751,-0.752l0,-3.589Z" style="fill:#fff;"/><rect x="81.926" y="29.274" width="2.35" height="3.442" style="fill:#d65500;"/><rect x="82.84" y="32.886" width="0.535" height="0.553" style="fill:#d65500;"/></g><rect x="58.201" y="26.961" width="8.911" height="8.846" style="fill:#002156;fill-opacity:0.996078;stroke:#fff;stroke-width:0.3px;"/><ellipse cx="67.151" cy="31.511" rx="0.971" ry="0.966" style="fill:#ddd;stroke:#fff;stroke-width:0.5px;"/><ellipse cx="58.116" cy="31.374" rx="0.971" ry="0.966" style="fill:#ddd;stroke:#fff;stroke-width:0.5px;"/><g><path d="M60.814,32.337l0.799,-0.898l0.402,0.487l1.461,-1.455l1.138,0.968l0,1.308l-3.8,0l0,-0.41Z" style="fill:#fff;stroke:#fff;stroke-width:0.3px;"/><ellipse cx="61.215" cy="30.668" rx="0.455" ry="0.47" style="fill:#fff;stroke:#fff;stroke-width:0.3px;"/><path d="M65.24,29.998c0,-0.316 -0.256,-0.572 -0.572,-0.572l-3.965,0c-0.316,0 -0.572,0.256 -0.572,0.572l0,2.946c0,0.315 0.256,0.571 0.572,0.571l3.965,0c0.316,0 0.572,-0.256 0.572,-0.571l0,-2.946Z" style="fill:none;stroke:#fff;stroke-width:0.3px;"/></g></svg>