<?xml version="1.0" encoding="UTF-8" standalone="no"?><!DOCTYPE svg PUBLIC "-//W3C//DTD SVG 1.1//EN" "http://www.w3.org/Graphics/SVG/1.1/DTD/svg11.dtd"><svg width="100%" height="100%" viewBox="0 0 2268 1418" version="1.1" xmlns="http://www.w3.org/2000/svg" xmlns:xlink="http://www.w3.org/1999/xlink" xml:space="preserve" style="fill-rule:evenodd;clip-rule:evenodd;stroke-linejoin:round;"><path id="path10271" d="M1238.66,680.448l268.002,-2.966" style="fill:none;stroke:#333;stroke-width:13px;"/><rect id="rect9702" x="207.848" y="170.879" width="286.874" height="285.455" style="fill:#fc0;stroke:#333;stroke-width:14.43px;"/><rect id="rect97021" x="209.788" y="909.831" width="286.874" height="285.455" style="fill:#fc0;stroke:#333;stroke-width:14.43px;"/><path id="path9704" d="M514.582,311.533l0.377,0.002l0.376,0.002l0.375,0.004l0.375,0.005l0.374,0.006l0.373,0.007l0.373,0.009l0.372,0.01l0.372,0.011l0.371,0.012l0.37,0.013l0.37,0.015l0.369,0.015l0.369,0.017l0.367,0.018l0.368,0.02l0.366,0.02l0.366,0.022l0.366,0.023l0.364,0.024l0.364,0.025l0.364,0.026l0.362,0.027l0.363,0.029l0.361,0.03l0.362,0.031l0.36,0.032l0.36,0.033l0.358,0.035l0.359,0.036l0.358,0.036l0.358,0.038l0.356,0.039l0.356,0.041l0.355,0.041l0.356,0.043l0.354,0.043l0.353,0.045l0.353,0.046l0.353,0.047l0.352,0.049l0.35,0.049l0.351,0.051l0.35,0.051l0.349,0.053l0.349,0.054l0.348,0.055l0.347,0.056l0.347,0.058l0.347,0.058l0.345,0.06l0.345,0.06l0.345,0.062l0.343,0.063l0.344,0.064l0.342,0.065l0.343,0.067l0.34,0.067l0.341,0.069l0.34,0.069l0.34,0.071l0.338,0.072l0.339,0.073l0.337,0.074l0.338,0.075l0.336,0.076l0.336,0.077l0.335,0.079l0.335,0.079l0.334,0.081l0.333,0.081l0.333,0.083l0.332,0.084l0.332,0.085l0.331,0.086l0.33,0.087l0.33,0.088l0.329,0.089l0.328,0.09l0.329,0.092l0.326,0.092l0.328,0.093l0.326,0.095l0.326,0.095l0.324,0.097l0.325,0.098l0.323,0.098l0.323,0.1l0.323,0.101l0.322,0.102l0.32,0.102l0.322,0.104l0.319,0.105l0.32,0.106l0.319,0.107l0.318,0.108l0.318,0.109l0.317,0.11l0.316,0.112l0.316,0.112l0.315,0.113l0.314,0.114l0.315,0.115l0.313,0.116l0.313,0.118l0.312,0.118l0.312,0.119l0.311,0.12l0.31,0.121l0.311,0.123l0.308,0.123l0.309,0.124l0.308,0.126l0.307,0.126l0.307,0.127l0.307,0.128l0.306,0.129l0.304,0.13l0.305,0.132l0.303,0.131l0.304,0.134l0.303,0.134l0.302,0.135l0.301,0.136l0.301,0.136l0.301,0.139l0.299,0.138l0.299,0.14l0.298,0.141l0.298,0.141l0.297,0.143l0.298,0.144l0.296,0.144l0.295,0.146l0.295,0.146l0.295,0.147l0.293,0.148l0.294,0.15l0.292,0.15l0.292,0.151l0.292,0.152l0.291,0.153l0.29,0.154l0.289,0.154l0.29,0.156l0.288,0.157l0.288,0.157l0.287,0.158l0.287,0.16l0.286,0.16l0.286,0.161l0.285,0.162l0.284,0.163l0.284,0.163l0.283,0.165l0.284,0.166l0.281,0.166l0.282,0.167l0.281,0.168l0.281,0.17l0.28,0.169l0.279,0.171l0.278,0.172l0.278,0.172l0.278,0.174l0.277,0.174l0.277,0.175l0.275,0.176l0.276,0.177l0.274,0.177l0.275,0.179l0.273,0.179l0.274,0.18l0.272,0.181l0.272,0.182l0.272,0.183l0.27,0.183l0.27,0.185l0.27,0.185l0.269,0.186l0.269,0.187l0.268,0.187l0.267,0.189l0.267,0.189l0.266,0.19l0.266,0.191l0.266,0.192l0.264,0.192l0.264,0.193l0.264,0.195l0.263,0.194l0.263,0.196l0.262,0.197l0.261,0.197l0.261,0.198l0.261,0.199l0.259,0.199l0.26,0.201l0.259,0.201l0.257,0.202l0.258,0.203l0.257,0.203l0.257,0.205l0.256,0.205l0.255,0.206l0.256,0.206l0.254,0.207l0.255,0.209l0.252,0.208l0.253,0.21l0.253,0.21l0.251,0.211l0.252,0.212l0.251,0.213l0.25,0.213l0.25,0.214l0.249,0.215l0.249,0.215l0.248,0.217l0.247,0.217l0.248,0.218l0.246,0.217l0.247,0.22l0.246,0.22l0.245,0.221l0.244,0.22l0.244,0.223l0.244,0.222l0.243,0.224l0.242,0.224l0.243,0.225l0.241,0.225l0.241,0.226l0.241,0.228l0.239,0.226l0.241,0.23l0.239,0.228l0.239,0.23l0.238,0.23l0.237,0.231l0.237,0.232l0.238,0.233l0.236,0.233l0.235,0.233l0.235,0.235l0.235,0.235l0.234,0.235l0.234,0.237l0.233,0.237l0.233,0.237l0.233,0.239l0.232,0.239l0.231,0.239l0.231,0.241l0.23,0.241l0.231,0.242l0.229,0.242l0.229,0.243l0.228,0.243l0.229,0.245l0.227,0.245l0.228,0.245l0.226,0.246l0.227,0.247l0.225,0.247l0.226,0.248l0.225,0.249l0.225,0.25l0.223,0.249l0.223,0.25l0.224,0.251l0.222,0.252l0.222,0.252l0.222,0.253l0.221,0.253l0.221,0.254l0.221,0.255l0.22,0.256l0.219,0.255l0.219,0.257l0.219,0.257l0.218,0.258l0.218,0.258l0.217,0.259l0.217,0.259l0.217,0.26l0.216,0.261l0.215,0.261l0.216,0.262l0.214,0.262l0.215,0.263l0.214,0.263l0.213,0.264l0.213,0.265l0.213,0.265l0.212,0.266l0.212,0.266l0.211,0.267l0.211,0.267l0.211,0.268l0.21,0.269l0.21,0.269l0.209,0.27l0.209,0.27l0.208,0.27l0.209,0.271l0.207,0.272l0.208,0.272l0.207,0.273l0.206,0.274l0.206,0.273l0.206,0.275l0.205,0.275l0.205,0.275l0.205,0.277l0.204,0.276l0.204,0.277l0.203,0.277l0.203,0.278l0.203,0.279l0.202,0.279l0.202,0.28l0.201,0.28l0.201,0.28l0.201,0.281l0.2,0.282l0.2,0.282l0.2,0.283l0.199,0.283l0.199,0.284l0.198,0.284l0.198,0.284l0.198,0.285l0.197,0.286l0.197,0.286l0.197,0.287l0.196,0.286l0.196,0.288l0.195,0.288l0.195,0.288l0.195,0.29l0.195,0.289l0.194,0.29l0.193,0.29l0.194,0.291l0.193,0.291l0.192,0.292l0.193,0.292l0.192,0.293l0.191,0.293l0.191,0.293l0.191,0.294l0.191,0.295l0.19,0.294l0.19,0.296l0.19,0.296l0.189,0.296l0.189,0.297l0.188,0.297l0.188,0.297l0.188,0.298l0.188,0.299l0.187,0.298l0.187,0.3l0.186,0.299l0.186,0.3l0.186,0.301l0.186,0.301l0.185,0.301l0.185,0.302l0.184,0.302l0.185,0.303l0.183,0.303l0.184,0.303l0.183,0.304l0.183,0.305l0.183,0.305l0.182,0.304l0.182,0.306l0.182,0.306l0.182,0.306l0.181,0.307l0.181,0.307l0.18,0.307l0.18,0.308l0.18,0.308l0.18,0.309l0.179,0.309l0.179,0.309l0.179,0.31l0.178,0.31l0.178,0.31l0.178,0.311l0.177,0.312l0.177,0.311l0.177,0.312l0.177,0.313l0.177,0.313l0.175,0.312l0.176,0.314l0.176,0.314l0.175,0.314l0.175,0.314l0.174,0.315l0.175,0.316l0.174,0.315l0.174,0.316l0.173,0.317l0.173,0.316l0.173,0.317l0.173,0.317l0.172,0.318l0.172,0.318l0.173,0.319l0.171,0.318l0.171,0.319l0.171,0.319l0.171,0.32l0.171,0.32l0.17,0.32l0.17,0.321l0.17,0.321l0.169,0.321l0.17,0.322l0.169,0.321l0.168,0.322l0.169,0.323l0.168,0.323l0.168,0.323l0.168,0.323l0.167,0.324l0.167,0.324l0.167,0.324l0.167,0.325l0.167,0.325l0.166,0.325l0.166,0.326l0.165,0.326l0.166,0.326l0.165,0.327l0.165,0.326l0.165,0.327l0.164,0.327l0.165,0.327l0.164,0.329l0.164,0.328l0.164,0.328l0.163,0.329l0.163,0.329l0.163,0.329l0.163,0.329l0.162,0.33l0.162,0.33l0.163,0.33l0.161,0.331l0.162,0.331l0.161,0.331l0.161,0.331l0.161,0.331l0.161,0.332l0.161,0.332l0.16,0.332l0.16,0.333l0.16,0.332l0.159,0.333l0.16,0.334l0.159,0.333l0.159,0.334l0.159,0.334l0.158,0.334l0.159,0.335l0.158,0.334l0.158,0.335l0.158,0.335l0.158,0.335l0.157,0.336l0.157,0.336l0.157,0.336l0.157,0.336l0.157,0.336l0.156,0.337l0.156,0.337l0.156,0.336l0.156,0.338l0.156,0.338l0.155,0.337l0.156,0.338l0.155,0.338l0.155,0.338l0.155,0.339l0.308,0.677l0.155,0.34l0.154,0.338l0.153,0.34l0.154,0.339l0.154,0.34l0.153,0.34l0.153,0.34l0.153,0.341l0.153,0.34l0.153,0.341l0.152,0.34l0.152,0.341l0.153,0.342l0.152,0.341l0.151,0.341l0.152,0.342l0.151,0.342l0.152,0.342l0.151,0.341l0.151,0.343l0.301,0.685l0.151,0.343l0.301,0.686l0.15,0.343l0.15,0.343l0.299,0.687l0.299,0.688l0.298,0.688l0.298,0.689l0.297,0.689l0.296,0.689l0.296,0.69l0.296,0.691l0.295,0.691l0.294,0.691l0.294,0.692l0.293,0.692l0.293,0.693l0.293,0.693l0.292,0.693l0.291,0.694l0.291,0.694l0.29,0.694l0.29,0.695l0.29,0.695l0.289,0.695l0.289,0.695l0.289,0.696l0.288,0.695l0.287,0.697l0.287,0.696l0.287,0.696l0.287,0.697l0.286,0.696l0.286,0.697l0.285,0.697l0.285,0.697l0.285,0.697l0.284,0.698l0.284,0.697l0.284,0.697l0.284,0.698l0.283,0.697l0.283,0.697l0.283,0.697l0.282,0.698l0.282,0.697l0.282,0.697l0.563,1.394l0.563,1.393l0.561,1.393l0.561,1.393l0.56,1.391l0.56,1.391l1.117,2.778l0.558,1.387l0.558,1.385l0.557,1.384l0.557,1.383l0.557,1.381l0.557,1.379l0.279,0.688l0.278,0.688l0.279,0.688l0.278,0.687l0.279,0.686l0.278,0.686l0.279,0.685l0.279,0.685l0.278,0.684l0.279,0.683l0.279,0.683l0.279,0.682l0.279,0.681l0.279,0.681l0.279,0.68l0.28,0.679l0.279,0.679l0.28,0.678l0.28,0.676l0.279,0.677l0.28,0.675l0.281,0.674l0.28,0.674l0.28,0.673l0.281,0.672l0.281,0.671l0.281,0.67l0.282,0.669l0.281,0.668l0.282,0.668l0.282,0.666l0.282,0.665l0.283,0.665l0.282,0.663l0.283,0.662l0.284,0.661l0.283,0.661l0.284,0.659l0.284,0.659l0.142,0.328l0.285,0.656l0.285,0.655l0.142,0.328l0.143,0.326l0.285,0.653l0.286,0.652l0.286,0.651l0.144,0.324l0.286,0.649l0.287,0.648l0.288,0.646l0.144,0.322l0.288,0.645l0.144,0.322l0.289,0.642l0.144,0.321l0.144,0.32l0.145,0.32l0.145,0.32l0.145,0.32l0.145,0.319l0.29,0.637l0.291,0.636l0.145,0.317l0.146,0.317l0.145,0.317l0.146,0.316l0.292,0.632l0.146,0.315l0.147,0.315l0.146,0.314l0.146,0.314l0.147,0.314l0.147,0.314l0.147,0.313l0.147,0.312l0.147,0.313l0.147,0.311l0.147,0.312l0.148,0.312l0.148,0.31l0.147,0.31l0.148,0.311l0.148,0.309l0.148,0.31l0.149,0.309l0.148,0.308l0.148,0.308l0.149,0.308l0.149,0.307l0.149,0.307l0.149,0.306l0.149,0.306l0.149,0.306l0.149,0.305l0.15,0.305l0.15,0.305l0.15,0.304l0.15,0.303l0.15,0.303l0.15,0.303l0.151,0.303l0.15,0.301l0.151,0.302l0.151,0.301l0.151,0.3l0.151,0.301l0.151,0.299l0.151,0.3l0.152,0.299l0.152,0.298l0.152,0.298l0.152,0.298l0.152,0.297l0.152,0.296l0.153,0.297l0.153,0.296l0.152,0.294l0.153,0.295l0.154,0.295l0.153,0.294l0.153,0.293l0.154,0.293l0.154,0.293l0.154,0.292l0.154,0.292l0.154,0.29l0.155,0.291l0.154,0.291l0.155,0.289l0.155,0.289l0.155,0.289l0.155,0.289l0.156,0.287l0.155,0.287l0.156,0.287l0.156,0.287l0.156,0.286l0.156,0.284l0.157,0.285l0.157,0.285l0.157,0.284l0.156,0.283l0.158,0.283l0.157,0.282l0.158,0.282l0.158,0.281l0.157,0.281l0.158,0.28l0.159,0.28l0.158,0.279l0.159,0.279l0.159,0.278l0.159,0.278l0.159,0.277l0.159,0.276l0.16,0.277l0.16,0.275l0.16,0.275l0.16,0.275l0.16,0.273l0.161,0.274l0.161,0.273l0.16,0.272l0.161,0.272l0.162,0.271l0.161,0.27l0.162,0.27l0.162,0.271l0.162,0.268l0.162,0.269l0.163,0.267l0.163,0.268l0.162,0.267l0.163,0.266l0.164,0.266l0.163,0.264l0.164,0.265l0.164,0.264l0.164,0.263l0.165,0.264l0.164,0.261l0.164,0.262l0.166,0.261l0.165,0.261l0.165,0.259l0.166,0.26l0.166,0.258l0.165,0.258l0.167,0.258l0.166,0.257l0.167,0.256l0.167,0.256l0.167,0.255l0.167,0.254l0.167,0.254l0.168,0.253l0.168,0.253l0.168,0.252l0.168,0.251l0.169,0.251l0.169,0.251l0.169,0.249l0.169,0.249l0.17,0.249l0.169,0.248l0.17,0.247l0.17,0.246l0.171,0.245l0.17,0.246l0.171,0.245l0.171,0.243l0.171,0.244l0.172,0.243l0.172,0.242l0.171,0.241l0.173,0.241l0.172,0.24l0.173,0.239l0.173,0.239l0.173,0.238l0.173,0.237l0.174,0.238l0.174,0.236l0.174,0.235l0.174,0.235l0.174,0.234l0.175,0.234l0.175,0.233l0.175,0.232l0.176,0.232l0.176,0.23l0.175,0.231l0.177,0.229l0.176,0.229l0.177,0.228l0.177,0.228l0.177,0.227l0.177,0.226l0.178,0.225l0.178,0.225l0.178,0.224l0.178,0.223l0.179,0.223l0.179,0.222l0.179,0.221l0.179,0.221l0.18,0.22l0.18,0.219l0.18,0.218l0.18,0.218l0.181,0.218l0.181,0.216l0.181,0.215l0.182,0.216l0.181,0.213l0.182,0.214l0.182,0.213l0.182,0.212l0.183,0.211l0.183,0.211l0.183,0.21l0.184,0.209l0.184,0.209l0.183,0.208l0.184,0.207l0.186,0.208l0.183,0.203l0.186,0.206l0.277,0.305l0.186,0.203l0.187,0.203l0.279,0.302l0.186,0.2l0.281,0.3l0.186,0.198l0.188,0.198l0.188,0.197l0.188,0.196l0.189,0.196l0.283,0.292l0.188,0.193l0.308,0.314l0.307,0.313l0.308,0.313l0.308,0.313l0.308,0.311l0.308,0.311l0.308,0.31l0.309,0.31l0.308,0.309l0.309,0.309l0.308,0.308l0.31,0.308l0.308,0.306l0.31,0.306l0.309,0.306l0.309,0.305l0.31,0.305l0.309,0.303l0.31,0.304l0.31,0.303l0.31,0.302l0.31,0.301l0.31,0.301l0.31,0.3l0.31,0.3l0.311,0.299l0.31,0.299l0.311,0.298l0.311,0.298l0.311,0.296l0.311,0.297l0.311,0.295l0.311,0.295l0.312,0.295l0.311,0.294l0.311,0.293l0.312,0.293l0.312,0.293l0.312,0.291l0.311,0.291l0.312,0.291l0.313,0.29l0.312,0.289l0.312,0.289l0.313,0.288l0.312,0.288l0.313,0.287l0.312,0.286l0.313,0.286l0.313,0.286l0.313,0.284l0.313,0.285l0.313,0.284l0.313,0.283l0.313,0.282l0.314,0.282l0.313,0.282l0.313,0.28l0.314,0.281l0.314,0.279l0.314,0.279l0.313,0.279l0.315,0.278l0.314,0.278l0.313,0.277l0.314,0.276l0.315,0.276l0.314,0.275l0.315,0.275l0.314,0.274l0.315,0.273l0.314,0.273l0.315,0.273l0.315,0.272l0.315,0.271l0.314,0.271l0.315,0.27l0.315,0.27l0.315,0.269l0.315,0.269l0.316,0.268l0.315,0.267l0.315,0.267l0.316,0.267l0.315,0.265l0.315,0.265l0.316,0.265l0.315,0.264l0.316,0.264l0.316,0.263l0.316,0.263l0.315,0.262l0.316,0.261l0.317,0.261l0.315,0.261l0.316,0.259l0.317,0.26l0.316,0.258l0.316,0.259l0.316,0.257l0.316,0.257l0.317,0.257l0.316,0.256l0.316,0.255l0.317,0.256l0.316,0.254l0.317,0.254l0.317,0.253l0.316,0.253l0.317,0.252l0.316,0.252l0.317,0.251l0.317,0.251l0.317,0.25l0.317,0.25l0.317,0.249l0.317,0.249l0.316,0.248l0.318,0.247l0.317,0.247l0.316,0.246l0.317,0.246l0.318,0.246l0.317,0.245l0.317,0.244l0.317,0.244l0.318,0.243l0.317,0.243l0.317,0.242l0.317,0.242l0.318,0.241l0.317,0.241l0.317,0.24l0.317,0.24l0.318,0.239l0.317,0.238l0.318,0.238l0.317,0.238l0.318,0.237l0.317,0.236l0.317,0.237l0.318,0.235l0.318,0.235l0.317,0.234l0.317,0.234l0.318,0.234l0.317,0.233l0.318,0.232l0.317,0.232l0.318,0.232l0.318,0.231l0.317,0.23l0.318,0.23l0.317,0.229l0.318,0.229l0.317,0.228l0.318,0.228l0.318,0.227l0.317,0.227l0.317,0.226l0.318,0.226l0.318,0.226l0.317,0.224l0.318,0.225l0.318,0.224l0.317,0.223l0.317,0.222l0.318,0.223l0.317,0.222l0.318,0.221l0.318,0.221l0.317,0.22l0.317,0.22l0.318,0.219l0.317,0.219l0.318,0.218l0.317,0.218l0.318,0.217l0.317,0.217l0.317,0.216l0.317,0.216l0.318,0.216l0.317,0.214l0.317,0.215l0.318,0.214l0.317,0.213l0.317,0.213l0.317,0.212l0.317,0.212l0.317,0.211l0.317,0.211l0.317,0.211l0.317,0.21l0.318,0.209l0.316,0.209l0.317,0.208l0.317,0.209l0.317,0.207l0.317,0.207l0.317,0.207l0.316,0.205l0.317,0.206l0.317,0.205l0.316,0.205l0.317,0.204l0.317,0.204l0.316,0.203l0.316,0.203l0.317,0.202l0.316,0.201l0.316,0.202l0.317,0.201l0.316,0.2l0.316,0.2l0.316,0.199l0.317,0.199l0.315,0.198l0.316,0.198l0.316,0.198l0.316,0.197l0.316,0.196l0.316,0.197l0.316,0.195l0.315,0.195l0.316,0.195l0.315,0.194l0.316,0.194l0.315,0.193l0.316,0.193l0.315,0.192l0.315,0.192l0.315,0.191l0.316,0.191l0.315,0.191l0.315,0.189l0.315,0.19l0.315,0.189l0.314,0.189l0.315,0.188l0.314,0.187l0.315,0.188l0.315,0.187l0.314,0.186l0.314,0.186l0.315,0.185l0.314,0.185l0.314,0.184l0.314,0.184l0.315,0.184l0.313,0.183l0.314,0.183l0.314,0.182l0.313,0.182l0.314,0.181l0.314,0.181l0.313,0.18l0.314,0.18l0.312,0.18l0.313,0.179l0.314,0.178l0.313,0.178l0.312,0.178l0.314,0.177l0.312,0.177l0.313,0.176l0.313,0.177l0.312,0.175l0.312,0.175l0.313,0.175l0.312,0.174l0.312,0.173l0.312,0.173l0.312,0.173l0.312,0.173l0.311,0.171l0.312,0.172l0.311,0.171l0.311,0.171l0.312,0.17l0.312,0.17l0.31,0.169l0.311,0.168l0.311,0.169l0.311,0.168l0.31,0.168l0.311,0.167l0.311,0.166l0.31,0.167l0.31,0.165l0.31,0.166l0.31,0.165l0.31,0.164l0.31,0.164l0.31,0.164l0.309,0.163l0.309,0.163l0.31,0.162l0.309,0.162l0.309,0.162l0.309,0.161l0.309,0.161l0.309,0.16l0.308,0.159l0.308,0.16l0.309,0.159l0.308,0.158l0.308,0.158l0.308,0.158l0.308,0.157l0.307,0.157l0.308,0.157l0.307,0.156l0.308,0.155l0.307,0.156l0.307,0.154l0.307,0.154l0.307,0.155l0.306,0.153l0.307,0.153l0.306,0.153l0.306,0.152l0.307,0.152l0.306,0.151l0.305,0.151l0.306,0.151l0.305,0.15l0.306,0.15l0.305,0.149l0.305,0.149l0.305,0.149l0.305,0.148l0.305,0.147l0.304,0.148l0.304,0.147l0.304,0.146l0.305,0.146l0.304,0.146l0.304,0.145l0.303,0.145l0.303,0.144l0.304,0.145l0.303,0.143l0.303,0.143l0.303,0.144l0.303,0.142l0.302,0.142l0.302,0.142l0.303,0.141l0.301,0.141l0.302,0.14l0.302,0.14l0.302,0.14l0.301,0.139l0.301,0.139l0.301,0.139l0.301,0.138l0.301,0.137l0.3,0.137l0.301,0.137l0.3,0.137l0.3,0.136l0.3,0.136l0.299,0.135l0.3,0.135l0.299,0.134l0.299,0.135l0.3,0.134l0.298,0.133l0.299,0.133l0.298,0.132l0.299,0.133l0.298,0.132l0.298,0.131l0.297,0.131l0.298,0.131l0.297,0.13l0.297,0.13l0.297,0.129l0.297,0.129l0.297,0.129l0.296,0.129l0.296,0.128l0.296,0.127l0.296,0.128l0.296,0.126l0.295,0.127l0.296,0.126l0.295,0.126l0.294,0.125l0.295,0.125l0.295,0.125l0.294,0.124l0.294,0.124l0.294,0.123l0.294,0.123l0.293,0.123l0.294,0.122l0.293,0.122l0.292,0.122l0.293,0.121l0.292,0.121l0.293,0.121l0.292,0.12l0.292,0.119l0.291,0.12l0.583,0.238l0.582,0.236l0.29,0.117l0.291,0.118l0.29,0.116l0.29,0.117l0.29,0.116l0.289,0.116l0.289,0.115l0.289,0.115l0.289,0.115l0.578,0.228l0.287,0.114l0.288,0.113l0.288,0.113l0.287,0.112l0.575,0.225l0.286,0.111l0.574,0.222l0.286,0.11l0.572,0.22l0.284,0.109l0.286,0.109l0.285,0.109l0.285,0.108l0.285,0.108l0.284,0.107l0.283,0.107l0.568,0.214l0.283,0.106l0.283,0.106l0.566,0.211l0.282,0.105l0.282,0.104l0.282,0.104l0.282,0.104l0.281,0.103l0.281,0.103l0.281,0.103l0.28,0.102l0.561,0.204l0.559,0.203l0.28,0.1l0.279,0.101l0.278,0.1l0.558,0.199l0.277,0.099l0.556,0.197l0.277,0.098l0.554,0.195l0.276,0.097l0.553,0.193l0.55,0.192l0.551,0.19l0.549,0.189l0.548,0.188l0.274,0.094l0.272,0.093l0.273,0.092l0.546,0.185l0.272,0.092l0.543,0.183l0.543,0.181l0.271,0.09l0.27,0.09l0.54,0.179l0.27,0.089l0.269,0.088l0.538,0.177l0.536,0.174l0.536,0.174l0.534,0.173l0.534,0.171l0.532,0.17l0.53,0.169l0.53,0.167l0.528,0.166l0.528,0.165l0.526,0.164l0.524,0.163l0.524,0.161l0.522,0.16l0.521,0.159l0.52,0.158l0.519,0.157l0.517,0.155l0.516,0.154l0.515,0.154l0.513,0.151l0.512,0.151l0.511,0.149l0.51,0.149l0.508,0.147l0.507,0.146l0.253,0.073l0.505,0.144l0.504,0.143l0.502,0.142l0.5,0.141l0.5,0.14l0.498,0.138l0.498,0.138l0.494,0.136l0.495,0.136l0.493,0.134l0.491,0.133l0.49,0.132l0.488,0.131l0.487,0.13l0.486,0.128l0.484,0.128l0.483,0.127l0.482,0.125l0.479,0.124l0.479,0.124l0.477,0.122l0.475,0.121l0.474,0.121l0.473,0.119l0.471,0.118l0.469,0.117l0.468,0.116l0.467,0.115l0.465,0.114l0.464,0.113l0.462,0.112l0.46,0.111l0.459,0.11l0.457,0.109l0.456,0.108l0.454,0.107l0.453,0.106l0.451,0.105l0.449,0.104l0.448,0.103l0.446,0.102l0.445,0.101l0.443,0.1l0.442,0.1l0.439,0.098l0.438,0.097l0.437,0.097l0.434,0.095l0.434,0.095l0.431,0.093l0.43,0.093l0.429,0.092l0.426,0.091l0.424,0.089l0.424,0.09l0.421,0.088l0.42,0.087l0.417,0.086l0.417,0.086l0.415,0.084l0.412,0.084l0.412,0.083l0.409,0.082l0.407,0.081l0.406,0.08l0.404,0.08l0.402,0.078l0.401,0.078l0.398,0.077l0.397,0.076l0.395,0.075l0.393,0.074l0.392,0.074l0.389,0.073l0.388,0.071l0.386,0.071l0.383,0.071l0.383,0.069l0.38,0.069l0.379,0.068l0.376,0.067l0.375,0.066l0.372,0.066l0.371,0.065l0.37,0.064l0.367,0.063l0.365,0.062l0.363,0.062l0.361,0.061l0.36,0.06l0.357,0.06l0.355,0.059l0.354,0.058l0.352,0.057l0.349,0.057l0.347,0.055l0.346,0.056l0.344,0.054l0.341,0.054l0.34,0.053l0.338,0.052l0.335,0.052l0.334,0.051l0.331,0.05l0.329,0.05l0.328,0.048l0.326,0.049l0.323,0.047l0.321,0.047l0.319,0.047l0.317,0.045l0.316,0.045l0.312,0.044l0.311,0.044l0.308,0.043l0.307,0.043l0.304,0.041l0.303,0.042l0.3,0.04l0.298,0.04l0.296,0.04l0.294,0.038l0.291,0.039l0.289,0.037l0.288,0.037l0.285,0.037l0.282,0.035l0.56,0.07l0.275,0.034l0.274,0.034l0.273,0.033l0.269,0.033l0.267,0.031l0.528,0.063l0.261,0.03l0.257,0.03l0.511,0.058l0.251,0.028l0.496,0.055l0.487,0.053l0.477,0.051l0.468,0.049l0.458,0.047l0.449,0.045l0.44,0.043l0.431,0.042l0.419,0.04l0.412,0.038l0.4,0.036l0.393,0.035l0.38,0.034l0.186,0.016l0.368,0.031l0.356,0.029l0.347,0.028l0.337,0.026l0.326,0.026l0.315,0.023l0.306,0.023l0.296,0.021l0.286,0.02l0.274,0.018l0.264,0.018l0.254,0.016l0.243,0.015l0.232,0.014l0.222,0.013l0.212,0.012l0.389,0.021l0.346,0.018l0.302,0.014l0.257,0.012l0.3,0.012l0.316,0.01l-0.326,11.996l-0.031,-0.001l-0.087,-0.003l-0.135,-0.004l-0.182,-0.006l-0.111,-0.005l-0.121,-0.005l-0.132,-0.005l-0.143,-0.006l-0.155,-0.007l-0.166,-0.008l-0.177,-0.008l-0.187,-0.01l-0.2,-0.01l-0.21,-0.012l-0.221,-0.012l-0.232,-0.013l-0.242,-0.014l-0.254,-0.016l-0.265,-0.016l-0.275,-0.018l-0.285,-0.019l-0.297,-0.02l-0.307,-0.021l-0.316,-0.023l-0.328,-0.024l-0.339,-0.025l-0.348,-0.027l-0.358,-0.028l-0.369,-0.03l-0.379,-0.031l-0.387,-0.033l-0.199,-0.017l-0.201,-0.017l-0.205,-0.018l-0.204,-0.018l-0.208,-0.019l-0.212,-0.019l-0.212,-0.019l-0.215,-0.02l-0.219,-0.021l-0.221,-0.021l-0.223,-0.021l-0.224,-0.021l-0.229,-0.023l-0.23,-0.022l-0.232,-0.023l-0.235,-0.024l-0.238,-0.024l-0.24,-0.024l-0.242,-0.025l-0.244,-0.026l-0.248,-0.026l-0.248,-0.026l-0.253,-0.027l-0.254,-0.028l-0.256,-0.028l-0.259,-0.028l-0.26,-0.029l-0.264,-0.03l-0.265,-0.03l-0.268,-0.031l-0.271,-0.031l-0.273,-0.032l-0.274,-0.032l-0.277,-0.032l-0.28,-0.034l-0.282,-0.034l-0.283,-0.034l-0.286,-0.035l-0.289,-0.036l-0.291,-0.036l-0.292,-0.037l-0.296,-0.037l-0.297,-0.038l-0.3,-0.039l-0.301,-0.039l-0.305,-0.04l-0.306,-0.04l-0.308,-0.041l-0.311,-0.042l-0.312,-0.042l-0.315,-0.043l-0.317,-0.044l-0.319,-0.044l-0.322,-0.045l-0.323,-0.045l-0.326,-0.046l-0.328,-0.047l-0.329,-0.048l-0.332,-0.048l-0.334,-0.049l-0.337,-0.049l-0.338,-0.05l-0.34,-0.051l-0.343,-0.052l-0.344,-0.052l-0.347,-0.053l-0.348,-0.054l-0.351,-0.054l-0.353,-0.055l-0.355,-0.056l-0.356,-0.056l-0.359,-0.058l-0.361,-0.057l-0.363,-0.059l-0.365,-0.06l-0.366,-0.06l-0.369,-0.061l-0.371,-0.062l-0.372,-0.062l-0.375,-0.063l-0.377,-0.064l-0.379,-0.065l-0.38,-0.066l-0.382,-0.066l-0.385,-0.067l-0.386,-0.068l-0.389,-0.069l-0.39,-0.07l-0.392,-0.07l-0.394,-0.071l-0.396,-0.072l-0.398,-0.073l-0.399,-0.073l-0.402,-0.075l-0.404,-0.075l-0.404,-0.076l-0.408,-0.077l-0.409,-0.078l-0.411,-0.079l-0.412,-0.08l-0.415,-0.08l-0.416,-0.081l-0.418,-0.082l-0.42,-0.083l-0.422,-0.084l-0.424,-0.085l-0.424,-0.086l-0.428,-0.087l-0.428,-0.087l-0.431,-0.088l-0.432,-0.09l-0.435,-0.09l-0.435,-0.091l-0.437,-0.092l-0.44,-0.093l-0.441,-0.094l-0.443,-0.095l-0.444,-0.096l-0.446,-0.097l-0.448,-0.097l-0.449,-0.099l-0.452,-0.1l-0.453,-0.1l-0.455,-0.102l-0.455,-0.102l-0.458,-0.104l-0.46,-0.104l-0.461,-0.106l-0.462,-0.106l-0.465,-0.108l-0.466,-0.109l-0.468,-0.109l-0.469,-0.111l-0.471,-0.111l-0.472,-0.113l-0.474,-0.113l-0.476,-0.115l-0.477,-0.116l-0.479,-0.116l-0.48,-0.118l-0.482,-0.119l-0.483,-0.12l-0.485,-0.121l-0.487,-0.122l-0.488,-0.123l-0.489,-0.124l-0.491,-0.125l-0.493,-0.126l-0.493,-0.128l-0.496,-0.128l-0.497,-0.13l-0.499,-0.13l-0.499,-0.132l-0.502,-0.133l-0.502,-0.134l-0.505,-0.135l-0.506,-0.136l-0.507,-0.138l-0.508,-0.138l-0.509,-0.14l-0.257,-0.07l-0.256,-0.071l-0.255,-0.07l-0.257,-0.072l-0.258,-0.071l-0.257,-0.072l-0.257,-0.072l-0.258,-0.072l-0.259,-0.073l-0.258,-0.072l-0.259,-0.074l-0.26,-0.073l-0.26,-0.074l-0.26,-0.074l-0.26,-0.074l-0.261,-0.075l-0.261,-0.075l-0.261,-0.075l-0.262,-0.075l-0.262,-0.076l-0.262,-0.076l-0.263,-0.077l-0.263,-0.076l-0.263,-0.077l-0.265,-0.078l-0.264,-0.077l-0.264,-0.078l-0.264,-0.078l-0.266,-0.079l-0.266,-0.079l-0.265,-0.079l-0.266,-0.079l-0.266,-0.08l-0.267,-0.08l-0.267,-0.08l-0.268,-0.081l-0.267,-0.081l-0.268,-0.081l-0.269,-0.081l-0.268,-0.082l-0.269,-0.083l-0.269,-0.082l-0.27,-0.083l-0.27,-0.083l-0.27,-0.083l-0.27,-0.084l-0.272,-0.084l-0.271,-0.085l-0.271,-0.084l-0.272,-0.085l-0.272,-0.085l-0.273,-0.086l-0.272,-0.086l-0.273,-0.086l-0.274,-0.087l-0.273,-0.087l-0.274,-0.087l-0.275,-0.087l-0.274,-0.088l-0.275,-0.088l-0.275,-0.089l-0.276,-0.089l-0.276,-0.089l-0.275,-0.089l-0.277,-0.09l-0.277,-0.09l-0.277,-0.091l-0.277,-0.09l-0.277,-0.091l-0.279,-0.092l-0.278,-0.091l-0.278,-0.092l-0.278,-0.093l-0.28,-0.093l-0.279,-0.093l-0.279,-0.093l-0.28,-0.094l-0.281,-0.094l-0.28,-0.094l-0.281,-0.095l-0.28,-0.095l-0.282,-0.095l-0.282,-0.096l-0.282,-0.096l-0.282,-0.096l-0.282,-0.097l-0.283,-0.097l-0.283,-0.097l-0.283,-0.098l-0.284,-0.098l-0.283,-0.098l-0.285,-0.099l-0.284,-0.099l-0.285,-0.1l-0.285,-0.099l-0.285,-0.1l-0.285,-0.101l-0.286,-0.1l-0.286,-0.102l-0.287,-0.101l-0.286,-0.102l-0.287,-0.102l-0.287,-0.103l-0.287,-0.102l-0.288,-0.104l-0.288,-0.103l-0.288,-0.104l-0.288,-0.104l-0.289,-0.105l-0.289,-0.105l-0.289,-0.105l-0.289,-0.106l-0.29,-0.106l-0.29,-0.106l-0.29,-0.107l-0.291,-0.107l-0.291,-0.107l-0.291,-0.108l-0.291,-0.108l-0.291,-0.108l-0.292,-0.109l-0.292,-0.11l-0.292,-0.109l-0.292,-0.11l-0.293,-0.11l-0.294,-0.111l-0.293,-0.111l-0.293,-0.111l-0.294,-0.112l-0.293,-0.112l-0.295,-0.112l-0.295,-0.113l-0.294,-0.113l-0.295,-0.114l-0.295,-0.113l-0.295,-0.114l-0.296,-0.115l-0.296,-0.115l-0.296,-0.116l-0.296,-0.115l-0.297,-0.116l-0.297,-0.117l-0.297,-0.116l-0.297,-0.118l-0.297,-0.117l-0.298,-0.118l-0.298,-0.118l-0.298,-0.119l-0.299,-0.119l-0.298,-0.12l-0.299,-0.119l-0.299,-0.12l-0.299,-0.121l-0.3,-0.121l-0.3,-0.121l-0.299,-0.122l-0.301,-0.122l-0.3,-0.122l-0.3,-0.123l-0.301,-0.123l-0.302,-0.124l-0.301,-0.124l-0.301,-0.124l-0.302,-0.125l-0.302,-0.125l-0.302,-0.125l-0.302,-0.126l-0.303,-0.126l-0.303,-0.127l-0.302,-0.127l-0.303,-0.127l-0.304,-0.128l-0.304,-0.128l-0.303,-0.128l-0.304,-0.129l-0.305,-0.13l-0.304,-0.129l-0.305,-0.13l-0.304,-0.131l-0.305,-0.131l-0.305,-0.131l-0.306,-0.132l-0.306,-0.132l-0.305,-0.132l-0.306,-0.133l-0.306,-0.133l-0.306,-0.134l-0.307,-0.134l-0.307,-0.134l-0.307,-0.135l-0.307,-0.135l-0.308,-0.136l-0.307,-0.136l-0.307,-0.136l-0.308,-0.137l-0.308,-0.137l-0.309,-0.138l-0.308,-0.138l-0.308,-0.138l-0.309,-0.139l-0.309,-0.139l-0.31,-0.14l-0.309,-0.14l-0.31,-0.14l-0.309,-0.141l-0.31,-0.141l-0.31,-0.142l-0.31,-0.142l-0.311,-0.143l-0.31,-0.142l-0.311,-0.143l-0.311,-0.144l-0.311,-0.144l-0.311,-0.145l-0.312,-0.145l-0.311,-0.145l-0.312,-0.146l-0.312,-0.146l-0.312,-0.146l-0.313,-0.148l-0.312,-0.147l-0.312,-0.147l-0.313,-0.149l-0.313,-0.148l-0.313,-0.149l-0.314,-0.15l-0.313,-0.15l-0.313,-0.15l-0.314,-0.151l-0.314,-0.151l-0.314,-0.152l-0.314,-0.152l-0.315,-0.152l-0.314,-0.153l-0.314,-0.153l-0.315,-0.154l-0.316,-0.154l-0.314,-0.154l-0.315,-0.155l-0.316,-0.156l-0.316,-0.156l-0.315,-0.156l-0.316,-0.156l-0.316,-0.158l-0.316,-0.157l-0.316,-0.158l-0.317,-0.158l-0.316,-0.159l-0.316,-0.159l-0.318,-0.16l-0.317,-0.16l-0.316,-0.161l-0.318,-0.161l-0.317,-0.161l-0.318,-0.162l-0.317,-0.162l-0.318,-0.163l-0.318,-0.163l-0.318,-0.164l-0.318,-0.163l-0.318,-0.165l-0.319,-0.165l-0.319,-0.165l-0.318,-0.166l-0.319,-0.166l-0.319,-0.167l-0.319,-0.167l-0.319,-0.167l-0.319,-0.168l-0.32,-0.169l-0.319,-0.169l-0.32,-0.169l-0.32,-0.17l-0.319,-0.17l-0.32,-0.171l-0.321,-0.171l-0.32,-0.171l-0.32,-0.172l-0.321,-0.173l-0.32,-0.173l-0.321,-0.173l-0.32,-0.174l-0.322,-0.174l-0.321,-0.175l-0.321,-0.175l-0.321,-0.175l-0.322,-0.177l-0.321,-0.176l-0.321,-0.177l-0.322,-0.178l-0.322,-0.177l-0.322,-0.179l-0.322,-0.178l-0.322,-0.18l-0.322,-0.179l-0.322,-0.18l-0.322,-0.181l-0.323,-0.181l-0.323,-0.182l-0.322,-0.182l-0.323,-0.182l-0.323,-0.183l-0.323,-0.184l-0.323,-0.183l-0.323,-0.185l-0.323,-0.184l-0.324,-0.186l-0.323,-0.185l-0.324,-0.187l-0.323,-0.186l-0.324,-0.187l-0.323,-0.188l-0.324,-0.188l-0.324,-0.189l-0.324,-0.189l-0.324,-0.189l-0.324,-0.19l-0.324,-0.19l-0.325,-0.191l-0.324,-0.191l-0.325,-0.192l-0.325,-0.193l-0.324,-0.192l-0.324,-0.193l-0.325,-0.194l-0.325,-0.194l-0.325,-0.195l-0.325,-0.195l-0.325,-0.196l-0.325,-0.196l-0.326,-0.197l-0.325,-0.196l-0.325,-0.198l-0.325,-0.198l-0.326,-0.199l-0.325,-0.199l-0.326,-0.199l-0.325,-0.2l-0.326,-0.2l-0.326,-0.201l-0.326,-0.202l-0.326,-0.202l-0.326,-0.202l-0.326,-0.203l-0.326,-0.203l-0.326,-0.204l-0.326,-0.204l-0.326,-0.205l-0.326,-0.205l-0.327,-0.206l-0.326,-0.207l-0.327,-0.206l-0.326,-0.207l-0.326,-0.208l-0.327,-0.208l-0.327,-0.209l-0.327,-0.21l-0.326,-0.209l-0.327,-0.21l-0.327,-0.211l-0.327,-0.211l-0.326,-0.212l-0.327,-0.212l-0.327,-0.213l-0.327,-0.213l-0.327,-0.214l-0.327,-0.214l-0.327,-0.215l-0.328,-0.215l-0.327,-0.216l-0.327,-0.216l-0.327,-0.217l-0.328,-0.217l-0.327,-0.218l-0.327,-0.218l-0.328,-0.219l-0.327,-0.219l-0.328,-0.219l-0.327,-0.221l-0.327,-0.22l-0.328,-0.222l-0.327,-0.222l-0.328,-0.222l-0.327,-0.222l-0.328,-0.224l-0.328,-0.224l-0.328,-0.224l-0.327,-0.225l-0.328,-0.225l-0.327,-0.226l-0.328,-0.226l-0.328,-0.227l-0.328,-0.228l-0.327,-0.228l-0.328,-0.228l-0.328,-0.229l-0.328,-0.229l-0.327,-0.23l-0.328,-0.231l-0.328,-0.231l-0.328,-0.232l-0.328,-0.232l-0.328,-0.232l-0.327,-0.233l-0.328,-0.234l-0.328,-0.234l-0.328,-0.235l-0.328,-0.235l-0.328,-0.236l-0.328,-0.236l-0.327,-0.237l-0.328,-0.237l-0.328,-0.238l-0.328,-0.238l-0.327,-0.239l-0.328,-0.239l-0.328,-0.241l-0.328,-0.24l-0.328,-0.241l-0.327,-0.241l-0.329,-0.243l-0.327,-0.242l-0.328,-0.243l-0.327,-0.244l-0.329,-0.244l-0.327,-0.245l-0.328,-0.245l-0.328,-0.246l-0.327,-0.246l-0.328,-0.247l-0.327,-0.247l-0.328,-0.248l-0.328,-0.249l-0.327,-0.249l-0.328,-0.249l-0.328,-0.251l-0.327,-0.25l-0.327,-0.251l-0.327,-0.252l-0.328,-0.252l-0.328,-0.253l-0.327,-0.253l-0.327,-0.254l-0.328,-0.255l-0.327,-0.255l-0.327,-0.255l-0.327,-0.256l-0.327,-0.257l-0.328,-0.257l-0.327,-0.258l-0.327,-0.258l-0.327,-0.259l-0.327,-0.259l-0.327,-0.26l-0.327,-0.261l-0.327,-0.261l-0.326,-0.261l-0.327,-0.262l-0.327,-0.263l-0.326,-0.263l-0.327,-0.264l-0.327,-0.264l-0.326,-0.265l-0.327,-0.266l-0.326,-0.266l-0.327,-0.266l-0.326,-0.267l-0.326,-0.268l-0.327,-0.268l-0.326,-0.269l-0.326,-0.269l-0.326,-0.27l-0.326,-0.271l-0.326,-0.271l-0.326,-0.271l-0.326,-0.272l-0.326,-0.274l-0.325,-0.273l-0.326,-0.273l-0.326,-0.275l-0.325,-0.275l-0.326,-0.275l-0.325,-0.277l-0.326,-0.276l-0.325,-0.277l-0.325,-0.278l-0.325,-0.279l-0.325,-0.278l-0.325,-0.28l-0.325,-0.28l-0.325,-0.281l-0.325,-0.281l-0.325,-0.282l-0.324,-0.282l-0.325,-0.283l-0.325,-0.284l-0.324,-0.284l-0.324,-0.284l-0.324,-0.286l-0.325,-0.286l-0.324,-0.286l-0.324,-0.287l-0.324,-0.288l-0.324,-0.288l-0.323,-0.288l-0.324,-0.29l-0.324,-0.29l-0.323,-0.29l-0.323,-0.291l-0.324,-0.292l-0.323,-0.292l-0.324,-0.293l-0.322,-0.293l-0.323,-0.294l-0.323,-0.295l-0.323,-0.295l-0.323,-0.296l-0.323,-0.296l-0.322,-0.297l-0.322,-0.297l-0.323,-0.298l-0.322,-0.299l-0.322,-0.299l-0.322,-0.3l-0.322,-0.301l-0.322,-0.301l-0.321,-0.301l-0.322,-0.302l-0.322,-0.303l-0.321,-0.304l-0.321,-0.303l-0.321,-0.305l-0.322,-0.305l-0.32,-0.306l-0.321,-0.307l-0.321,-0.306l-0.32,-0.308l-0.321,-0.308l-0.321,-0.309l-0.32,-0.309l-0.32,-0.31l-0.32,-0.311l-0.32,-0.311l-0.32,-0.312l-0.319,-0.312l-0.32,-0.313l-0.32,-0.314l-0.319,-0.314l-0.319,-0.315l-0.319,-0.315l-0.319,-0.316l-0.319,-0.317l-0.318,-0.316l-0.319,-0.318l-0.319,-0.319l-0.318,-0.319l-0.318,-0.319l-0.318,-0.321l-0.318,-0.321l-0.318,-0.321l-0.317,-0.322l-0.318,-0.323l-0.317,-0.323l-0.318,-0.324l-0.105,-0.108l-0.106,-0.109l-0.105,-0.108l-0.105,-0.108l-0.107,-0.11l-0.104,-0.109l-0.105,-0.109l-0.106,-0.11l-0.104,-0.109l-0.105,-0.11l-0.105,-0.11l-0.104,-0.11l-0.104,-0.11l-0.105,-0.111l-0.104,-0.111l-0.104,-0.111l-0.104,-0.11l-0.104,-0.111l-0.104,-0.112l-0.104,-0.112l-0.103,-0.111l-0.103,-0.111l-0.105,-0.114l-0.102,-0.111l-0.103,-0.113l-0.103,-0.112l-0.103,-0.112l-0.103,-0.114l-0.103,-0.112l-0.103,-0.114l-0.102,-0.114l-0.102,-0.113l-0.103,-0.114l-0.103,-0.115l-0.203,-0.227l-0.204,-0.229l-0.204,-0.23l-0.202,-0.23l-0.203,-0.231l-0.202,-0.232l-0.201,-0.232l-0.201,-0.233l-0.202,-0.234l-0.2,-0.234l-0.2,-0.235l-0.2,-0.236l-0.199,-0.236l-0.199,-0.236l-0.199,-0.239l-0.198,-0.237l-0.198,-0.239l-0.197,-0.24l-0.197,-0.239l-0.197,-0.241l-0.196,-0.242l-0.196,-0.242l-0.195,-0.242l-0.195,-0.243l-0.195,-0.244l-0.195,-0.245l-0.194,-0.245l-0.193,-0.245l-0.193,-0.247l-0.193,-0.247l-0.193,-0.247l-0.192,-0.248l-0.191,-0.249l-0.192,-0.249l-0.191,-0.25l-0.191,-0.251l-0.19,-0.251l-0.19,-0.252l-0.189,-0.252l-0.19,-0.253l-0.189,-0.253l-0.188,-0.255l-0.189,-0.254l-0.187,-0.256l-0.188,-0.255l-0.187,-0.257l-0.187,-0.257l-0.186,-0.257l-0.186,-0.259l-0.186,-0.258l-0.185,-0.259l-0.186,-0.26l-0.185,-0.261l-0.184,-0.261l-0.184,-0.261l-0.184,-0.263l-0.183,-0.263l-0.183,-0.262l-0.183,-0.264l-0.183,-0.265l-0.182,-0.265l-0.182,-0.265l-0.181,-0.266l-0.181,-0.266l-0.181,-0.268l-0.181,-0.267l-0.18,-0.268l-0.18,-0.269l-0.18,-0.27l-0.179,-0.269l-0.178,-0.27l-0.18,-0.271l-0.178,-0.272l-0.178,-0.272l-0.177,-0.272l-0.178,-0.273l-0.177,-0.273l-0.177,-0.274l-0.177,-0.275l-0.176,-0.275l-0.176,-0.275l-0.176,-0.276l-0.175,-0.277l-0.175,-0.277l-0.174,-0.277l-0.175,-0.279l-0.174,-0.278l-0.174,-0.279l-0.174,-0.28l-0.173,-0.279l-0.173,-0.281l-0.173,-0.281l-0.173,-0.282l-0.172,-0.282l-0.171,-0.282l-0.172,-0.283l-0.172,-0.284l-0.171,-0.284l-0.17,-0.284l-0.171,-0.285l-0.171,-0.286l-0.169,-0.285l-0.17,-0.286l-0.17,-0.287l-0.169,-0.287l-0.169,-0.288l-0.169,-0.289l-0.168,-0.288l-0.168,-0.289l-0.168,-0.29l-0.168,-0.29l-0.167,-0.29l-0.167,-0.292l-0.167,-0.291l-0.167,-0.292l-0.166,-0.292l-0.166,-0.293l-0.166,-0.293l-0.166,-0.294l-0.166,-0.294l-0.165,-0.294l-0.165,-0.295l-0.164,-0.295l-0.164,-0.296l-0.165,-0.297l-0.164,-0.297l-0.163,-0.296l-0.164,-0.298l-0.163,-0.298l-0.163,-0.299l-0.163,-0.298l-0.162,-0.299l-0.163,-0.3l-0.162,-0.301l-0.162,-0.3l-0.161,-0.3l-0.162,-0.302l-0.161,-0.302l-0.161,-0.302l-0.161,-0.302l-0.16,-0.303l-0.161,-0.304l-0.16,-0.303l-0.16,-0.304l-0.159,-0.305l-0.16,-0.305l-0.159,-0.305l-0.159,-0.306l-0.159,-0.306l-0.159,-0.307l-0.158,-0.307l-0.158,-0.307l-0.158,-0.307l-0.158,-0.308l-0.157,-0.309l-0.158,-0.308l-0.157,-0.31l-0.157,-0.309l-0.157,-0.31l-0.157,-0.31l-0.156,-0.311l-0.156,-0.311l-0.156,-0.311l-0.156,-0.312l-0.156,-0.312l-0.155,-0.313l-0.155,-0.312l-0.155,-0.313l-0.155,-0.314l-0.155,-0.314l-0.154,-0.314l-0.155,-0.314l-0.154,-0.316l-0.154,-0.314l-0.154,-0.316l-0.154,-0.316l-0.153,-0.316l-0.153,-0.317l-0.153,-0.317l-0.153,-0.317l-0.153,-0.318l-0.152,-0.318l-0.153,-0.318l-0.152,-0.318l-0.152,-0.319l-0.152,-0.32l-0.152,-0.319l-0.151,-0.32l-0.152,-0.32l-0.151,-0.321l-0.151,-0.32l-0.151,-0.321l-0.151,-0.322l-0.151,-0.322l-0.15,-0.321l-0.151,-0.323l-0.15,-0.323l-0.15,-0.322l-0.15,-0.324l-0.149,-0.323l-0.15,-0.324l-0.149,-0.324l-0.149,-0.324l-0.15,-0.325l-0.149,-0.326l-0.148,-0.325l-0.149,-0.325l-0.149,-0.326l-0.148,-0.326l-0.148,-0.327l-0.149,-0.326l-0.147,-0.327l-0.148,-0.327l-0.148,-0.328l-0.148,-0.328l-0.147,-0.327l-0.148,-0.329l-0.147,-0.329l-0.147,-0.328l-0.147,-0.329l-0.147,-0.33l-0.146,-0.33l-0.147,-0.329l-0.146,-0.33l-0.147,-0.331l-0.146,-0.33l-0.146,-0.331l-0.146,-0.331l-0.146,-0.332l-0.146,-0.331l-0.145,-0.332l-0.146,-0.332l-0.145,-0.332l-0.146,-0.333l-0.145,-0.333l-0.145,-0.333l-0.145,-0.333l-0.145,-0.333l-0.144,-0.334l-0.145,-0.334l-0.145,-0.335l-0.288,-0.668l-0.289,-0.67l-0.288,-0.67l-0.287,-0.672l-0.288,-0.672l-0.287,-0.673l-0.286,-0.674l-0.286,-0.675l-0.286,-0.675l-0.286,-0.676l-0.285,-0.677l-0.285,-0.678l-0.284,-0.678l-0.285,-0.679l-0.284,-0.68l-0.283,-0.68l-0.284,-0.682l-0.283,-0.681l-0.283,-0.682l-0.283,-0.683l-0.282,-0.684l-0.282,-0.684l-0.282,-0.684l-0.282,-0.686l-0.281,-0.685l-0.282,-0.686l-0.281,-0.687l-0.281,-0.687l-0.281,-0.688l-0.281,-0.688l-0.28,-0.688l-0.281,-0.689l-0.28,-0.689l-0.28,-0.69l-0.28,-0.69l-0.28,-0.691l-0.28,-0.691l-0.279,-0.691l-0.28,-0.692l-0.559,-1.383l-0.559,-1.385l-0.558,-1.386l-0.559,-1.387l-0.558,-1.387l-0.559,-1.389l-1.117,-2.777l-0.559,-1.39l-0.56,-1.389l-0.559,-1.39l-0.56,-1.389l-0.561,-1.389l-0.561,-1.39l-0.281,-0.694l-0.281,-0.694l-0.281,-0.694l-0.281,-0.693l-0.282,-0.694l-0.281,-0.694l-0.282,-0.693l-0.282,-0.693l-0.283,-0.693l-0.282,-0.692l-0.283,-0.693l-0.283,-0.692l-0.283,-0.691l-0.284,-0.692l-0.284,-0.691l-0.284,-0.691l-0.284,-0.69l-0.285,-0.69l-0.285,-0.69l-0.285,-0.689l-0.286,-0.689l-0.285,-0.688l-0.287,-0.688l-0.286,-0.687l-0.287,-0.687l-0.287,-0.687l-0.288,-0.686l-0.288,-0.685l-0.288,-0.685l-0.289,-0.685l-0.289,-0.683l-0.29,-0.684l-0.29,-0.682l-0.29,-0.682l-0.291,-0.682l-0.291,-0.68l-0.292,-0.68l-0.292,-0.68l-0.293,-0.679l-0.146,-0.338l-0.147,-0.34l-0.146,-0.338l-0.147,-0.339l-0.147,-0.338l-0.147,-0.339l-0.147,-0.337l-0.148,-0.338l-0.147,-0.337l-0.148,-0.338l-0.148,-0.338l-0.147,-0.337l-0.148,-0.336l-0.148,-0.337l-0.148,-0.336l-0.149,-0.336l-0.148,-0.336l-0.149,-0.336l-0.149,-0.336l-0.148,-0.335l-0.149,-0.336l-0.15,-0.335l-0.149,-0.334l-0.149,-0.334l-0.15,-0.335l-0.15,-0.334l-0.149,-0.334l-0.15,-0.333l-0.15,-0.333l-0.151,-0.334l-0.15,-0.333l-0.15,-0.332l-0.151,-0.333l-0.151,-0.332l-0.151,-0.332l-0.151,-0.332l-0.152,-0.331l-0.151,-0.331l-0.152,-0.331l-0.151,-0.331l-0.152,-0.33l-0.152,-0.331l-0.152,-0.329l-0.153,-0.33l-0.152,-0.33l-0.153,-0.329l-0.153,-0.329l-0.153,-0.328l-0.153,-0.328l-0.153,-0.329l-0.154,-0.328l-0.153,-0.327l-0.154,-0.327l-0.154,-0.327l-0.155,-0.327l-0.154,-0.326l-0.154,-0.326l-0.155,-0.326l-0.155,-0.326l-0.155,-0.325l-0.155,-0.325l-0.155,-0.325l-0.156,-0.324l-0.156,-0.324l-0.155,-0.324l-0.156,-0.324l-0.157,-0.323l-0.156,-0.323l-0.157,-0.322l-0.157,-0.323l-0.156,-0.322l-0.158,-0.321l-0.157,-0.322l-0.157,-0.32l-0.158,-0.321l-0.158,-0.32l-0.158,-0.321l-0.158,-0.319l-0.159,-0.32l-0.158,-0.319l-0.159,-0.319l-0.159,-0.318l-0.159,-0.318l-0.16,-0.318l-0.159,-0.317l-0.16,-0.317l-0.16,-0.317l-0.16,-0.316l-0.161,-0.316l-0.16,-0.316l-0.161,-0.315l-0.161,-0.315l-0.161,-0.315l-0.162,-0.314l-0.161,-0.314l-0.162,-0.314l-0.162,-0.313l-0.162,-0.313l-0.163,-0.312l-0.162,-0.312l-0.163,-0.312l-0.163,-0.311l-0.164,-0.311l-0.163,-0.311l-0.164,-0.31l-0.164,-0.31l-0.164,-0.309l-0.164,-0.309l-0.165,-0.31l-0.164,-0.308l-0.165,-0.307l-0.166,-0.308l-0.165,-0.308l-0.165,-0.306l-0.166,-0.306l-0.166,-0.306l-0.167,-0.306l-0.166,-0.305l-0.167,-0.305l-0.167,-0.304l-0.167,-0.304l-0.168,-0.304l-0.167,-0.303l-0.168,-0.302l-0.168,-0.303l-0.169,-0.302l-0.168,-0.301l-0.169,-0.301l-0.169,-0.301l-0.169,-0.3l-0.17,-0.3l-0.169,-0.299l-0.17,-0.299l-0.171,-0.299l-0.17,-0.298l-0.171,-0.297l-0.171,-0.298l-0.171,-0.296l-0.171,-0.296l-0.172,-0.296l-0.172,-0.296l-0.172,-0.295l-0.172,-0.294l-0.173,-0.295l-0.173,-0.293l-0.173,-0.293l-0.173,-0.293l-0.174,-0.292l-0.174,-0.292l-0.174,-0.291l-0.174,-0.291l-0.175,-0.29l-0.175,-0.29l-0.175,-0.29l-0.176,-0.289l-0.175,-0.288l-0.176,-0.288l-0.176,-0.288l-0.177,-0.287l-0.176,-0.287l-0.177,-0.285l-0.177,-0.286l-0.178,-0.285l-0.178,-0.285l-0.178,-0.284l-0.178,-0.284l-0.178,-0.283l-0.179,-0.282l-0.179,-0.283l-0.179,-0.281l-0.18,-0.282l-0.18,-0.28l-0.18,-0.28l-0.18,-0.28l-0.181,-0.279l-0.181,-0.279l-0.181,-0.278l-0.182,-0.278l-0.181,-0.277l-0.182,-0.276l-0.183,-0.276l-0.182,-0.276l-0.183,-0.275l-0.183,-0.274l-0.184,-0.274l-0.183,-0.274l-0.184,-0.272l-0.185,-0.273l-0.184,-0.272l-0.185,-0.271l-0.185,-0.271l-0.185,-0.27l-0.186,-0.27l-0.186,-0.269l-0.186,-0.268l-0.187,-0.268l-0.186,-0.267l-0.188,-0.268l-0.187,-0.266l-0.188,-0.266l-0.188,-0.265l-0.188,-0.264l-0.188,-0.265l-0.189,-0.264l-0.19,-0.263l-0.189,-0.262l-0.189,-0.262l-0.19,-0.261l-0.191,-0.26l-0.19,-0.261l-0.192,-0.26l-0.191,-0.259l-0.191,-0.258l-0.192,-0.258l-0.192,-0.257l-0.192,-0.256l-0.193,-0.257l-0.193,-0.255l-0.194,-0.255l-0.193,-0.254l-0.194,-0.254l-0.194,-0.253l-0.195,-0.253l-0.195,-0.252l-0.195,-0.251l-0.195,-0.25l-0.196,-0.251l-0.196,-0.249l-0.197,-0.249l-0.197,-0.249l-0.196,-0.247l-0.198,-0.247l-0.198,-0.247l-0.197,-0.245l-0.199,-0.246l-0.198,-0.244l-0.199,-0.244l-0.2,-0.244l-0.199,-0.243l-0.2,-0.242l-0.2,-0.241l-0.201,-0.241l-0.201,-0.24l-0.201,-0.24l-0.202,-0.239l-0.201,-0.238l-0.202,-0.238l-0.203,-0.237l-0.203,-0.236l-0.203,-0.236l-0.203,-0.235l-0.204,-0.234l-0.204,-0.234l-0.205,-0.234l-0.205,-0.232l-0.204,-0.232l-0.206,-0.231l-0.206,-0.231l-0.207,-0.23l-0.102,-0.114l-0.104,-0.115l-0.103,-0.114l-0.103,-0.114l-0.104,-0.115l-0.103,-0.113l-0.104,-0.114l-0.104,-0.114l-0.104,-0.113l-0.103,-0.113l-0.104,-0.113l-0.105,-0.113l-0.104,-0.112l-0.104,-0.113l-0.105,-0.113l-0.104,-0.112l-0.104,-0.112l-0.105,-0.111l-0.105,-0.112l-0.104,-0.112l-0.106,-0.111l-0.104,-0.111l-0.106,-0.112l-0.105,-0.111l-0.105,-0.11l-0.105,-0.11l-0.106,-0.111l-0.105,-0.11l-0.105,-0.11l-0.106,-0.109l-0.106,-0.111l-0.106,-0.109l-0.106,-0.109l-0.106,-0.11l-0.105,-0.108l-0.106,-0.109l-0.107,-0.109l-0.106,-0.108l-0.106,-0.108l-0.108,-0.109l-0.106,-0.108l-0.107,-0.107l-0.107,-0.108l-0.106,-0.107l-0.108,-0.108l-0.106,-0.107l-0.107,-0.106l-0.108,-0.107l-0.108,-0.107l-0.107,-0.106l-0.107,-0.106l-0.108,-0.107l-0.107,-0.105l-0.108,-0.106l-0.108,-0.105l-0.108,-0.106l-0.108,-0.105l-0.108,-0.105l-0.108,-0.105l-0.109,-0.104l-0.108,-0.105l-0.108,-0.104l-0.109,-0.104l-0.109,-0.104l-0.109,-0.104l-0.107,-0.103l-0.11,-0.103l-0.109,-0.104l-0.109,-0.103l-0.109,-0.103l-0.11,-0.103l-0.109,-0.102l-0.109,-0.102l-0.11,-0.103l-0.11,-0.101l-0.109,-0.102l-0.11,-0.101l-0.11,-0.102l-0.11,-0.101l-0.11,-0.101l-0.11,-0.101l-0.111,-0.101l-0.11,-0.1l-0.11,-0.1l-0.111,-0.101l-0.111,-0.1l-0.11,-0.099l-0.112,-0.1l-0.111,-0.1l-0.11,-0.099l-0.111,-0.099l-0.111,-0.098l-0.112,-0.099l-0.111,-0.099l-0.112,-0.098l-0.111,-0.098l-0.112,-0.098l-0.112,-0.098l-0.112,-0.098l-0.112,-0.097l-0.112,-0.097l-0.112,-0.097l-0.112,-0.097l-0.113,-0.097l-0.112,-0.096l-0.112,-0.096l-0.113,-0.097l-0.113,-0.096l-0.113,-0.095l-0.112,-0.096l-0.113,-0.095l-0.113,-0.095l-0.113,-0.095l-0.114,-0.095l-0.113,-0.095l-0.113,-0.094l-0.114,-0.095l-0.114,-0.093l-0.114,-0.095l-0.114,-0.094l-0.113,-0.092l-0.114,-0.094l-0.115,-0.093l-0.114,-0.093l-0.114,-0.093l-0.115,-0.092l-0.115,-0.093l-0.114,-0.092l-0.114,-0.092l-0.116,-0.092l-0.114,-0.091l-0.115,-0.091l-0.116,-0.092l-0.115,-0.091l-0.115,-0.091l-0.115,-0.09l-0.116,-0.091l-0.116,-0.09l-0.115,-0.09l-0.116,-0.091l-0.116,-0.089l-0.115,-0.089l-0.117,-0.09l-0.116,-0.089l-0.116,-0.088l-0.117,-0.09l-0.117,-0.089l-0.116,-0.087l-0.117,-0.089l-0.116,-0.088l-0.117,-0.087l-0.118,-0.088l-0.117,-0.088l-0.116,-0.087l-0.118,-0.087l-0.117,-0.087l-0.117,-0.086l-0.118,-0.087l-0.118,-0.086l-0.118,-0.086l-0.118,-0.086l-0.118,-0.086l-0.118,-0.086l-0.118,-0.084l-0.118,-0.085l-0.119,-0.085l-0.118,-0.085l-0.119,-0.085l-0.118,-0.084l-0.119,-0.084l-0.119,-0.084l-0.119,-0.084l-0.119,-0.083l-0.119,-0.083l-0.12,-0.084l-0.119,-0.083l-0.119,-0.082l-0.121,-0.083l-0.12,-0.083l-0.119,-0.081l-0.12,-0.082l-0.119,-0.082l-0.121,-0.081l-0.121,-0.082l-0.12,-0.081l-0.12,-0.081l-0.12,-0.08l-0.121,-0.081l-0.121,-0.081l-0.121,-0.08l-0.121,-0.08l-0.121,-0.08l-0.121,-0.079l-0.122,-0.08l-0.121,-0.079l-0.121,-0.079l-0.122,-0.079l-0.122,-0.078l-0.122,-0.079l-0.121,-0.077l-0.123,-0.078l-0.122,-0.079l-0.122,-0.077l-0.122,-0.077l-0.123,-0.077l-0.123,-0.078l-0.123,-0.076l-0.122,-0.077l-0.123,-0.076l-0.123,-0.076l-0.123,-0.076l-0.123,-0.076l-0.124,-0.076l-0.123,-0.075l-0.124,-0.075l-0.124,-0.075l-0.123,-0.075l-0.124,-0.074l-0.124,-0.074l-0.124,-0.075l-0.125,-0.074l-0.124,-0.073l-0.124,-0.074l-0.125,-0.073l-0.124,-0.073l-0.125,-0.073l-0.125,-0.073l-0.125,-0.072l-0.125,-0.073l-0.125,-0.072l-0.126,-0.072l-0.126,-0.072l-0.125,-0.071l-0.125,-0.071l-0.127,-0.071l-0.125,-0.071l-0.126,-0.07l-0.126,-0.071l-0.126,-0.07l-0.126,-0.07l-0.127,-0.07l-0.127,-0.07l-0.126,-0.069l-0.127,-0.07l-0.127,-0.069l-0.127,-0.068l-0.127,-0.069l-0.127,-0.068l-0.128,-0.068l-0.127,-0.068l-0.128,-0.068l-0.128,-0.068l-0.128,-0.067l-0.127,-0.067l-0.128,-0.067l-0.129,-0.067l-0.128,-0.066l-0.128,-0.066l-0.129,-0.066l-0.129,-0.066l-0.129,-0.066l-0.128,-0.065l-0.129,-0.065l-0.129,-0.066l-0.13,-0.065l-0.129,-0.064l-0.129,-0.064l-0.13,-0.065l-0.13,-0.064l-0.129,-0.063l-0.13,-0.064l-0.131,-0.063l-0.129,-0.063l-0.13,-0.063l-0.131,-0.063l-0.131,-0.062l-0.131,-0.063l-0.13,-0.062l-0.131,-0.062l-0.131,-0.061l-0.131,-0.062l-0.131,-0.061l-0.132,-0.061l-0.132,-0.061l-0.131,-0.06l-0.132,-0.061l-0.132,-0.06l-0.132,-0.06l-0.132,-0.06l-0.132,-0.059l-0.132,-0.059l-0.133,-0.059l-0.132,-0.059l-0.133,-0.059l-0.133,-0.058l-0.133,-0.058l-0.133,-0.059l-0.134,-0.057l-0.133,-0.058l-0.133,-0.057l-0.134,-0.057l-0.134,-0.057l-0.133,-0.057l-0.134,-0.056l-0.134,-0.057l-0.134,-0.056l-0.135,-0.055l-0.134,-0.056l-0.135,-0.055l-0.135,-0.056l-0.135,-0.055l-0.134,-0.054l-0.135,-0.055l-0.136,-0.054l-0.135,-0.054l-0.136,-0.054l-0.135,-0.054l-0.136,-0.053l-0.136,-0.053l-0.136,-0.053l-0.137,-0.053l-0.136,-0.053l-0.136,-0.052l-0.136,-0.052l-0.137,-0.052l-0.137,-0.052l-0.137,-0.051l-0.137,-0.051l-0.137,-0.051l-0.138,-0.051l-0.137,-0.051l-0.137,-0.05l-0.138,-0.05l-0.138,-0.05l-0.138,-0.05l-0.138,-0.049l-0.138,-0.049l-0.138,-0.049l-0.138,-0.049l-0.14,-0.048l-0.139,-0.049l-0.138,-0.048l-0.139,-0.048l-0.14,-0.047l-0.139,-0.048l-0.139,-0.047l-0.14,-0.047l-0.14,-0.047l-0.139,-0.046l-0.14,-0.046l-0.14,-0.047l-0.141,-0.046l-0.14,-0.045l-0.14,-0.045l-0.141,-0.046l-0.142,-0.045l-0.14,-0.045l-0.141,-0.044l-0.141,-0.044l-0.141,-0.044l-0.142,-0.044l-0.142,-0.044l-0.141,-0.043l-0.143,-0.043l-0.141,-0.043l-0.142,-0.043l-0.143,-0.042l-0.143,-0.042l-0.141,-0.042l-0.144,-0.042l-0.143,-0.042l-0.143,-0.041l-0.142,-0.041l-0.144,-0.041l-0.143,-0.04l-0.144,-0.041l-0.144,-0.04l-0.143,-0.04l-0.145,-0.04l-0.144,-0.039l-0.144,-0.039l-0.145,-0.039l-0.144,-0.039l-0.145,-0.038l-0.145,-0.039l-0.145,-0.038l-0.145,-0.038l-0.145,-0.037l-0.146,-0.038l-0.145,-0.037l-0.146,-0.037l-0.146,-0.037l-0.146,-0.036l-0.146,-0.036l-0.146,-0.036l-0.147,-0.036l-0.146,-0.035l-0.147,-0.035l-0.147,-0.036l-0.147,-0.034l-0.147,-0.035l-0.148,-0.034l-0.147,-0.034l-0.148,-0.034l-0.148,-0.034l-0.148,-0.033l-0.148,-0.033l-0.148,-0.033l-0.148,-0.033l-0.149,-0.032l-0.149,-0.032l-0.148,-0.032l-0.149,-0.032l-0.149,-0.031l-0.149,-0.032l-0.15,-0.031l-0.15,-0.03l-0.15,-0.031l-0.149,-0.03l-0.15,-0.03l-0.15,-0.03l-0.151,-0.03l-0.151,-0.029l-0.15,-0.029l-0.151,-0.029l-0.151,-0.028l-0.151,-0.029l-0.151,-0.028l-0.152,-0.028l-0.152,-0.027l-0.151,-0.028l-0.151,-0.027l-0.152,-0.027l-0.153,-0.026l-0.152,-0.027l-0.153,-0.026l-0.152,-0.026l-0.153,-0.025l-0.154,-0.026l-0.152,-0.025l-0.153,-0.025l-0.154,-0.025l-0.154,-0.024l-0.153,-0.024l-0.154,-0.024l-0.154,-0.024l-0.155,-0.023l-0.154,-0.024l-0.155,-0.023l-0.154,-0.022l-0.155,-0.023l-0.155,-0.022l-0.155,-0.022l-0.156,-0.022l-0.155,-0.021l-0.156,-0.021l-0.155,-0.021l-0.156,-0.021l-0.157,-0.021l-0.156,-0.02l-0.157,-0.02l-0.156,-0.02l-0.157,-0.019l-0.157,-0.019l-0.157,-0.019l-0.157,-0.019l-0.158,-0.018l-0.157,-0.019l-0.158,-0.018l-0.158,-0.017l-0.158,-0.018l-0.158,-0.017l-0.158,-0.017l-0.159,-0.017l-0.159,-0.016l-0.159,-0.016l-0.159,-0.016l-0.159,-0.016l-0.159,-0.015l-0.16,-0.016l-0.16,-0.015l-0.16,-0.014l-0.16,-0.015l-0.16,-0.014l-0.16,-0.014l-0.161,-0.013l-0.161,-0.014l-0.161,-0.013l-0.16,-0.013l-0.162,-0.012l-0.161,-0.013l-0.162,-0.012l-0.161,-0.012l-0.162,-0.011l-0.162,-0.012l-0.163,-0.011l-0.162,-0.01l-0.163,-0.011l-0.162,-0.01l-0.163,-0.01l-0.163,-0.01l-0.164,-0.01l-0.163,-0.009l-0.164,-0.009l-0.163,-0.009l-0.164,-0.008l-0.165,-0.008l-0.164,-0.008l-0.164,-0.008l-0.165,-0.007l-0.165,-0.007l-0.165,-0.007l-0.165,-0.007l-0.165,-0.006l-0.166,-0.006l-0.165,-0.006l-0.166,-0.006l-0.166,-0.005l-0.167,-0.005l-0.166,-0.005l-0.166,-0.004l-0.167,-0.005l-0.167,-0.004l-0.167,-0.003l-0.167,-0.004l-0.167,-0.003l-0.168,-0.003l-0.168,-0.002l-0.168,-0.003l-0.167,-0.002l-0.169,-0.002l-0.169,-0.001l-0.168,-0.002l-0.169,-0.001l-0.169,0l-0.169,-0.001l-0.17,0l-0.169,0l-0.17,0l-0.169,0.001l-0.171,0.001l-0.17,0.001l-0.17,0.001l-0.171,0.002l-0.171,0.002l-0.171,0.002l-0.171,0.003l-0.171,0.003l-0.171,0.003l-0.172,0.003l-0.172,0.004l-0.172,0.003l-0.172,0.005l-0.172,0.004l-0.173,0.005l-0.173,0.005l-0.173,0.005l-0.172,0.005l-0.174,0.006l-0.174,0.006l-0.173,0.007l-0.174,0.006l-0.174,0.007l-0.175,0.008l-0.174,0.007l-0.174,0.008l-0.175,0.008l-0.175,0.008l-0.175,0.009l-0.175,0.009l-0.176,0.009l-0.175,0.009l-0.176,0.01l-0.176,0.01l-0.176,0.01l-0.177,0.011l-0.177,0.011l-0.176,0.011l-0.177,0.011l-0.177,0.012l-0.177,0.012l-0.178,0.012l-0.178,0.013l-0.178,0.012l-0.178,0.014l-0.178,0.013l-0.179,0.014l-0.178,0.014l-0.179,0.014l-0.183,0.015l-0.972,-11.961l0.193,-0.016l0.196,-0.015l0.197,-0.016l0.197,-0.015l0.196,-0.014l0.196,-0.015l0.196,-0.014l0.196,-0.014l0.196,-0.013l0.195,-0.014l0.196,-0.012l0.195,-0.013l0.195,-0.012l0.195,-0.012l0.194,-0.012l0.195,-0.011l0.194,-0.011l0.195,-0.011l0.194,-0.01l0.194,-0.011l0.193,-0.009l0.194,-0.01l0.193,-0.009l0.194,-0.009l0.193,-0.009l0.193,-0.008l0.193,-0.008l0.192,-0.007l0.193,-0.008l0.192,-0.007l0.192,-0.007l0.192,-0.006l0.192,-0.006l0.192,-0.006l0.191,-0.006l0.192,-0.005l0.191,-0.005l0.191,-0.004l0.191,-0.005l0.191,-0.004l0.19,-0.003l0.191,-0.004l0.19,-0.003l0.19,-0.003l0.19,-0.002l0.19,-0.002l0.189,-0.002l0.19,-0.002l0.189,-0.001l0.189,-0.001l0.189,-0.001l0.189,0l0.189,0l0.188,0Z" style="fill:#333;"/><rect id="rect9706" x="946.484" y="554.444" width="286.874" height="285.455" style="fill:#0a4;stroke:#333;stroke-width:14.43px;"/><rect id="rect97061" x="1538.83" y="552.618" width="286.874" height="285.455" style="fill:#ff8200;stroke:#333;stroke-width:14.43px;"/><path id="path10250" d="M958.977,691.921l-0.018,0l-0.053,0.002l-0.095,0.003l-0.146,0.005l-0.086,0.004l-0.099,0.003l-0.111,0.005l-0.123,0.005l-0.133,0.006l-0.144,0.007l-0.156,0.008l-0.167,0.008l-0.177,0.009l-0.189,0.01l-0.199,0.011l-0.211,0.012l-0.221,0.013l-0.232,0.014l-0.241,0.015l-0.253,0.017l-0.264,0.017l-0.274,0.019l-0.283,0.019l-0.295,0.021l-0.306,0.023l-0.315,0.023l-0.325,0.025l-0.335,0.027l-0.346,0.028l-0.355,0.029l-0.369,0.031l-0.185,0.016l-0.187,0.016l-0.192,0.017l-0.194,0.017l-0.196,0.018l-0.199,0.018l-0.202,0.018l-0.204,0.019l-0.206,0.019l-0.208,0.02l-0.211,0.02l-0.214,0.021l-0.215,0.021l-0.218,0.021l-0.221,0.022l-0.223,0.022l-0.225,0.023l-0.228,0.023l-0.23,0.024l-0.231,0.024l-0.236,0.025l-0.237,0.025l-0.24,0.026l-0.241,0.026l-0.244,0.027l-0.246,0.027l-0.249,0.027l-0.251,0.029l-0.253,0.028l-0.255,0.029l-0.258,0.03l-0.26,0.03l-0.262,0.031l-0.264,0.031l-0.268,0.032l-0.269,0.033l-0.271,0.033l-0.273,0.033l-0.276,0.034l-0.278,0.035l-0.28,0.035l-0.282,0.036l-0.285,0.036l-0.286,0.037l-0.29,0.038l-0.29,0.038l-0.293,0.038l-0.296,0.04l-0.297,0.04l-0.3,0.04l-0.302,0.041l-0.304,0.042l-0.306,0.042l-0.308,0.043l-0.31,0.044l-0.313,0.044l-0.314,0.045l-0.316,0.046l-0.319,0.046l-0.32,0.047l-0.324,0.047l-0.324,0.048l-0.327,0.049l-0.329,0.05l-0.331,0.05l-0.333,0.051l-0.335,0.051l-0.337,0.053l-0.339,0.053l-0.341,0.053l-0.343,0.055l-0.345,0.055l-0.348,0.055l-0.349,0.057l-0.351,0.057l-0.352,0.058l-0.355,0.059l-0.357,0.059l-0.359,0.06l-0.361,0.061l-0.362,0.062l-0.365,0.062l-0.366,0.063l-0.369,0.064l-0.37,0.065l-0.372,0.065l-0.374,0.067l-0.376,0.067l-0.378,0.067l-0.38,0.069l-0.382,0.069l-0.383,0.071l-0.385,0.071l-0.388,0.071l-0.388,0.073l-0.391,0.073l-0.393,0.075l-0.394,0.075l-0.397,0.076l-0.398,0.076l-0.399,0.078l-0.402,0.078l-0.403,0.08l-0.406,0.08l-0.407,0.081l-0.408,0.082l-0.41,0.082l-0.413,0.084l-0.414,0.084l-0.415,0.086l-0.418,0.086l-0.419,0.087l-0.42,0.088l-0.423,0.089l-0.424,0.09l-0.426,0.091l-0.428,0.091l-0.429,0.093l-0.431,0.093l-0.433,0.095l-0.434,0.095l-0.436,0.096l-0.437,0.097l-0.439,0.099l-0.441,0.099l-0.442,0.1l-0.445,0.101l-0.445,0.102l-0.447,0.103l-0.449,0.103l-0.451,0.105l-0.452,0.106l-0.453,0.107l-0.455,0.108l-0.457,0.109l-0.458,0.109l-0.46,0.111l-0.461,0.112l-0.463,0.113l-0.465,0.114l-0.465,0.115l-0.468,0.116l-0.469,0.117l-0.47,0.117l-0.472,0.119l-0.474,0.121l-0.475,0.121l-0.476,0.122l-0.477,0.123l-0.48,0.124l-0.481,0.126l-0.481,0.126l-0.484,0.127l-0.485,0.129l-0.486,0.13l-0.488,0.13l-0.49,0.132l-0.49,0.133l-0.492,0.134l-0.495,0.136l-0.246,0.067l-0.248,0.068l-0.247,0.069l-0.248,0.069l-0.25,0.069l-0.248,0.069l-0.249,0.07l-0.251,0.07l-0.249,0.07l-0.251,0.07l-0.25,0.071l-0.251,0.071l-0.252,0.072l-0.252,0.071l-0.251,0.072l-0.253,0.072l-0.252,0.073l-0.252,0.072l-0.254,0.074l-0.254,0.073l-0.254,0.074l-0.254,0.074l-0.254,0.074l-0.256,0.074l-0.255,0.075l-0.255,0.075l-0.256,0.076l-0.257,0.075l-0.256,0.076l-0.257,0.077l-0.257,0.076l-0.258,0.077l-0.258,0.077l-0.258,0.078l-0.259,0.077l-0.258,0.078l-0.259,0.079l-0.259,0.078l-0.26,0.079l-0.261,0.08l-0.26,0.079l-0.26,0.08l-0.261,0.08l-0.262,0.081l-0.261,0.08l-0.262,0.081l-0.262,0.082l-0.263,0.081l-0.262,0.082l-0.263,0.082l-0.264,0.083l-0.264,0.083l-0.263,0.083l-0.265,0.084l-0.265,0.084l-0.264,0.083l-0.266,0.085l-0.265,0.085l-0.266,0.085l-0.266,0.085l-0.266,0.086l-0.267,0.086l-0.267,0.086l-0.267,0.086l-0.268,0.087l-0.268,0.088l-0.268,0.087l-0.268,0.088l-0.269,0.088l-0.269,0.089l-0.269,0.088l-0.27,0.089l-0.269,0.09l-0.271,0.09l-0.271,0.09l-0.27,0.09l-0.271,0.091l-0.271,0.091l-0.272,0.091l-0.272,0.092l-0.271,0.092l-0.273,0.092l-0.273,0.093l-0.272,0.093l-0.274,0.093l-0.273,0.094l-0.274,0.094l-0.274,0.094l-0.274,0.095l-0.274,0.095l-0.275,0.095l-0.276,0.095l-0.275,0.096l-0.275,0.096l-0.276,0.097l-0.276,0.097l-0.276,0.097l-0.277,0.098l-0.277,0.098l-0.277,0.098l-0.278,0.098l-0.278,0.099l-0.278,0.1l-0.277,0.099l-0.279,0.1l-0.279,0.101l-0.279,0.1l-0.279,0.101l-0.28,0.101l-0.28,0.102l-0.279,0.101l-0.28,0.103l-0.281,0.103l-0.281,0.102l-0.281,0.104l-0.281,0.103l-0.282,0.104l-0.281,0.105l-0.282,0.104l-0.282,0.105l-0.283,0.106l-0.283,0.105l-0.283,0.106l-0.282,0.107l-0.284,0.107l-0.283,0.107l-0.285,0.107l-0.284,0.108l-0.284,0.108l-0.284,0.108l-0.285,0.109l-0.286,0.11l-0.285,0.109l-0.285,0.11l-0.286,0.11l-0.286,0.111l-0.286,0.111l-0.287,0.111l-0.287,0.112l-0.286,0.112l-0.287,0.112l-0.288,0.113l-0.287,0.113l-0.288,0.113l-0.288,0.114l-0.289,0.114l-0.288,0.115l-0.288,0.114l-0.29,0.116l-0.289,0.116l-0.289,0.115l-0.289,0.117l-0.29,0.116l-0.29,0.117l-0.291,0.118l-0.29,0.118l-0.29,0.118l-0.292,0.118l-0.291,0.119l-0.29,0.119l-0.292,0.12l-0.292,0.12l-0.292,0.12l-0.292,0.121l-0.292,0.121l-0.292,0.122l-0.294,0.122l-0.292,0.122l-0.293,0.122l-0.293,0.123l-0.294,0.123l-0.294,0.124l-0.294,0.124l-0.294,0.125l-0.294,0.124l-0.295,0.126l-0.295,0.125l-0.294,0.126l-0.295,0.126l-0.295,0.127l-0.296,0.127l-0.296,0.128l-0.295,0.127l-0.296,0.129l-0.297,0.128l-0.296,0.129l-0.297,0.13l-0.297,0.13l-0.296,0.129l-0.297,0.131l-0.298,0.131l-0.297,0.131l-0.298,0.132l-0.298,0.132l-0.298,0.132l-0.298,0.133l-0.299,0.133l-0.298,0.134l-0.299,0.134l-0.299,0.134l-0.299,0.135l-0.299,0.135l-0.3,0.136l-0.299,0.136l-0.301,0.136l-0.299,0.137l-0.3,0.137l-0.301,0.137l-0.3,0.138l-0.3,0.138l-0.302,0.139l-0.301,0.139l-0.3,0.14l-0.302,0.139l-0.302,0.141l-0.301,0.141l-0.302,0.141l-0.302,0.141l-0.302,0.142l-0.302,0.142l-0.302,0.143l-0.303,0.143l-0.303,0.144l-0.302,0.143l-0.304,0.145l-0.303,0.144l-0.304,0.145l-0.303,0.146l-0.304,0.146l-0.303,0.146l-0.304,0.147l-0.304,0.147l-0.305,0.148l-0.304,0.147l-0.304,0.149l-0.305,0.148l-0.305,0.15l-0.305,0.149l-0.305,0.15l-0.306,0.151l-0.305,0.15l-0.306,0.152l-0.305,0.151l-0.306,0.152l-0.306,0.153l-0.306,0.153l-0.306,0.153l-0.307,0.154l-0.306,0.154l-0.307,0.154l-0.307,0.155l-0.307,0.156l-0.306,0.155l-0.307,0.156l-0.308,0.157l-0.308,0.157l-0.307,0.158l-0.307,0.158l-0.309,0.158l-0.307,0.159l-0.308,0.159l-0.309,0.159l-0.308,0.161l-0.309,0.16l-0.308,0.161l-0.308,0.161l-0.309,0.162l-0.309,0.162l-0.309,0.162l-0.309,0.164l-0.31,0.163l-0.309,0.164l-0.309,0.164l-0.31,0.165l-0.31,0.165l-0.31,0.166l-0.31,0.166l-0.309,0.166l-0.31,0.167l-0.311,0.167l-0.31,0.168l-0.311,0.168l-0.31,0.169l-0.311,0.169l-0.31,0.169l-0.311,0.17l-0.312,0.171l-0.31,0.17l-0.311,0.172l-0.312,0.172l-0.312,0.172l-0.311,0.172l-0.311,0.173l-0.312,0.173l-0.312,0.174l-0.312,0.175l-0.312,0.175l-0.311,0.175l-0.313,0.175l-0.312,0.177l-0.312,0.176l-0.313,0.177l-0.312,0.177l-0.313,0.179l-0.312,0.178l-0.313,0.179l-0.313,0.179l-0.313,0.18l-0.313,0.18l-0.313,0.18l-0.313,0.181l-0.313,0.182l-0.314,0.182l-0.313,0.182l-0.314,0.183l-0.313,0.183l-0.314,0.184l-0.313,0.184l-0.314,0.185l-0.315,0.185l-0.313,0.186l-0.314,0.186l-0.314,0.186l-0.315,0.187l-0.314,0.188l-0.314,0.188l-0.314,0.188l-0.315,0.189l-0.315,0.189l-0.314,0.19l-0.315,0.19l-0.314,0.19l-0.315,0.192l-0.315,0.192l-0.315,0.192l-0.315,0.192l-0.314,0.193l-0.316,0.193l-0.315,0.194l-0.315,0.195l-0.315,0.194l-0.315,0.196l-0.316,0.196l-0.315,0.196l-0.316,0.197l-0.315,0.197l-0.316,0.197l-0.316,0.199l-0.315,0.198l-0.316,0.199l-0.316,0.2l-0.315,0.2l-0.317,0.201l-0.315,0.2l-0.316,0.202l-0.316,0.202l-0.316,0.202l-0.316,0.203l-0.316,0.204l-0.317,0.204l-0.316,0.204l-0.316,0.205l-0.316,0.205l-0.316,0.205l-0.317,0.207l-0.317,0.207l-0.316,0.207l-0.316,0.208l-0.316,0.208l-0.317,0.208l-0.317,0.21l-0.316,0.209l-0.317,0.21l-0.317,0.211l-0.317,0.211l-0.316,0.212l-0.317,0.212l-0.316,0.212l-0.317,0.213l-0.317,0.214l-0.317,0.214l-0.317,0.215l-0.316,0.214l-0.318,0.216l-0.317,0.216l-0.317,0.217l-0.316,0.217l-0.317,0.217l-0.317,0.218l-0.317,0.219l-0.317,0.219l-0.317,0.219l-0.317,0.22l-0.317,0.221l-0.317,0.221l-0.318,0.221l-0.316,0.222l-0.318,0.223l-0.317,0.223l-0.317,0.223l-0.317,0.224l-0.317,0.224l-0.317,0.226l-0.317,0.225l-0.317,0.226l-0.318,0.227l-0.317,0.227l-0.317,0.227l-0.317,0.228l-0.317,0.229l-0.317,0.229l-0.317,0.229l-0.318,0.23l-0.317,0.231l-0.317,0.231l-0.317,0.231l-0.317,0.233l-0.317,0.232l-0.317,0.234l-0.317,0.233l-0.317,0.234l-0.317,0.235l-0.317,0.235l-0.318,0.236l-0.317,0.236l-0.317,0.237l-0.317,0.237l-0.317,0.238l-0.316,0.238l-0.317,0.239l-0.317,0.239l-0.318,0.24l-0.316,0.24l-0.317,0.241l-0.317,0.241l-0.317,0.243l-0.317,0.242l-0.316,0.243l-0.317,0.243l-0.317,0.245l-0.317,0.244l-0.316,0.245l-0.317,0.246l-0.317,0.246l-0.316,0.246l-0.316,0.248l-0.317,0.247l-0.317,0.249l-0.316,0.249l-0.316,0.249l-0.317,0.249l-0.316,0.251l-0.317,0.251l-0.316,0.251l-0.316,0.252l-0.316,0.253l-0.316,0.253l-0.317,0.253l-0.315,0.254l-0.317,0.255l-0.316,0.255l-0.316,0.256l-0.315,0.256l-0.316,0.257l-0.316,0.257l-0.316,0.258l-0.315,0.258l-0.316,0.259l-0.316,0.26l-0.316,0.26l-0.315,0.26l-0.315,0.262l-0.316,0.261l-0.315,0.263l-0.316,0.262l-0.315,0.263l-0.315,0.264l-0.315,0.265l-0.315,0.265l-0.315,0.265l-0.315,0.266l-0.315,0.267l-0.315,0.267l-0.315,0.268l-0.314,0.268l-0.315,0.268l-0.314,0.27l-0.315,0.27l-0.314,0.27l-0.315,0.271l-0.314,0.272l-0.315,0.272l-0.314,0.273l-0.314,0.272l-0.314,0.274l-0.313,0.274l-0.314,0.276l-0.314,0.275l-0.314,0.276l-0.314,0.277l-0.313,0.277l-0.314,0.277l-0.313,0.278l-0.314,0.279l-0.313,0.28l-0.313,0.28l-0.313,0.28l-0.313,0.281l-0.313,0.281l-0.313,0.283l-0.313,0.283l-0.313,0.283l-0.312,0.284l-0.312,0.284l-0.313,0.285l-0.312,0.286l-0.312,0.286l-0.313,0.287l-0.312,0.287l-0.312,0.288l-0.311,0.288l-0.312,0.289l-0.312,0.29l-0.312,0.29l-0.311,0.29l-0.312,0.292l-0.311,0.292l-0.311,0.292l-0.311,0.293l-0.311,0.294l-0.311,0.294l-0.311,0.294l-0.31,0.296l-0.311,0.296l-0.31,0.296l-0.311,0.297l-0.31,0.298l-0.31,0.298l-0.31,0.299l-0.31,0.299l-0.31,0.3l-0.31,0.301l-0.309,0.301l-0.31,0.302l-0.31,0.302l-0.309,0.303l-0.309,0.303l-0.309,0.305l-0.309,0.304l-0.309,0.305l-0.309,0.306l-0.308,0.306l-0.308,0.308l-0.309,0.307l-0.308,0.308l-0.308,0.309l-0.308,0.31l-0.308,0.309l-0.307,0.311l-0.308,0.311l-0.308,0.312l-0.307,0.312l-0.307,0.313l-0.307,0.314l-0.095,0.097l-0.093,0.095l-0.094,0.096l-0.095,0.098l-0.093,0.097l-0.094,0.097l-0.094,0.098l-0.093,0.097l-0.093,0.098l-0.094,0.098l-0.094,0.098l-0.093,0.099l-0.093,0.098l-0.094,0.099l-0.092,0.098l-0.093,0.099l-0.094,0.1l-0.093,0.1l-0.092,0.099l-0.093,0.1l-0.093,0.1l-0.093,0.1l-0.091,0.1l-0.093,0.1l-0.094,0.102l-0.092,0.101l-0.092,0.101l-0.093,0.102l-0.092,0.101l-0.091,0.101l-0.092,0.102l-0.093,0.103l-0.092,0.102l-0.09,0.1l-0.185,0.207l-0.184,0.206l-0.183,0.208l-0.183,0.207l-0.182,0.208l-0.183,0.209l-0.182,0.21l-0.182,0.211l-0.182,0.211l-0.181,0.212l-0.181,0.213l-0.181,0.213l-0.18,0.214l-0.181,0.214l-0.18,0.216l-0.18,0.216l-0.18,0.217l-0.179,0.218l-0.179,0.218l-0.179,0.22l-0.179,0.219l-0.178,0.22l-0.178,0.221l-0.178,0.223l-0.178,0.222l-0.177,0.223l-0.178,0.224l-0.177,0.225l-0.176,0.225l-0.177,0.226l-0.176,0.226l-0.176,0.228l-0.176,0.228l-0.175,0.228l-0.176,0.23l-0.175,0.23l-0.175,0.231l-0.175,0.232l-0.174,0.231l-0.174,0.233l-0.174,0.234l-0.174,0.234l-0.173,0.234l-0.173,0.236l-0.173,0.236l-0.173,0.236l-0.173,0.238l-0.172,0.238l-0.172,0.238l-0.172,0.24l-0.172,0.24l-0.171,0.241l-0.171,0.241l-0.171,0.241l-0.171,0.243l-0.17,0.243l-0.171,0.245l-0.17,0.244l-0.169,0.245l-0.17,0.245l-0.169,0.247l-0.17,0.247l-0.169,0.248l-0.168,0.248l-0.169,0.249l-0.168,0.249l-0.169,0.251l-0.167,0.25l-0.168,0.251l-0.167,0.252l-0.168,0.253l-0.167,0.253l-0.167,0.254l-0.166,0.254l-0.166,0.255l-0.167,0.256l-0.165,0.256l-0.166,0.257l-0.166,0.258l-0.165,0.257l-0.165,0.259l-0.165,0.259l-0.165,0.26l-0.164,0.26l-0.165,0.261l-0.164,0.262l-0.164,0.262l-0.164,0.263l-0.163,0.263l-0.163,0.264l-0.163,0.264l-0.163,0.265l-0.163,0.265l-0.163,0.267l-0.162,0.267l-0.162,0.267l-0.162,0.267l-0.162,0.269l-0.161,0.269l-0.162,0.269l-0.161,0.27l-0.16,0.271l-0.161,0.271l-0.161,0.272l-0.16,0.272l-0.16,0.273l-0.16,0.273l-0.16,0.274l-0.16,0.275l-0.159,0.275l-0.16,0.275l-0.159,0.276l-0.158,0.276l-0.159,0.277l-0.159,0.278l-0.158,0.278l-0.158,0.279l-0.158,0.279l-0.158,0.28l-0.158,0.28l-0.157,0.281l-0.157,0.281l-0.157,0.282l-0.157,0.282l-0.157,0.283l-0.157,0.283l-0.156,0.284l-0.156,0.284l-0.156,0.285l-0.156,0.285l-0.155,0.286l-0.156,0.286l-0.156,0.287l-0.155,0.287l-0.155,0.288l-0.155,0.288l-0.154,0.289l-0.155,0.289l-0.154,0.29l-0.154,0.29l-0.154,0.29l-0.154,0.292l-0.154,0.292l-0.153,0.291l-0.154,0.293l-0.153,0.293l-0.153,0.293l-0.153,0.294l-0.153,0.295l-0.152,0.294l-0.153,0.296l-0.152,0.296l-0.152,0.295l-0.152,0.298l-0.152,0.297l-0.151,0.297l-0.152,0.298l-0.152,0.299l-0.151,0.298l-0.151,0.3l-0.151,0.3l-0.15,0.3l-0.151,0.3l-0.151,0.301l-0.15,0.302l-0.15,0.302l-0.15,0.302l-0.15,0.303l-0.15,0.303l-0.15,0.303l-0.149,0.305l-0.15,0.304l-0.149,0.305l-0.149,0.305l-0.149,0.306l-0.149,0.306l-0.148,0.306l-0.149,0.307l-0.148,0.308l-0.149,0.308l-0.148,0.308l-0.148,0.308l-0.148,0.309l-0.148,0.309l-0.147,0.31l-0.148,0.31l-0.148,0.311l-0.147,0.31l-0.147,0.311l-0.147,0.312l-0.147,0.312l-0.147,0.312l-0.146,0.313l-0.147,0.313l-0.146,0.313l-0.147,0.314l-0.146,0.314l-0.146,0.315l-0.146,0.315l-0.146,0.315l-0.146,0.316l-0.145,0.315l-0.146,0.317l-0.146,0.317l-0.145,0.317l-0.145,0.317l-0.145,0.318l-0.145,0.318l-0.145,0.319l-0.145,0.318l-0.145,0.319l-0.144,0.32l-0.145,0.319l-0.144,0.321l-0.145,0.32l-0.144,0.321l-0.144,0.321l-0.144,0.322l-0.144,0.321l-0.144,0.322l-0.144,0.323l-0.143,0.323l-0.144,0.323l-0.143,0.323l-0.144,0.324l-0.143,0.323l-0.143,0.325l-0.143,0.325l-0.143,0.324l-0.143,0.325l-0.143,0.326l-0.143,0.326l-0.142,0.326l-0.143,0.326l-0.143,0.327l-0.142,0.327l-0.142,0.327l-0.143,0.328l-0.142,0.327l-0.142,0.328l-0.142,0.328l-0.284,0.659l-0.284,0.658l-0.283,0.66l-0.283,0.661l-0.283,0.662l-0.282,0.663l-0.283,0.664l-0.282,0.664l-0.282,0.667l-0.281,0.667l-0.282,0.667l-0.281,0.669l-0.281,0.67l-0.28,0.671l-0.281,0.671l-0.281,0.673l-0.28,0.673l-0.28,0.674l-0.28,0.675l-0.28,0.676l-0.279,0.677l-0.28,0.677l-0.279,0.678l-0.279,0.679l-0.279,0.68l-0.279,0.68l-0.279,0.681l-0.279,0.682l-0.279,0.683l-0.279,0.683l-0.278,0.684l-0.279,0.685l-0.278,0.685l-0.279,0.685l-0.278,0.686l-0.279,0.688l-0.278,0.687l-0.279,0.688l-0.278,0.688l-0.557,1.379l-0.557,1.38l-0.557,1.383l-0.557,1.384l-0.558,1.385l-0.558,1.387l-1.118,2.778l-0.559,1.391l-0.56,1.391l-0.561,1.393l-0.562,1.393l-0.562,1.394l-0.563,1.393l-0.282,0.698l-0.283,0.697l-0.282,0.698l-0.283,0.697l-0.283,0.698l-0.283,0.697l-0.284,0.698l-0.284,0.697l-0.284,0.697l-0.284,0.698l-0.285,0.697l-0.285,0.698l-0.286,0.697l-0.286,0.697l-0.286,0.697l-0.286,0.696l-0.287,0.697l-0.288,0.696l-0.287,0.697l-0.289,0.696l-0.288,0.696l-0.289,0.695l-0.289,0.696l-0.29,0.695l-0.29,0.695l-0.291,0.695l-0.291,0.694l-0.292,0.694l-0.292,0.694l-0.292,0.693l-0.293,0.693l-0.294,0.693l-0.294,0.692l-0.294,0.692l-0.296,0.691l-0.295,0.691l-0.296,0.69l-0.297,0.69l-0.297,0.689l-0.149,0.346l-0.149,0.344l-0.149,0.344l-0.149,0.344l-0.15,0.345l-0.15,0.344l-0.149,0.344l-0.15,0.343l-0.15,0.344l-0.15,0.343l-0.151,0.343l-0.15,0.344l-0.151,0.342l-0.151,0.343l-0.151,0.343l-0.151,0.342l-0.151,0.343l-0.151,0.342l-0.152,0.342l-0.152,0.342l-0.152,0.342l-0.152,0.342l-0.152,0.34l-0.152,0.342l-0.153,0.341l-0.153,0.341l-0.153,0.341l-0.153,0.34l-0.153,0.341l-0.153,0.34l-0.154,0.34l-0.154,0.34l-0.154,0.34l-0.154,0.339l-0.154,0.339l-0.155,0.339l-0.155,0.34l-0.155,0.338l-0.155,0.339l-0.155,0.338l-0.155,0.338l-0.156,0.338l-0.156,0.338l-0.156,0.337l-0.156,0.338l-0.157,0.337l-0.156,0.337l-0.157,0.336l-0.157,0.337l-0.157,0.337l-0.157,0.336l-0.158,0.336l-0.158,0.335l-0.157,0.335l-0.159,0.336l-0.158,0.335l-0.159,0.334l-0.158,0.335l-0.16,0.335l-0.159,0.333l-0.159,0.334l-0.159,0.333l-0.16,0.334l-0.161,0.333l-0.16,0.333l-0.16,0.333l-0.161,0.332l-0.161,0.332l-0.161,0.332l-0.161,0.332l-0.162,0.332l-0.162,0.33l-0.162,0.331l-0.162,0.331l-0.162,0.33l-0.163,0.33l-0.163,0.33l-0.163,0.33l-0.163,0.329l-0.164,0.329l-0.164,0.329l-0.164,0.328l-0.164,0.328l-0.165,0.328l-0.164,0.328l-0.166,0.328l-0.165,0.327l-0.165,0.326l-0.166,0.327l-0.166,0.326l-0.166,0.326l-0.166,0.326l-0.167,0.325l-0.167,0.326l-0.167,0.324l-0.168,0.324l-0.167,0.325l-0.168,0.324l-0.168,0.323l-0.169,0.323l-0.169,0.323l-0.169,0.323l-0.169,0.322l-0.169,0.323l-0.17,0.322l-0.17,0.321l-0.17,0.32l-0.171,0.321l-0.171,0.321l-0.171,0.32l-0.171,0.32l-0.172,0.319l-0.172,0.32l-0.172,0.318l-0.172,0.319l-0.173,0.318l-0.173,0.317l-0.173,0.318l-0.173,0.317l-0.174,0.317l-0.174,0.316l-0.175,0.317l-0.174,0.316l-0.175,0.315l-0.175,0.315l-0.176,0.314l-0.176,0.315l-0.176,0.314l-0.176,0.313l-0.177,0.314l-0.177,0.313l-0.177,0.312l-0.177,0.312l-0.178,0.312l-0.178,0.311l-0.178,0.311l-0.179,0.311l-0.179,0.311l-0.18,0.309l-0.179,0.31l-0.18,0.309l-0.18,0.309l-0.181,0.308l-0.181,0.309l-0.18,0.306l-0.182,0.308l-0.182,0.307l-0.182,0.306l-0.182,0.306l-0.183,0.306l-0.183,0.305l-0.183,0.305l-0.184,0.304l-0.184,0.304l-0.184,0.304l-0.185,0.303l-0.185,0.303l-0.185,0.302l-0.185,0.302l-0.186,0.302l-0.187,0.301l-0.186,0.301l-0.187,0.3l-0.187,0.3l-0.188,0.299l-0.188,0.299l-0.188,0.299l-0.189,0.298l-0.189,0.298l-0.189,0.297l-0.189,0.297l-0.19,0.296l-0.191,0.297l-0.19,0.295l-0.191,0.295l-0.191,0.294l-0.192,0.295l-0.193,0.294l-0.191,0.293l-0.193,0.293l-0.193,0.292l-0.193,0.292l-0.195,0.292l-0.194,0.291l-0.194,0.29l-0.195,0.29l-0.195,0.289l-0.196,0.29l-0.196,0.288l-0.196,0.288l-0.197,0.288l-0.197,0.287l-0.197,0.287l-0.198,0.287l-0.198,0.285l-0.198,0.285l-0.2,0.285l-0.199,0.285l-0.199,0.283l-0.201,0.284l-0.2,0.283l-0.201,0.281l-0.201,0.283l-0.202,0.281l-0.202,0.281l-0.202,0.281l-0.202,0.279l-0.203,0.279l-0.204,0.279l-0.204,0.279l-0.205,0.277l-0.204,0.277l-0.205,0.277l-0.205,0.276l-0.206,0.276l-0.207,0.275l-0.207,0.275l-0.207,0.274l-0.207,0.273l-0.208,0.273l-0.209,0.273l-0.208,0.272l-0.209,0.271l-0.21,0.271l-0.21,0.271l-0.21,0.269l-0.211,0.27l-0.211,0.269l-0.211,0.267l-0.213,0.268l-0.212,0.267l-0.213,0.267l-0.213,0.265l-0.214,0.266l-0.214,0.265l-0.215,0.264l-0.215,0.264l-0.215,0.263l-0.216,0.262l-0.216,0.263l-0.217,0.26l-0.217,0.261l-0.217,0.261l-0.219,0.26l-0.218,0.259l-0.219,0.258l-0.219,0.257l-0.219,0.257l-0.221,0.258l-0.222,0.257l-0.22,0.254l-0.221,0.255l-0.223,0.255l-0.222,0.253l-0.223,0.254l-0.223,0.252l-0.224,0.252l-0.225,0.251l-0.222,0.248l-0.114,0.127l-0.114,0.127l-0.113,0.124l-0.112,0.124l-0.113,0.124l-0.113,0.125l-0.113,0.124l-0.114,0.124l-0.114,0.124l-0.113,0.124l-0.113,0.123l-0.114,0.124l-0.115,0.123l-0.114,0.123l-0.113,0.122l-0.115,0.124l-0.115,0.123l-0.113,0.121l-0.115,0.122l-0.116,0.124l-0.114,0.121l-0.113,0.12l-0.117,0.124l-0.116,0.122l-0.114,0.12l-0.115,0.121l-0.117,0.121l-0.116,0.122l-0.115,0.12l-0.115,0.12l-0.117,0.12l-0.116,0.121l-0.116,0.12l-0.117,0.12l-0.117,0.12l-0.117,0.12l-0.115,0.118l-0.117,0.119l-0.119,0.121l-0.116,0.118l-0.117,0.118l-0.118,0.119l-0.118,0.119l-0.117,0.117l-0.116,0.118l-0.12,0.119l-0.118,0.118l-0.117,0.117l-0.118,0.116l-0.119,0.118l-0.118,0.117l-0.119,0.117l-0.119,0.117l-0.119,0.117l-0.119,0.116l-0.119,0.116l-0.12,0.117l-0.119,0.115l-0.117,0.114l-0.12,0.116l-0.122,0.117l-0.119,0.115l-0.12,0.115l-0.121,0.115l-0.119,0.114l-0.12,0.114l-0.122,0.116l-0.12,0.114l-0.119,0.113l-0.122,0.114l-0.121,0.114l-0.122,0.114l-0.12,0.112l-0.121,0.113l-0.123,0.114l-0.121,0.113l-0.122,0.112l-0.122,0.112l-0.12,0.112l-0.124,0.113l-0.122,0.111l-0.121,0.111l-0.124,0.113l-0.122,0.111l-0.123,0.111l-0.124,0.112l-0.122,0.11l-0.122,0.11l-0.125,0.112l-0.122,0.109l-0.123,0.11l-0.125,0.111l-0.124,0.109l-0.123,0.11l-0.124,0.109l-0.124,0.109l-0.125,0.109l-0.124,0.109l-0.126,0.11l-0.124,0.107l-0.123,0.107l-0.127,0.11l-0.124,0.108l-0.125,0.107l-0.126,0.108l-0.125,0.107l-0.127,0.108l-0.125,0.107l-0.126,0.106l-0.125,0.107l-0.126,0.106l-0.126,0.106l-0.128,0.107l-0.126,0.106l-0.125,0.105l-0.128,0.106l-0.128,0.106l-0.125,0.104l-0.127,0.105l-0.129,0.105l-0.127,0.104l-0.128,0.105l-0.128,0.105l-0.127,0.103l-0.128,0.104l-0.128,0.103l-0.128,0.104l-0.13,0.104l-0.128,0.103l-0.128,0.102l-0.13,0.104l-0.128,0.102l-0.129,0.102l-0.129,0.102l-0.129,0.102l-0.13,0.102l-0.129,0.101l-0.13,0.101l-0.131,0.102l-0.129,0.1l-0.13,0.101l-0.13,0.1l-0.13,0.1l-0.132,0.102l-0.131,0.1l-0.13,0.099l-0.132,0.1l-0.13,0.099l-0.13,0.098l-0.133,0.101l-0.131,0.098l-0.132,0.099l-0.132,0.098l-0.131,0.098l-0.133,0.098l-0.132,0.098l-0.132,0.097l-0.132,0.097l-0.133,0.098l-0.134,0.097l-0.132,0.097l-0.133,0.096l-0.134,0.097l-0.133,0.096l-0.132,0.096l-0.135,0.096l-0.133,0.096l-0.134,0.094l-0.134,0.096l-0.133,0.094l-0.135,0.095l-0.135,0.095l-0.135,0.095l-0.134,0.094l-0.134,0.093l-0.137,0.095l-0.135,0.094l-0.135,0.092l-0.135,0.093l-0.134,0.093l-0.137,0.093l-0.137,0.093l-0.135,0.092l-0.136,0.092l-0.134,0.091l-0.138,0.092l-0.137,0.092l-0.138,0.092l-0.136,0.091l-0.136,0.09l-0.138,0.091l-0.137,0.09l-0.136,0.089l-0.138,0.091l-0.139,0.09l-0.139,0.09l-0.137,0.089l-0.137,0.089l-0.139,0.089l-0.138,0.088l-0.139,0.089l-0.139,0.089l-0.137,0.087l-0.139,0.088l-0.14,0.088l-0.14,0.088l-0.14,0.087l-0.137,0.086l-0.14,0.087l-0.141,0.087l-0.139,0.086l-0.141,0.086l-0.141,0.087l-0.139,0.085l-0.14,0.085l-0.143,0.086l-0.139,0.085l-0.141,0.084l-0.142,0.085l-0.141,0.085l-0.142,0.084l-0.141,0.084l-0.141,0.083l-0.142,0.084l-0.143,0.083l-0.141,0.083l-0.143,0.083l-0.143,0.083l-0.143,0.083l-0.141,0.081l-0.142,0.081l-0.143,0.082l-0.144,0.082l-0.145,0.082l-0.142,0.08l-0.144,0.081l-0.144,0.081l-0.143,0.08l-0.144,0.08l-0.145,0.081l-0.143,0.079l-0.145,0.079l-0.145,0.08l-0.144,0.079l-0.145,0.078l-0.146,0.079l-0.146,0.079l-0.145,0.078l-0.145,0.077l-0.144,0.078l-0.148,0.078l-0.147,0.077l-0.144,0.076l-0.145,0.077l-0.147,0.077l-0.149,0.077l-0.145,0.075l-0.145,0.075l-0.15,0.077l-0.147,0.075l-0.146,0.075l-0.146,0.074l-0.148,0.075l-0.15,0.075l-0.147,0.074l-0.148,0.074l-0.149,0.074l-0.146,0.072l-0.151,0.075l-0.149,0.073l-0.147,0.072l-0.147,0.072l-0.15,0.072l-0.152,0.073l-0.147,0.071l-0.15,0.072l-0.15,0.071l-0.15,0.072l-0.15,0.071l-0.149,0.07l-0.15,0.07l-0.151,0.07l-0.151,0.07l-0.15,0.07l-0.152,0.07l-0.151,0.069l-0.151,0.069l-0.15,0.068l-0.151,0.068l-0.154,0.07l-0.15,0.067l-0.152,0.068l-0.153,0.067l-0.15,0.067l-0.154,0.068l-0.153,0.066l-0.151,0.066l-0.153,0.067l-0.155,0.066l-0.153,0.066l-0.151,0.065l-0.154,0.065l-0.154,0.065l-0.153,0.065l-0.154,0.065l-0.155,0.064l-0.154,0.064l-0.154,0.064l-0.155,0.064l-0.154,0.063l-0.153,0.062l-0.155,0.063l-0.157,0.063l-0.155,0.063l-0.156,0.062l-0.155,0.062l-0.153,0.06l-0.157,0.062l-0.157,0.061l-0.157,0.061l-0.156,0.061l-0.156,0.06l-0.157,0.06l-0.156,0.06l-0.155,0.059l-0.157,0.059l-0.159,0.06l-0.158,0.059l-0.157,0.058l-0.157,0.058l-0.158,0.058l-0.158,0.058l-0.16,0.058l-0.158,0.057l-0.156,0.056l-0.158,0.057l-0.158,0.057l-0.162,0.057l-0.158,0.055l-0.157,0.055l-0.161,0.057l-0.159,0.055l-0.16,0.055l-0.159,0.054l-0.16,0.054l-0.162,0.055l-0.16,0.054l-0.158,0.053l-0.16,0.053l-0.162,0.054l-0.161,0.053l-0.16,0.052l-0.161,0.053l-0.164,0.052l-0.16,0.052l-0.159,0.051l-0.164,0.052l-0.161,0.051l-0.162,0.05l-0.164,0.051l-0.162,0.051l-0.16,0.049l-0.162,0.049l-0.167,0.051l-0.162,0.049l-0.161,0.048l-0.162,0.049l-0.165,0.049l-0.164,0.048l-0.163,0.048l-0.165,0.048l-0.164,0.047l-0.164,0.047l-0.163,0.046l-0.164,0.047l-0.166,0.047l-0.165,0.045l-0.164,0.046l-0.164,0.045l-0.165,0.045l-0.167,0.046l-0.165,0.044l-0.167,0.045l-0.165,0.044l-0.166,0.044l-0.165,0.043l-0.166,0.044l-0.168,0.043l-0.166,0.043l-0.166,0.042l-0.168,0.043l-0.167,0.041l-0.166,0.042l-0.169,0.042l-0.167,0.041l-0.167,0.04l-0.167,0.041l-0.169,0.041l-0.168,0.039l-0.167,0.04l-0.17,0.04l-0.168,0.039l-0.168,0.039l-0.17,0.039l-0.171,0.039l-0.166,0.037l-0.168,0.038l-0.173,0.038l-0.169,0.037l-0.169,0.037l-0.169,0.037l-0.169,0.036l-0.172,0.037l-0.172,0.036l-0.169,0.035l-0.17,0.036l-0.172,0.035l-0.17,0.035l-0.171,0.034l-0.172,0.035l-0.173,0.034l-0.171,0.033l-0.17,0.034l-0.171,0.033l-0.174,0.033l-0.173,0.033l-0.171,0.032l-0.172,0.032l-0.172,0.031l-0.174,0.032l-0.174,0.031l-0.172,0.031l-0.174,0.031l-0.173,0.03l-0.172,0.03l-0.175,0.03l-0.176,0.03l-0.172,0.029l-0.173,0.029l-0.176,0.028l-0.176,0.029l-0.173,0.028l-0.174,0.028l-0.176,0.027l-0.174,0.027l-0.176,0.028l-0.177,0.026l-0.174,0.027l-0.175,0.026l-0.177,0.026l-0.177,0.025l-0.175,0.025l-0.177,0.025l-0.177,0.025l-0.176,0.024l-0.175,0.024l-0.176,0.024l-0.178,0.024l-0.181,0.023l-0.176,0.023l-0.176,0.023l-0.179,0.022l-0.176,0.022l-0.179,0.022l-0.179,0.022l-0.177,0.021l-0.177,0.021l-0.18,0.02l-0.18,0.021l-0.179,0.02l-0.178,0.02l-0.178,0.019l-0.183,0.02l-0.178,0.018l-0.178,0.019l-0.183,0.018l-0.178,0.018l-0.179,0.018l-0.184,0.018l-0.179,0.017l-0.179,0.017l-0.181,0.016l-0.182,0.017l-0.182,0.016l-0.18,0.015l-0.182,0.016l-0.182,0.015l-0.18,0.015l-0.183,0.014l-0.183,0.014l-0.18,0.014l-0.183,0.014l-0.183,0.013l-0.181,0.013l-0.184,0.013l-0.184,0.013l-0.181,0.012l-0.184,0.012l-0.184,0.011l-0.184,0.012l-0.184,0.011l-0.183,0.01l-0.184,0.011l-0.185,0.01l-0.183,0.01l-0.185,0.009l-0.185,0.01l-0.185,0.009l-0.186,0.008l-0.183,0.008l-0.186,0.008l-0.186,0.008l-0.184,0.008l-0.186,0.007l-0.188,0.007l-0.185,0.006l-0.184,0.006l-0.189,0.006l-0.187,0.006l-0.185,0.005l-0.187,0.005l-0.188,0.005l-0.187,0.005l-0.188,0.004l-0.186,0.004l-0.188,0.003l-0.188,0.003l-0.188,0.003l-0.188,0.003l-0.187,0.002l-0.188,0.002l-0.191,0.002l-0.187,0.002l-0.189,0.001l-0.19,0.001l-0.187,0l-0.192,0l-0.189,0l-0.188,0l-0.19,-0.001l-0.193,-0.001l-0.188,-0.001l-0.19,-0.001l-0.191,-0.002l-0.189,-0.003l-0.192,-0.002l-0.192,-0.003l-0.191,-0.003l-0.191,-0.003l-0.19,-0.004l-0.191,-0.004l-0.192,-0.004l-0.192,-0.005l-0.194,-0.005l-0.192,-0.005l-0.191,-0.006l-0.192,-0.006l-0.193,-0.006l-0.193,-0.006l-0.193,-0.007l-0.193,-0.007l-0.193,-0.008l-0.194,-0.007l-0.193,-0.008l-0.194,-0.009l-0.194,-0.008l-0.194,-0.009l-0.194,-0.009l-0.195,-0.01l-0.194,-0.01l-0.195,-0.01l-0.195,-0.01l-0.195,-0.011l-0.195,-0.011l-0.195,-0.012l-0.195,-0.011l-0.196,-0.012l-0.196,-0.013l-0.195,-0.012l-0.198,-0.013l-0.197,-0.014l-0.194,-0.013l-0.196,-0.014l-0.199,-0.014l-0.197,-0.015l-0.195,-0.014l-0.199,-0.016l-0.197,-0.015l-0.197,-0.016l-0.196,-0.016l1.058,-12.957l0.18,0.015l0.357,0.028l0.355,0.027l0.353,0.026l0.356,0.025l0.351,0.023l0.352,0.023l0.352,0.021l0.351,0.02l0.35,0.019l0.349,0.018l0.349,0.017l0.347,0.016l0.347,0.014l0.346,0.014l0.346,0.012l0.345,0.012l0.346,0.01l0.341,0.009l0.342,0.008l0.344,0.007l0.341,0.006l0.338,0.004l0.341,0.004l0.341,0.003l0.336,0.001l0.339,0l0.166,0l0.17,0l0.168,-0.001l0.168,-0.001l0.17,-0.001l0.165,-0.002l0.167,-0.002l0.169,-0.002l0.167,-0.002l0.167,-0.003l0.166,-0.003l0.166,-0.003l0.168,-0.003l0.166,-0.004l0.166,-0.004l0.166,-0.004l0.165,-0.005l0.167,-0.004l0.165,-0.005l0.163,-0.005l0.167,-0.006l0.166,-0.006l0.162,-0.006l0.164,-0.006l0.166,-0.007l0.164,-0.007l0.163,-0.007l0.166,-0.007l0.163,-0.008l0.163,-0.008l0.163,-0.008l0.162,-0.008l0.165,-0.009l0.162,-0.009l0.162,-0.009l0.164,-0.01l0.162,-0.009l0.161,-0.01l0.162,-0.011l0.161,-0.01l0.163,-0.011l0.161,-0.011l0.16,-0.011l0.163,-0.012l0.16,-0.011l0.16,-0.012l0.162,-0.013l0.16,-0.012l0.16,-0.013l0.161,-0.013l0.159,-0.014l0.159,-0.013l0.161,-0.014l0.159,-0.014l0.159,-0.014l0.158,-0.015l0.16,-0.015l0.16,-0.015l0.156,-0.015l0.16,-0.016l0.159,-0.016l0.155,-0.016l0.16,-0.016l0.159,-0.017l0.154,-0.017l0.159,-0.017l0.159,-0.017l0.156,-0.018l0.156,-0.018l0.156,-0.018l0.158,-0.018l0.158,-0.019l0.155,-0.019l0.155,-0.019l0.157,-0.019l0.155,-0.02l0.157,-0.02l0.157,-0.02l0.152,-0.02l0.154,-0.021l0.156,-0.021l0.156,-0.021l0.156,-0.021l0.154,-0.022l0.153,-0.022l0.155,-0.022l0.153,-0.022l0.153,-0.023l0.155,-0.023l0.155,-0.023l0.152,-0.023l0.152,-0.023l0.154,-0.024l0.152,-0.024l0.154,-0.025l0.154,-0.024l0.151,-0.025l0.151,-0.025l0.153,-0.025l0.154,-0.026l0.15,-0.026l0.15,-0.025l0.153,-0.027l0.152,-0.027l0.15,-0.026l0.153,-0.027l0.149,-0.027l0.15,-0.028l0.151,-0.027l0.151,-0.029l0.152,-0.028l0.149,-0.028l0.148,-0.029l0.151,-0.029l0.151,-0.029l0.15,-0.03l0.148,-0.029l0.148,-0.029l0.15,-0.031l0.15,-0.03l0.147,-0.031l0.15,-0.031l0.149,-0.031l0.147,-0.031l0.147,-0.031l0.148,-0.032l0.149,-0.032l0.149,-0.033l0.148,-0.032l0.144,-0.032l0.148,-0.033l0.15,-0.034l0.145,-0.033l0.146,-0.033l0.147,-0.035l0.147,-0.034l0.145,-0.034l0.147,-0.035l0.147,-0.035l0.144,-0.034l0.147,-0.036l0.146,-0.036l0.146,-0.035l0.144,-0.036l0.146,-0.036l0.146,-0.037l0.143,-0.036l0.145,-0.037l0.146,-0.038l0.142,-0.037l0.145,-0.037l0.145,-0.038l0.145,-0.039l0.144,-0.038l0.142,-0.038l0.145,-0.039l0.141,-0.039l0.144,-0.039l0.144,-0.04l0.144,-0.04l0.143,-0.039l0.141,-0.04l0.143,-0.041l0.143,-0.04l0.143,-0.041l0.142,-0.042l0.141,-0.04l0.142,-0.042l0.142,-0.042l0.14,-0.041l0.142,-0.043l0.144,-0.043l0.142,-0.043l0.137,-0.041l0.141,-0.044l0.143,-0.044l0.141,-0.043l0.139,-0.044l0.141,-0.044l0.14,-0.044l0.139,-0.044l0.142,-0.045l0.141,-0.045l0.137,-0.045l0.14,-0.045l0.14,-0.046l0.139,-0.046l0.138,-0.045l0.139,-0.047l0.141,-0.047l0.139,-0.047l0.137,-0.046l0.139,-0.047l0.138,-0.048l0.138,-0.047l0.139,-0.048l0.136,-0.048l0.14,-0.049l0.138,-0.048l0.135,-0.048l0.138,-0.049l0.138,-0.05l0.139,-0.05l0.137,-0.049l0.135,-0.049l0.137,-0.051l0.136,-0.05l0.137,-0.05l0.137,-0.051l0.136,-0.051l0.134,-0.05l0.136,-0.052l0.138,-0.052l0.136,-0.052l0.135,-0.052l0.136,-0.052l0.136,-0.053l0.135,-0.052l0.133,-0.052l0.134,-0.053l0.138,-0.055l0.134,-0.053l0.135,-0.054l0.134,-0.054l0.132,-0.053l0.134,-0.055l0.136,-0.055l0.135,-0.055l0.133,-0.055l0.134,-0.055l0.133,-0.056l0.134,-0.055l0.133,-0.056l0.133,-0.056l0.133,-0.057l0.133,-0.056l0.134,-0.058l0.133,-0.057l0.131,-0.056l0.131,-0.057l0.134,-0.059l0.133,-0.058l0.13,-0.057l0.133,-0.059l0.132,-0.058l0.132,-0.059l0.133,-0.06l0.129,-0.058l0.131,-0.059l0.133,-0.06l0.131,-0.06l0.131,-0.06l0.13,-0.06l0.131,-0.06l0.13,-0.061l0.13,-0.06l0.131,-0.062l0.131,-0.062l0.13,-0.061l0.13,-0.061l0.129,-0.062l0.13,-0.062l0.132,-0.063l0.127,-0.062l0.128,-0.062l0.132,-0.064l0.13,-0.064l0.129,-0.063l0.126,-0.063l0.131,-0.064l0.128,-0.064l0.129,-0.064l0.129,-0.065l0.126,-0.064l0.128,-0.064l0.13,-0.066l0.129,-0.066l0.128,-0.066l0.125,-0.064l0.129,-0.067l0.129,-0.067l0.126,-0.065l0.126,-0.066l0.129,-0.067l0.128,-0.068l0.127,-0.067l0.125,-0.066l0.128,-0.068l0.127,-0.069l0.127,-0.068l0.125,-0.067l0.126,-0.069l0.126,-0.068l0.127,-0.069l0.125,-0.069l0.126,-0.069l0.127,-0.07l0.125,-0.069l0.125,-0.07l0.127,-0.071l0.124,-0.07l0.125,-0.07l0.126,-0.071l0.124,-0.071l0.124,-0.07l0.125,-0.071l0.126,-0.072l0.125,-0.073l0.124,-0.071l0.124,-0.072l0.123,-0.072l0.125,-0.073l0.124,-0.072l0.123,-0.073l0.125,-0.074l0.124,-0.073l0.123,-0.074l0.123,-0.073l0.123,-0.074l0.124,-0.074l0.124,-0.075l0.121,-0.073l0.124,-0.076l0.123,-0.075l0.122,-0.075l0.122,-0.075l0.123,-0.076l0.122,-0.075l0.122,-0.076l0.124,-0.077l0.121,-0.076l0.122,-0.076l0.121,-0.077l0.121,-0.076l0.124,-0.079l0.121,-0.077l0.12,-0.077l0.123,-0.078l0.12,-0.077l0.122,-0.079l0.122,-0.079l0.119,-0.078l0.12,-0.078l0.12,-0.079l0.122,-0.08l0.121,-0.08l0.12,-0.079l0.121,-0.08l0.12,-0.08l0.12,-0.08l0.119,-0.079l0.118,-0.08l0.121,-0.082l0.121,-0.081l0.12,-0.082l0.118,-0.08l0.119,-0.081l0.12,-0.083l0.119,-0.082l0.12,-0.082l0.119,-0.082l0.117,-0.082l0.119,-0.083l0.12,-0.084l0.117,-0.082l0.118,-0.083l0.118,-0.083l0.119,-0.085l0.118,-0.083l0.119,-0.085l0.118,-0.084l0.117,-0.084l0.118,-0.085l0.118,-0.085l0.117,-0.085l0.118,-0.085l0.117,-0.086l0.116,-0.085l0.117,-0.085l0.118,-0.087l0.117,-0.086l0.117,-0.087l0.116,-0.086l0.117,-0.087l0.117,-0.087l0.115,-0.087l0.118,-0.088l0.114,-0.086l0.117,-0.088l0.117,-0.089l0.116,-0.088l0.116,-0.089l0.115,-0.088l0.114,-0.087l0.116,-0.09l0.116,-0.089l0.116,-0.09l0.116,-0.09l0.114,-0.089l0.115,-0.089l0.115,-0.091l0.114,-0.089l0.116,-0.091l0.114,-0.091l0.115,-0.091l0.115,-0.091l0.113,-0.091l0.115,-0.091l0.115,-0.092l0.112,-0.091l0.115,-0.092l0.114,-0.092l0.114,-0.093l0.114,-0.093l0.113,-0.092l0.113,-0.092l0.114,-0.094l0.112,-0.092l0.114,-0.094l0.115,-0.095l0.111,-0.093l0.113,-0.093l0.114,-0.095l0.112,-0.095l0.112,-0.094l0.113,-0.095l0.113,-0.095l0.112,-0.095l0.113,-0.095l0.113,-0.096l0.11,-0.095l0.113,-0.096l0.112,-0.096l0.111,-0.096l0.113,-0.097l0.11,-0.095l0.113,-0.098l0.112,-0.098l0.11,-0.096l0.112,-0.098l0.11,-0.097l0.112,-0.098l0.111,-0.098l0.111,-0.098l0.111,-0.099l0.109,-0.097l0.111,-0.098l0.112,-0.1l0.109,-0.098l0.111,-0.1l0.111,-0.1l0.109,-0.098l0.111,-0.101l0.11,-0.099l0.108,-0.099l0.111,-0.102l0.11,-0.1l0.109,-0.1l0.11,-0.102l0.11,-0.101l0.109,-0.101l0.11,-0.101l0.107,-0.1l0.11,-0.103l0.11,-0.102l0.109,-0.102l0.108,-0.102l0.108,-0.102l0.11,-0.104l0.109,-0.103l0.107,-0.101l0.108,-0.104l0.11,-0.104l0.108,-0.103l0.108,-0.104l0.108,-0.104l0.106,-0.102l0.108,-0.104l0.109,-0.106l0.108,-0.105l0.108,-0.104l0.107,-0.105l0.107,-0.105l0.107,-0.105l0.107,-0.105l0.108,-0.106l0.106,-0.106l0.107,-0.105l0.108,-0.107l0.107,-0.107l0.107,-0.106l0.105,-0.105l0.107,-0.108l0.107,-0.108l0.106,-0.107l0.106,-0.106l0.107,-0.108l0.106,-0.109l0.105,-0.106l0.106,-0.108l0.107,-0.11l0.105,-0.108l0.106,-0.108l0.105,-0.108l0.106,-0.11l0.105,-0.108l0.105,-0.109l0.106,-0.111l0.106,-0.109l0.104,-0.109l0.105,-0.11l0.105,-0.11l0.106,-0.112l0.104,-0.109l0.103,-0.109l0.106,-0.112l0.105,-0.112l0.103,-0.11l0.104,-0.111l0.106,-0.113l0.103,-0.111l0.104,-0.111l0.105,-0.113l0.104,-0.112l0.103,-0.112l0.104,-0.112l0.103,-0.113l0.104,-0.113l0.103,-0.112l0.104,-0.114l0.103,-0.113l0.103,-0.113l0.104,-0.114l0.103,-0.115l0.104,-0.114l0.101,-0.112l0.101,-0.113l0.208,-0.232l0.204,-0.229l0.205,-0.23l0.205,-0.232l0.204,-0.231l0.203,-0.233l0.204,-0.232l0.203,-0.234l0.203,-0.235l0.202,-0.234l0.202,-0.235l0.202,-0.237l0.202,-0.237l0.201,-0.238l0.201,-0.238l0.2,-0.239l0.2,-0.239l0.2,-0.24l0.2,-0.241l0.199,-0.241l0.199,-0.242l0.199,-0.243l0.198,-0.243l0.198,-0.244l0.197,-0.244l0.198,-0.245l0.197,-0.246l0.196,-0.246l0.197,-0.247l0.196,-0.247l0.196,-0.249l0.196,-0.249l0.194,-0.248l0.196,-0.251l0.194,-0.25l0.194,-0.251l0.194,-0.252l0.194,-0.253l0.193,-0.252l0.193,-0.254l0.193,-0.254l0.193,-0.255l0.192,-0.255l0.191,-0.256l0.192,-0.256l0.191,-0.258l0.192,-0.258l0.19,-0.258l0.191,-0.259l0.19,-0.259l0.189,-0.26l0.19,-0.261l0.19,-0.262l0.188,-0.261l0.189,-0.262l0.188,-0.263l0.188,-0.263l0.188,-0.264l0.187,-0.265l0.187,-0.264l0.188,-0.267l0.186,-0.266l0.186,-0.266l0.186,-0.268l0.186,-0.268l0.186,-0.268l0.185,-0.269l0.184,-0.269l0.185,-0.27l0.185,-0.271l0.184,-0.271l0.183,-0.272l0.184,-0.272l0.183,-0.273l0.183,-0.274l0.183,-0.274l0.182,-0.273l0.182,-0.275l0.182,-0.275l0.182,-0.276l0.182,-0.278l0.18,-0.276l0.181,-0.277l0.18,-0.278l0.181,-0.279l0.18,-0.279l0.179,-0.279l0.18,-0.281l0.179,-0.28l0.179,-0.281l0.179,-0.282l0.178,-0.281l0.178,-0.283l0.178,-0.283l0.177,-0.284l0.178,-0.284l0.177,-0.285l0.177,-0.284l0.176,-0.286l0.177,-0.286l0.175,-0.286l0.176,-0.287l0.176,-0.288l0.175,-0.288l0.175,-0.288l0.175,-0.289l0.175,-0.29l0.174,-0.289l0.174,-0.29l0.174,-0.291l0.173,-0.291l0.174,-0.292l0.172,-0.292l0.173,-0.292l0.173,-0.294l0.172,-0.293l0.172,-0.294l0.172,-0.295l0.172,-0.294l0.171,-0.296l0.171,-0.296l0.171,-0.296l0.171,-0.296l0.17,-0.297l0.17,-0.298l0.17,-0.298l0.17,-0.298l0.169,-0.299l0.169,-0.299l0.169,-0.3l0.169,-0.3l0.169,-0.301l0.168,-0.3l0.168,-0.302l0.168,-0.302l0.168,-0.302l0.167,-0.303l0.167,-0.302l0.167,-0.304l0.167,-0.304l0.166,-0.304l0.166,-0.305l0.166,-0.305l0.166,-0.306l0.166,-0.305l0.165,-0.307l0.165,-0.306l0.165,-0.307l0.165,-0.308l0.164,-0.308l0.164,-0.308l0.165,-0.308l0.164,-0.31l0.163,-0.309l0.164,-0.31l0.163,-0.31l0.163,-0.31l0.163,-0.311l0.162,-0.312l0.163,-0.311l0.162,-0.313l0.162,-0.312l0.162,-0.312l0.161,-0.314l0.162,-0.313l0.161,-0.314l0.161,-0.314l0.16,-0.314l0.161,-0.315l0.16,-0.316l0.161,-0.315l0.16,-0.317l0.16,-0.316l0.159,-0.316l0.159,-0.317l0.159,-0.318l0.16,-0.317l0.158,-0.318l0.159,-0.319l0.158,-0.318l0.159,-0.319l0.158,-0.32l0.158,-0.319l0.157,-0.32l0.158,-0.321l0.157,-0.32l0.157,-0.321l0.157,-0.322l0.157,-0.321l0.156,-0.322l0.157,-0.322l0.156,-0.323l0.156,-0.323l0.156,-0.323l0.156,-0.323l0.155,-0.324l0.156,-0.323l0.155,-0.325l0.155,-0.325l0.155,-0.325l0.155,-0.325l0.154,-0.325l0.154,-0.326l0.154,-0.326l0.154,-0.326l0.154,-0.327l0.154,-0.327l0.153,-0.327l0.154,-0.328l0.153,-0.327l0.153,-0.328l0.153,-0.329l0.153,-0.329l0.152,-0.328l0.152,-0.329l0.153,-0.33l0.152,-0.33l0.152,-0.329l0.151,-0.33l0.152,-0.331l0.151,-0.33l0.152,-0.332l0.151,-0.331l0.151,-0.331l0.151,-0.332l0.151,-0.332l0.15,-0.332l0.15,-0.332l0.151,-0.332l0.15,-0.333l0.15,-0.334l0.15,-0.333l0.15,-0.334l0.149,-0.333l0.149,-0.334l0.149,-0.334l0.15,-0.335l0.149,-0.335l0.149,-0.334l0.148,-0.335l0.149,-0.336l0.148,-0.335l0.149,-0.336l0.148,-0.336l0.148,-0.336l0.148,-0.337l0.148,-0.336l0.148,-0.337l0.147,-0.337l0.148,-0.337l0.147,-0.337l0.147,-0.338l0.147,-0.338l0.147,-0.338l0.147,-0.338l0.147,-0.338l0.146,-0.339l0.147,-0.338l0.146,-0.339l0.293,-0.679l0.292,-0.678l0.291,-0.68l0.291,-0.681l0.291,-0.68l0.29,-0.682l0.29,-0.682l0.289,-0.683l0.289,-0.683l0.289,-0.685l0.288,-0.684l0.288,-0.685l0.287,-0.686l0.288,-0.686l0.286,-0.687l0.287,-0.687l0.286,-0.687l0.286,-0.689l0.285,-0.688l0.285,-0.689l0.285,-0.689l0.285,-0.69l0.284,-0.69l0.284,-0.691l0.284,-0.691l0.283,-0.691l0.283,-0.692l0.283,-0.691l0.283,-0.692l0.282,-0.693l0.282,-0.692l0.283,-0.693l0.281,-0.693l0.282,-0.694l0.281,-0.693l0.282,-0.694l0.281,-0.694l0.281,-0.694l0.28,-0.693l0.561,-1.39l0.561,-1.389l0.56,-1.389l0.56,-1.389l0.559,-1.39l0.559,-1.389l1.117,-2.778l0.559,-1.388l0.558,-1.388l0.559,-1.386l0.559,-1.387l0.558,-1.385l0.559,-1.383l0.28,-0.692l0.28,-0.692l0.28,-0.691l0.28,-0.69l0.28,-0.69l0.28,-0.69l0.28,-0.69l0.281,-0.689l0.28,-0.689l0.281,-0.688l0.281,-0.688l0.281,-0.687l0.281,-0.687l0.282,-0.687l0.282,-0.685l0.281,-0.686l0.283,-0.684l0.282,-0.685l0.283,-0.684l0.282,-0.683l0.283,-0.682l0.284,-0.682l0.283,-0.682l0.284,-0.68l0.284,-0.68l0.285,-0.68l0.284,-0.678l0.285,-0.678l0.286,-0.678l0.285,-0.676l0.286,-0.676l0.287,-0.675l0.286,-0.674l0.287,-0.674l0.288,-0.672l0.287,-0.672l0.289,-0.671l0.288,-0.671l0.289,-0.668l0.145,-0.335l0.145,-0.334l0.145,-0.334l0.145,-0.334l0.145,-0.334l0.145,-0.333l0.145,-0.333l0.146,-0.333l0.145,-0.332l0.146,-0.333l0.145,-0.331l0.146,-0.332l0.147,-0.332l0.145,-0.331l0.147,-0.331l0.146,-0.331l0.146,-0.331l0.147,-0.33l0.147,-0.331l0.147,-0.33l0.147,-0.329l0.147,-0.329l0.147,-0.33l0.147,-0.328l0.148,-0.329l0.147,-0.328l0.148,-0.328l0.148,-0.328l0.148,-0.327l0.148,-0.328l0.148,-0.327l0.149,-0.327l0.148,-0.326l0.149,-0.326l0.149,-0.326l0.149,-0.326l0.149,-0.325l0.149,-0.325l0.15,-0.324l0.149,-0.325l0.15,-0.324l0.15,-0.324l0.15,-0.323l0.15,-0.324l0.15,-0.323l0.151,-0.322l0.15,-0.323l0.151,-0.322l0.151,-0.321l0.151,-0.322l0.152,-0.321l0.151,-0.321l0.152,-0.321l0.152,-0.32l0.151,-0.32l0.152,-0.319l0.152,-0.319l0.153,-0.32l0.153,-0.318l0.152,-0.319l0.153,-0.318l0.153,-0.317l0.154,-0.317l0.153,-0.317l0.154,-0.317l0.154,-0.316l0.154,-0.316l0.154,-0.316l0.154,-0.315l0.155,-0.315l0.154,-0.315l0.155,-0.314l0.155,-0.314l0.156,-0.314l0.155,-0.313l0.156,-0.312l0.156,-0.313l0.156,-0.312l0.156,-0.312l0.156,-0.311l0.157,-0.311l0.157,-0.311l0.157,-0.311l0.157,-0.309l0.157,-0.31l0.158,-0.309l0.158,-0.309l0.158,-0.308l0.158,-0.309l0.159,-0.308l0.158,-0.306l0.159,-0.307l0.159,-0.307l0.159,-0.306l0.16,-0.306l0.16,-0.305l0.16,-0.306l0.16,-0.304l0.16,-0.304l0.161,-0.304l0.16,-0.303l0.162,-0.304l0.161,-0.302l0.161,-0.303l0.162,-0.301l0.162,-0.302l0.162,-0.301l0.162,-0.301l0.163,-0.3l0.163,-0.299l0.163,-0.3l0.163,-0.299l0.164,-0.298l0.163,-0.298l0.165,-0.298l0.164,-0.297l0.164,-0.296l0.165,-0.297l0.165,-0.296l0.165,-0.296l0.166,-0.295l0.165,-0.294l0.166,-0.295l0.166,-0.293l0.167,-0.294l0.167,-0.292l0.167,-0.293l0.167,-0.292l0.167,-0.292l0.168,-0.29l0.168,-0.291l0.169,-0.291l0.168,-0.289l0.169,-0.289l0.169,-0.289l0.169,-0.288l0.17,-0.289l0.17,-0.287l0.169,-0.286l0.171,-0.287l0.171,-0.286l0.171,-0.286l0.171,-0.285l0.171,-0.284l0.172,-0.285l0.172,-0.283l0.172,-0.283l0.173,-0.283l0.173,-0.282l0.173,-0.282l0.174,-0.281l0.173,-0.28l0.174,-0.281l0.175,-0.28l0.174,-0.279l0.175,-0.278l0.175,-0.278l0.176,-0.278l0.176,-0.278l0.175,-0.276l0.177,-0.276l0.177,-0.276l0.177,-0.275l0.177,-0.275l0.178,-0.274l0.177,-0.273l0.179,-0.274l0.178,-0.273l0.179,-0.272l0.179,-0.271l0.18,-0.271l0.179,-0.27l0.18,-0.27l0.181,-0.27l0.181,-0.269l0.181,-0.268l0.181,-0.268l0.182,-0.267l0.182,-0.267l0.182,-0.266l0.182,-0.265l0.183,-0.266l0.184,-0.265l0.184,-0.264l0.183,-0.263l0.185,-0.262l0.184,-0.263l0.186,-0.262l0.185,-0.261l0.186,-0.261l0.185,-0.259l0.187,-0.26l0.187,-0.259l0.187,-0.259l0.187,-0.257l0.188,-0.257l0.188,-0.257l0.188,-0.256l0.189,-0.256l0.189,-0.255l0.19,-0.254l0.189,-0.254l0.191,-0.253l0.19,-0.252l0.191,-0.252l0.192,-0.252l0.191,-0.25l0.192,-0.251l0.193,-0.249l0.192,-0.249l0.194,-0.248l0.193,-0.248l0.194,-0.247l0.194,-0.247l0.195,-0.246l0.195,-0.245l0.195,-0.245l0.196,-0.244l0.196,-0.243l0.197,-0.243l0.197,-0.243l0.197,-0.241l0.198,-0.241l0.198,-0.24l0.198,-0.24l0.199,-0.239l0.199,-0.238l0.2,-0.238l0.2,-0.237l0.201,-0.237l0.2,-0.235l0.202,-0.236l0.202,-0.234l0.201,-0.234l0.203,-0.233l0.203,-0.233l0.203,-0.232l0.204,-0.231l0.204,-0.23l0.204,-0.23l0.204,-0.228l0.104,-0.116l0.103,-0.114l0.102,-0.114l0.103,-0.114l0.104,-0.114l0.103,-0.114l0.103,-0.113l0.104,-0.113l0.104,-0.113l0.102,-0.112l0.104,-0.113l0.104,-0.113l0.105,-0.113l0.103,-0.111l0.104,-0.112l0.105,-0.113l0.104,-0.111l0.104,-0.111l0.104,-0.111l0.106,-0.112l0.104,-0.111l0.105,-0.111l0.105,-0.11l0.105,-0.111l0.105,-0.11l0.105,-0.11l0.106,-0.11l0.106,-0.11l0.105,-0.109l0.106,-0.11l0.105,-0.108l0.106,-0.109l0.107,-0.11l0.106,-0.108l0.318,-0.325l0.318,-0.324l0.317,-0.323l0.318,-0.322l0.318,-0.322l0.319,-0.321l0.319,-0.321l0.318,-0.32l0.319,-0.319l0.319,-0.319l0.318,-0.318l0.319,-0.318l0.32,-0.317l0.319,-0.316l0.32,-0.316l0.32,-0.315l0.319,-0.315l0.32,-0.314l0.32,-0.313l0.32,-0.313l0.32,-0.312l0.321,-0.312l0.32,-0.311l0.321,-0.31l0.32,-0.31l0.321,-0.309l0.321,-0.309l0.321,-0.307l0.321,-0.308l0.322,-0.307l0.321,-0.306l0.321,-0.305l0.322,-0.305l0.322,-0.304l0.321,-0.304l0.322,-0.303l0.322,-0.303l0.322,-0.302l0.323,-0.301l0.322,-0.301l0.323,-0.301l0.322,-0.299l0.323,-0.299l0.322,-0.299l0.323,-0.297l0.323,-0.298l0.323,-0.296l0.323,-0.297l0.323,-0.295l0.324,-0.295l0.323,-0.294l0.324,-0.294l0.324,-0.294l0.323,-0.292l0.323,-0.292l0.324,-0.291l0.324,-0.291l0.325,-0.291l0.324,-0.289l0.324,-0.289l0.324,-0.289l0.325,-0.288l0.324,-0.287l0.324,-0.287l0.325,-0.286l0.325,-0.286l0.325,-0.285l0.324,-0.284l0.325,-0.284l0.325,-0.283l0.326,-0.283l0.325,-0.283l0.325,-0.281l0.325,-0.281l0.325,-0.28l0.326,-0.28l0.325,-0.28l0.326,-0.278l0.326,-0.279l0.325,-0.277l0.326,-0.277l0.326,-0.277l0.326,-0.276l0.326,-0.275l0.326,-0.275l0.326,-0.274l0.326,-0.273l0.326,-0.274l0.327,-0.272l0.326,-0.272l0.327,-0.272l0.326,-0.27l0.326,-0.27l0.327,-0.27l0.327,-0.27l0.326,-0.268l0.327,-0.268l0.327,-0.267l0.327,-0.267l0.327,-0.267l0.327,-0.266l0.326,-0.265l0.328,-0.265l0.327,-0.264l0.327,-0.263l0.327,-0.263l0.327,-0.262l0.327,-0.262l0.328,-0.262l0.327,-0.261l0.328,-0.26l0.327,-0.26l0.327,-0.259l0.328,-0.258l0.327,-0.259l0.328,-0.257l0.327,-0.257l0.328,-0.256l0.328,-0.256l0.328,-0.256l0.327,-0.254l0.328,-0.254l0.328,-0.254l0.328,-0.253l0.327,-0.253l0.328,-0.252l0.328,-0.251l0.328,-0.251l0.328,-0.251l0.328,-0.25l0.328,-0.249l0.328,-0.249l0.328,-0.248l0.328,-0.248l0.328,-0.247l0.328,-0.247l0.328,-0.246l0.328,-0.245l0.329,-0.245l0.328,-0.245l0.328,-0.244l0.328,-0.243l0.328,-0.243l0.328,-0.243l0.329,-0.242l0.328,-0.241l0.328,-0.24l0.328,-0.241l0.329,-0.239l0.328,-0.24l0.328,-0.238l0.328,-0.238l0.329,-0.238l0.328,-0.237l0.328,-0.237l0.329,-0.236l0.328,-0.235l0.328,-0.235l0.328,-0.234l0.329,-0.235l0.328,-0.233l0.328,-0.233l0.328,-0.232l0.329,-0.232l0.328,-0.232l0.328,-0.23l0.328,-0.23l0.329,-0.23l0.328,-0.23l0.328,-0.228l0.328,-0.229l0.328,-0.227l0.328,-0.227l0.328,-0.227l0.329,-0.226l0.328,-0.226l0.328,-0.225l0.328,-0.225l0.328,-0.224l0.328,-0.223l0.328,-0.223l0.328,-0.223l0.328,-0.222l0.328,-0.222l0.328,-0.221l0.328,-0.22l0.327,-0.22l0.329,-0.22l0.327,-0.219l0.328,-0.218l0.328,-0.218l0.327,-0.218l0.328,-0.217l0.328,-0.216l0.327,-0.216l0.328,-0.216l0.328,-0.215l0.327,-0.214l0.327,-0.214l0.327,-0.213l0.328,-0.214l0.328,-0.212l0.327,-0.212l0.327,-0.212l0.327,-0.211l0.328,-0.21l0.327,-0.21l0.327,-0.21l0.326,-0.208l0.328,-0.209l0.327,-0.208l0.327,-0.208l0.326,-0.207l0.327,-0.206l0.327,-0.206l0.327,-0.206l0.326,-0.205l0.327,-0.205l0.327,-0.204l0.326,-0.203l0.326,-0.203l0.327,-0.203l0.326,-0.202l0.326,-0.202l0.327,-0.201l0.325,-0.201l0.326,-0.2l0.327,-0.2l0.326,-0.199l0.326,-0.199l0.325,-0.198l0.326,-0.198l0.326,-0.197l0.325,-0.197l0.326,-0.196l0.325,-0.196l0.326,-0.196l0.325,-0.194l0.325,-0.195l0.326,-0.194l0.324,-0.193l0.326,-0.193l0.325,-0.193l0.325,-0.192l0.324,-0.191l0.325,-0.191l0.325,-0.191l0.324,-0.19l0.325,-0.19l0.324,-0.189l0.324,-0.189l0.325,-0.188l0.324,-0.188l0.324,-0.187l0.324,-0.187l0.324,-0.187l0.324,-0.186l0.323,-0.185l0.324,-0.185l0.324,-0.185l0.323,-0.184l0.323,-0.184l0.324,-0.183l0.323,-0.182l0.323,-0.182l0.323,-0.182l0.323,-0.182l0.323,-0.181l0.322,-0.18l0.323,-0.18l0.322,-0.179l0.323,-0.179l0.322,-0.179l0.322,-0.178l0.322,-0.177l0.322,-0.178l0.322,-0.177l0.322,-0.176l0.321,-0.175l0.322,-0.176l0.322,-0.175l0.321,-0.174l0.321,-0.174l0.321,-0.174l0.321,-0.173l0.321,-0.173l0.321,-0.172l0.321,-0.172l0.32,-0.171l0.32,-0.171l0.32,-0.17l0.321,-0.17l0.32,-0.17l0.32,-0.169l0.32,-0.168l0.319,-0.169l0.32,-0.168l0.319,-0.167l0.32,-0.167l0.319,-0.166l0.319,-0.166l0.319,-0.166l0.319,-0.165l0.318,-0.164l0.319,-0.165l0.318,-0.163l0.318,-0.164l0.319,-0.163l0.318,-0.162l0.318,-0.162l0.318,-0.162l0.317,-0.161l0.318,-0.161l0.317,-0.16l0.317,-0.16l0.317,-0.159l0.317,-0.159l0.317,-0.159l0.317,-0.158l0.316,-0.158l0.317,-0.157l0.316,-0.157l0.316,-0.157l0.316,-0.155l0.316,-0.156l0.315,-0.155l0.316,-0.155l0.315,-0.154l0.315,-0.154l0.316,-0.154l0.314,-0.153l0.315,-0.152l0.314,-0.152l0.315,-0.152l0.314,-0.151l0.314,-0.151l0.314,-0.151l0.314,-0.15l0.314,-0.149l0.313,-0.15l0.314,-0.149l0.313,-0.148l0.312,-0.148l0.313,-0.148l0.313,-0.147l0.313,-0.147l0.312,-0.146l0.312,-0.146l0.312,-0.145l0.312,-0.145l0.311,-0.145l0.313,-0.145l0.31,-0.143l0.311,-0.143l0.311,-0.144l0.311,-0.142l0.311,-0.143l0.31,-0.141l0.311,-0.142l0.31,-0.141l0.309,-0.14l0.31,-0.141l0.309,-0.139l0.31,-0.14l0.31,-0.139l0.308,-0.138l0.309,-0.138l0.309,-0.138l0.308,-0.137l0.309,-0.138l0.308,-0.136l0.308,-0.136l0.307,-0.136l0.308,-0.135l0.307,-0.135l0.308,-0.135l0.306,-0.134l0.307,-0.134l0.307,-0.133l0.306,-0.133l0.306,-0.133l0.306,-0.132l0.306,-0.132l0.305,-0.131l0.306,-0.131l0.305,-0.131l0.305,-0.13l0.305,-0.13l0.304,-0.13l0.304,-0.129l0.305,-0.128l0.304,-0.129l0.303,-0.127l0.304,-0.128l0.303,-0.127l0.303,-0.127l0.304,-0.127l0.302,-0.125l0.302,-0.126l0.303,-0.125l0.302,-0.125l0.302,-0.125l0.301,-0.124l0.301,-0.123l0.302,-0.124l0.301,-0.123l0.301,-0.122l0.301,-0.122l0.3,-0.122l0.3,-0.121l0.299,-0.121l0.3,-0.121l0.3,-0.121l0.299,-0.12l0.299,-0.119l0.299,-0.119l0.299,-0.119l0.298,-0.118l0.298,-0.118l0.297,-0.118l0.298,-0.117l0.298,-0.118l0.296,-0.116l0.298,-0.116l0.297,-0.116l0.296,-0.116l0.296,-0.115l0.296,-0.114l0.296,-0.115l0.295,-0.114l0.295,-0.113l0.296,-0.114l0.294,-0.112l0.295,-0.113l0.294,-0.112l0.295,-0.112l0.294,-0.112l0.293,-0.111l0.293,-0.11l0.293,-0.111l0.293,-0.11l0.293,-0.11l0.292,-0.109l0.292,-0.109l0.292,-0.108l0.292,-0.109l0.291,-0.108l0.291,-0.107l0.291,-0.107l0.29,-0.107l0.291,-0.107l0.29,-0.105l0.289,-0.106l0.291,-0.106l0.289,-0.105l0.288,-0.104l0.29,-0.105l0.288,-0.104l0.287,-0.103l0.289,-0.104l0.288,-0.103l0.287,-0.103l0.287,-0.102l0.287,-0.102l0.287,-0.101l0.286,-0.101l0.286,-0.101l0.286,-0.101l0.286,-0.1l0.285,-0.1l0.286,-0.1l0.284,-0.099l0.284,-0.099l0.285,-0.098l0.283,-0.098l0.284,-0.098l0.283,-0.098l0.283,-0.097l0.284,-0.097l0.282,-0.096l0.282,-0.096l0.282,-0.096l0.282,-0.095l0.281,-0.096l0.281,-0.094l0.281,-0.095l0.281,-0.094l0.28,-0.094l0.28,-0.094l0.28,-0.093l0.279,-0.092l0.279,-0.093l0.279,-0.092l0.279,-0.092l0.277,-0.091l0.278,-0.091l0.278,-0.092l0.278,-0.09l0.276,-0.09l0.277,-0.09l0.277,-0.09l0.276,-0.089l0.276,-0.089l0.275,-0.089l0.275,-0.088l0.275,-0.088l0.275,-0.087l0.274,-0.087l0.275,-0.088l0.273,-0.086l0.273,-0.086l0.274,-0.087l0.272,-0.085l0.272,-0.086l0.273,-0.085l0.272,-0.085l0.271,-0.084l0.271,-0.084l0.271,-0.084l0.271,-0.084l0.27,-0.083l0.269,-0.083l0.271,-0.082l0.269,-0.083l0.269,-0.082l0.268,-0.081l0.269,-0.081l0.268,-0.082l0.268,-0.08l0.267,-0.081l0.267,-0.08l0.267,-0.08l0.266,-0.079l0.267,-0.079l0.265,-0.079l0.266,-0.079l0.264,-0.078l0.265,-0.078l0.265,-0.078l0.264,-0.077l0.263,-0.077l0.264,-0.077l0.263,-0.077l0.263,-0.076l0.263,-0.076l0.261,-0.075l0.262,-0.076l0.262,-0.075l0.26,-0.074l0.262,-0.075l0.26,-0.074l0.26,-0.074l0.259,-0.073l0.26,-0.074l0.259,-0.072l0.259,-0.073l0.258,-0.072l0.258,-0.073l0.258,-0.071l0.256,-0.072l0.258,-0.071l0.256,-0.071l0.257,-0.071l0.257,-0.07l0.509,-0.14l0.509,-0.139l0.508,-0.137l0.506,-0.136l0.505,-0.136l0.504,-0.134l0.502,-0.133l0.5,-0.132l0.5,-0.131l0.497,-0.13l0.496,-0.128l0.495,-0.128l0.493,-0.126l0.492,-0.126l0.49,-0.124l0.488,-0.123l0.488,-0.122l0.485,-0.121l0.484,-0.12l0.483,-0.119l0.481,-0.118l0.479,-0.117l0.478,-0.116l0.476,-0.115l0.475,-0.113l0.472,-0.113l0.472,-0.112l0.47,-0.11l0.468,-0.11l0.467,-0.109l0.465,-0.107l0.463,-0.107l0.462,-0.106l0.46,-0.104l0.458,-0.104l0.458,-0.103l0.455,-0.101l0.453,-0.101l0.452,-0.1l0.45,-0.099l0.448,-0.098l0.447,-0.097l0.445,-0.095l0.443,-0.095l0.442,-0.095l0.44,-0.093l0.438,-0.092l0.437,-0.091l0.435,-0.091l0.432,-0.089l0.431,-0.089l0.43,-0.087l0.427,-0.087l0.426,-0.086l0.425,-0.085l0.422,-0.084l0.42,-0.083l0.419,-0.082l0.417,-0.082l0.415,-0.08l0.413,-0.08l0.411,-0.079l0.41,-0.078l0.407,-0.077l0.406,-0.076l0.405,-0.075l0.402,-0.075l0.4,-0.074l0.398,-0.073l0.397,-0.072l0.394,-0.071l0.393,-0.07l0.391,-0.07l0.389,-0.069l0.387,-0.068l0.385,-0.067l0.383,-0.067l0.381,-0.065l0.379,-0.065l0.377,-0.064l0.376,-0.064l0.373,-0.062l0.371,-0.062l0.369,-0.061l0.368,-0.06l0.365,-0.06l0.364,-0.059l0.361,-0.058l0.359,-0.057l0.358,-0.057l0.354,-0.056l0.354,-0.055l0.351,-0.054l0.35,-0.054l0.347,-0.053l0.345,-0.052l0.342,-0.052l0.342,-0.051l0.338,-0.05l0.337,-0.05l0.335,-0.049l0.332,-0.048l0.33,-0.047l0.329,-0.047l0.326,-0.046l0.324,-0.046l0.322,-0.045l0.319,-0.044l0.318,-0.044l0.315,-0.043l0.313,-0.042l0.312,-0.042l0.308,-0.041l0.307,-0.04l0.305,-0.04l0.302,-0.04l0.3,-0.038l0.298,-0.038l0.296,-0.038l0.293,-0.037l0.292,-0.036l0.288,-0.036l0.287,-0.035l0.285,-0.034l0.282,-0.034l0.279,-0.034l0.278,-0.033l0.276,-0.032l0.273,-0.032l0.27,-0.031l0.269,-0.03l0.267,-0.031l0.263,-0.029l0.261,-0.029l0.26,-0.029l0.256,-0.028l0.255,-0.027l0.253,-0.027l0.249,-0.027l0.247,-0.026l0.245,-0.026l0.243,-0.025l0.241,-0.024l0.237,-0.024l0.236,-0.024l0.233,-0.023l0.231,-0.023l0.228,-0.022l0.225,-0.022l0.224,-0.021l0.221,-0.021l0.219,-0.02l0.216,-0.02l0.213,-0.02l0.211,-0.019l0.209,-0.019l0.206,-0.018l0.203,-0.018l0.203,-0.017l0.2,-0.017l0.387,-0.033l0.38,-0.031l0.37,-0.03l0.36,-0.028l0.349,-0.027l0.339,-0.026l0.328,-0.024l0.318,-0.022l0.308,-0.022l0.298,-0.02l0.286,-0.019l0.275,-0.018l0.266,-0.016l0.255,-0.016l0.243,-0.014l0.233,-0.013l0.222,-0.012l0.211,-0.012l0.2,-0.01l0.189,-0.01l0.178,-0.008l0.166,-0.008l0.156,-0.007l0.144,-0.006l0.133,-0.006l0.121,-0.005l0.112,-0.004l0.182,-0.006l0.14,-0.005l0.089,-0.003l0.03,0l0.353,12.995Z" style="fill:#333;"/><rect id="rect10252" x="454.674" y="285.944" width="66.201" height="70.314" style="fill:#fff;"/><path d="M522.493,274.693l1.585,0.345l1.519,0.566l1.424,0.778l1.298,0.972l1.147,1.146l0.972,1.299l0.777,1.423l0.567,1.52l0.344,1.584l0.116,1.618l0,70.314l-0.116,1.617l-0.344,1.585l-0.567,1.52l-0.777,1.423l-0.972,1.298l-1.147,1.147l-1.298,0.972l-1.424,0.777l-1.519,0.567l-1.585,0.345l-1.618,0.116l-66.201,0l-1.617,-0.116l-1.585,-0.345l-1.52,-0.567l-1.423,-0.777l-1.298,-0.972l-1.147,-1.147l-0.972,-1.298l-0.777,-1.423l-0.567,-1.52l-0.345,-1.585l-0.115,-1.617l0,-70.314l0.115,-1.618l0.345,-1.584l0.567,-1.52l0.777,-1.423l0.972,-1.299l1.147,-1.146l1.298,-0.972l1.423,-0.778l1.52,-0.566l1.585,-0.345l1.617,-0.116l66.201,0l1.618,0.116Zm-67.819,11.251l0,70.314l66.201,0l0,-70.314l-66.201,0Z" style="fill:#333;"/><rect id="rect10254" x="470.355" y="1024.02" width="66.201" height="70.314" style="fill:#fff;stroke:#333;stroke-width:11.37px;"/><rect id="rect10256" x="909.41" y="646.524" width="66.201" height="70.314" style="fill:#fff;stroke:#333;stroke-width:11.37px;"/><rect id="rect102561" x="1501.75" y="644.698" width="66.201" height="70.314" style="fill:#fff;stroke:#333;stroke-width:11.37px;"/><rect id="rect10258" x="1203.42" y="646.527" width="66.201" height="70.314" style="fill:#fff;stroke:#333;stroke-width:11.37px;"/><path d="M1858.51,557.055c-561.518,11.956 -997.796,253.845 -1372.16,625.748c-42.47,-77.401 -68.278,-163.476 -73.225,-254.95c-19.997,-369.719 308.31,-688.52 732.69,-711.473c304.363,-16.462 576.012,123.694 712.693,340.675Z" style="fill:#fff;fill-opacity:0.423529;"/></svg>