<?xml version="1.0" encoding="UTF-8" standalone="no"?><!DOCTYPE svg PUBLIC "-//W3C//DTD SVG 1.1//EN" "http://www.w3.org/Graphics/SVG/1.1/DTD/svg11.dtd"><svg width="100%" height="100%" viewBox="0 0 88 58" version="1.1" xmlns="http://www.w3.org/2000/svg" xmlns:xlink="http://www.w3.org/1999/xlink" xml:space="preserve" style="fill-rule:evenodd;clip-rule:evenodd;"><path id="rect4658" d="M18.73,3.56c0,-0.462 -0.375,-0.837 -0.837,-0.837l-14.333,0c-0.462,0 -0.837,0.375 -0.837,0.837l0,13.666c0,0.462 0.375,0.837 0.837,0.837l14.333,0c0.462,0 0.837,-0.375 0.837,-0.837l0,-13.666Z" style="fill:#fc0;stroke:#000;stroke-width:1.32px;"/><path id="rect4660" d="M18.73,40.244c0,-0.462 -0.375,-0.837 -0.837,-0.837l-14.333,0c-0.462,0 -0.837,0.375 -0.837,0.837l0,13.666c0,0.462 0.375,0.837 0.837,0.837l14.333,0c0.462,0 0.837,-0.375 0.837,-0.837l0,-13.666Z" style="fill:#fc0;stroke:#000;stroke-width:1.32px;"/><path id="rect4662" d="M55.414,21.568c0,-0.462 -0.375,-0.837 -0.837,-0.837l-14.333,0c-0.462,0 -0.837,0.375 -0.837,0.837l0,13.667c0,0.462 0.375,0.837 0.837,0.837l14.333,0c0.462,0 0.837,-0.375 0.837,-0.837l0,-13.667Z" style="fill:#f60;stroke:#000;stroke-width:1.32px;"/><path id="path4666" d="M19.064,10.06c1.559,3.712 6.945,2.889 9.121,5.83c3.378,4.567 4.191,12.092 10.888,12.512" style="fill:none;stroke:#000;stroke-width:1.32px;"/><path id="path4668" d="M18.73,47.48c1.559,-3.712 6.946,-2.889 9.121,-5.83c3.379,-4.567 4.191,-12.092 10.889,-12.511" style="fill:none;stroke:#000;stroke-width:1.32px;"/><path id="path4670" d="M55.748,27.735l21.009,0.333" style="fill:none;stroke:#000;stroke-width:1.32px;"/><path id="rect4664" d="M84.566,21.568c0,-0.462 -0.375,-0.837 -0.837,-0.837l-14.333,0c-0.462,0 -0.837,0.375 -0.837,0.837l0,13.667c0,0.462 0.375,0.837 0.837,0.837l14.333,0c0.462,0 0.837,-0.375 0.837,-0.837l0,-13.667Z" style="fill:#3771c8;stroke:#000;stroke-width:1.32px;"/></svg>