<?xml version="1.0" encoding="UTF-8" standalone="no"?><!DOCTYPE svg PUBLIC "-//W3C//DTD SVG 1.1//EN" "http://www.w3.org/Graphics/SVG/1.1/DTD/svg11.dtd"><svg width="100%" height="100%" viewBox="0 0 782 528" version="1.1" xmlns="http://www.w3.org/2000/svg" xmlns:xlink="http://www.w3.org/1999/xlink" xml:space="preserve" style="fill-rule:evenodd;clip-rule:evenodd;stroke-linecap:round;stroke-linejoin:round;stroke-miterlimit:1.5;"><rect x="0" y="0" width="781.632" height="527.965" style="fill:#f5f5f5;"/><g><path d="M661.985,403.673c-36.223,38.045 -87.297,61.763 -143.856,61.763c-109.748,0 -198.849,-89.304 -198.849,-199.302c0,-29.48 11.657,-74.55 11.657,-74.55c-28.941,-20.331 -58.115,-53.808 -27.794,-81.966c17.26,-16.028 47.173,-2.697 78.454,11.672c35.628,-33.753 83.687,-54.459 136.532,-54.459c109.748,0 198.849,89.305 198.849,199.303c0,27.918 -6.571,66.219 -6.571,66.219c28.942,20.331 58.116,53.807 27.794,81.965c-16.848,15.646 -45.753,3.317 -76.216,-10.645Zm51.289,-35.037c7.615,0 13.798,6.025 13.798,13.446c0,7.421 -6.183,13.445 -13.798,13.445c-7.614,0 -13.797,-6.024 -13.797,-13.445c0,-7.421 6.183,-13.446 13.797,-13.446Zm-381.13,-240.595c7.615,0 13.797,6.025 13.797,13.446c0,7.421 -6.182,13.445 -13.797,13.445c-7.615,0 -13.797,-6.024 -13.797,-13.445c0,-7.421 6.182,-13.446 13.797,-13.446Z" style="fill:#eb573b;stroke:#554946;stroke-width:9px;"/><circle cx="519.076" cy="266.304" r="155.906" style="fill:#f9f8d2;stroke:#554946;stroke-width:9px;"/><path d="M476.852,120.242c13.128,-3.693 26.971,-5.668 41.273,-5.668c84.057,0 152.3,68.243 152.3,152.3c0,77.307 -57.725,141.239 -132.386,151.007c64.03,-18.012 111.026,-76.877 111.026,-146.632c0,-84.056 -68.243,-152.3 -152.299,-152.3c-6.749,0 -13.396,0.44 -19.914,1.293Z" style="fill:#c7c3a8;"/><circle cx="519.641" cy="441.216" r="9.921" style="fill:#554946;"/><circle cx="519.641" cy="86.907" r="9.921" style="fill:#554946;"/><path d="M398.714,383.272c3.872,3.872 3.872,10.159 0,14.03c-3.871,3.872 -10.158,3.872 -14.03,0c-3.872,-3.871 -3.872,-10.158 0,-14.03c3.872,-3.872 10.159,-3.872 14.03,0Z" style="fill:#554946;"/><path d="M649.249,132.737c3.872,3.872 3.872,10.159 0,14.031c-3.872,3.872 -10.159,3.872 -14.031,0c-3.872,-3.872 -3.872,-10.159 0,-14.031c3.872,-3.872 10.159,-3.872 14.031,0Z" style="fill:#554946;"/><path d="M637.018,385.727c3.871,-3.872 10.158,-3.872 14.03,0c3.872,3.872 3.872,10.159 0,14.03c-3.872,3.872 -10.159,3.872 -14.03,0c-3.872,-3.871 -3.872,-10.158 0,-14.03Z" style="fill:#554946;"/><path d="M386.483,135.192c3.872,-3.872 10.159,-3.872 14.031,0c3.872,3.872 3.872,10.159 0,14.031c-3.872,3.872 -10.159,3.872 -14.031,0c-3.872,-3.872 -3.872,-10.159 0,-14.031Z" style="fill:#554946;"/><path d="M352.408,264.061c0,5.476 -4.446,9.922 -9.921,9.922c-5.476,0 -9.922,-4.446 -9.922,-9.922c0,-5.475 4.446,-9.921 9.922,-9.921c5.475,0 9.921,4.446 9.921,9.921Z" style="fill:#554946;"/><path d="M706.717,264.061c0,5.476 -4.445,9.922 -9.921,9.922c-5.476,0 -9.921,-4.446 -9.921,-9.922c0,-5.475 4.445,-9.921 9.921,-9.921c5.476,0 9.921,4.446 9.921,9.921Z" style="fill:#554946;"/></g><g><circle cx="518.732" cy="267.82" r="35.433" style="fill:#786964;stroke:#554946;stroke-width:8.5px;"/><rect x="514.473" y="198.413" width="11.415" height="164.611" style="fill:#cd543d;stroke:#554946;stroke-width:9px;"/><path d="M519.657,142.178c0,0 -21.205,25.608 -21.205,36.583c0,11.703 9.501,21.205 21.205,21.205c11.703,0 21.204,-9.502 21.204,-21.205c0,-10.975 -21.204,-36.583 -21.204,-36.583Z" style="fill:#cd543d;stroke:#554946;stroke-width:9px;"/><ellipse cx="519.073" cy="267.87" rx="19.828" ry="19.843" style="fill:#cd543d;stroke:#554946;stroke-width:9px;"/><path d="M520.24,149.514c0.262,-0.347 0.406,-0.534 0.406,-0.534c0,0 15.917,20.609 15.917,29.441c0,9.419 -7.132,17.066 -15.917,17.066c-0.136,0 -0.271,-0.002 -0.406,-0.006l0,-45.967Z" style="fill:#eb573b;"/><path d="M485.577,393.561c-0.948,-3.51 -1.456,-7.224 -1.456,-11.068c0,-21.537 15.96,-39.022 35.617,-39.022c19.658,0 35.618,17.485 35.618,39.022c0,4.052 -0.565,7.96 -1.614,11.636c-7.793,-9.566 -20.269,-15.768 -34.318,-15.768c-13.77,0 -26.028,5.957 -33.847,15.2Z" style="fill:#cd543d;stroke:#554946;stroke-width:8.5px;"/><path d="M520.45,347.86c17.73,0.312 32.017,13.321 32.017,29.301c0,3.043 -0.518,5.978 -1.479,8.739c-6.974,-7.009 -18.036,-11.614 -30.538,-11.834l0,-26.206Z" style="fill:#eb573b;"/></g><rect x="25.981" y="125.556" width="123.911" height="123.004" style="fill:#ffcd00;fill-opacity:0.996078;stroke:#554946;stroke-width:5.5px;"/><g><path d="M113.762,175.094c0,-3.731 -3.029,-6.761 -6.76,-6.761l-32.629,0c-3.731,0 -6.761,3.03 -6.761,6.761l0,27.788c0,3.732 3.03,6.761 6.761,6.761l32.629,0c3.731,0 6.76,-3.029 6.76,-6.761l0,-27.788Z" style="fill:#fff;"/><path d="M62.509,172.198c0,-2.412 -1.958,-4.37 -4.37,-4.37l-1.384,0c-2.412,0 -4.37,1.958 -4.37,4.37l0,22.086c0,2.412 1.958,4.37 4.37,4.37l1.384,0c2.412,0 4.37,-1.958 4.37,-4.37l0,-22.086Z" style="fill:#fff;"/><path d="M106.158,142.082c0.403,-0.84 0.048,-1.849 -0.792,-2.252l-0.482,-0.231c-0.84,-0.403 -1.85,-0.049 -2.253,0.791l-4.998,10.419c-0.403,0.84 -0.049,1.849 0.791,2.252l0.483,0.232c0.84,0.403 1.849,0.048 2.252,-0.792l4.999,-10.419Z" style="fill:#fff;"/><path d="M72.843,143.068c-0.403,-0.84 -0.049,-1.849 0.791,-2.252l0.483,-0.232c0.84,-0.403 1.849,-0.048 2.252,0.792l4.999,10.419c0.403,0.84 0.048,1.849 -0.792,2.252l-0.482,0.232c-0.84,0.403 -1.85,0.048 -2.253,-0.792l-4.998,-10.419Z" style="fill:#fff;"/><path d="M128.549,172.733c0,-2.412 -1.958,-4.37 -4.369,-4.37l-1.385,0c-2.412,0 -4.37,1.958 -4.37,4.37l0,22.086c0,2.412 1.958,4.37 4.37,4.37l1.385,0c2.411,0 4.369,-1.958 4.369,-4.37l0,-22.086Z" style="fill:#fff;"/><path d="M85.596,203.201c0,-2.412 -1.958,-4.37 -4.37,-4.37l-1.384,0c-2.412,0 -4.37,1.958 -4.37,4.37l0,22.086c0,2.412 1.958,4.37 4.37,4.37l1.384,0c2.412,0 4.37,-1.958 4.37,-4.37l0,-22.086Z" style="fill:#fff;"/><path d="M105.07,203.292c0,-2.411 -1.958,-4.369 -4.37,-4.369l-1.384,0c-2.412,0 -4.37,1.958 -4.37,4.369l0,22.087c0,2.411 1.958,4.369 4.37,4.369l1.384,0c2.412,0 4.37,-1.958 4.37,-4.369l0,-22.087Z" style="fill:#fff;"/><path d="M67.151,165.577c1.645,-11.644 10.981,-20.578 22.236,-20.578c11.256,0 20.592,8.934 22.237,20.578l-44.473,0Z" style="fill:#fff;"/><ellipse cx="78.131" cy="156.323" rx="2.213" ry="2.563" style="fill:#ffcd01;"/><ellipse cx="98.271" cy="156.323" rx="2.213" ry="2.563" style="fill:#ffcd01;"/></g><path d="M149.598,190.954c63.695,-5.989 87.402,7.985 86.51,37.151c-2.23,72.977 75.866,47.234 83.757,68.693" style="fill:none;stroke:#554946;stroke-width:5.5px;"/><ellipse cx="149.35" cy="191.244" rx="11.574" ry="12.001" style="fill:#fff;stroke:#554946;stroke-width:5.5px;"/><ellipse cx="319.805" cy="291.533" rx="11.574" ry="12.001" style="fill:#fff;stroke:#554946;stroke-width:5.5px;"/></svg>