<?xml version="1.0" encoding="UTF-8" standalone="no"?><!DOCTYPE svg PUBLIC "-//W3C//DTD SVG 1.1//EN" "http://www.w3.org/Graphics/SVG/1.1/DTD/svg11.dtd"><svg width="100%" height="100%" viewBox="0 0 253 71" version="1.1" xmlns="http://www.w3.org/2000/svg" xmlns:xlink="http://www.w3.org/1999/xlink" xml:space="preserve" style="fill-rule:evenodd;clip-rule:evenodd;stroke-linecap:round;stroke-linejoin:round;stroke-miterlimit:1.5;"><rect x="0" y="0" width="252.901" height="70.087" style="fill:#f5f5f5;"/><rect x="7.15" y="15.153" width="40.535" height="40.239" style="fill:#ffcd00;fill-opacity:0.996078;stroke:#fff;stroke-width:1.5px;"/><g><path d="M35.866,31.358c0,-1.22 -0.991,-2.211 -2.212,-2.211l-10.674,0c-1.22,0 -2.211,0.991 -2.211,2.211l0,9.091c0,1.221 0.991,2.212 2.211,2.212l10.674,0c1.221,0 2.212,-0.991 2.212,-2.212l0,-9.091Z" style="fill:#fff;"/><path d="M19.099,30.411c0,-0.789 -0.64,-1.429 -1.429,-1.429l-0.453,0c-0.789,0 -1.43,0.64 -1.43,1.429l0,7.225c0,0.789 0.641,1.43 1.43,1.43l0.453,0c0.789,0 1.429,-0.641 1.429,-1.43l0,-7.225Z" style="fill:#fff;"/><path d="M33.378,20.559c0.132,-0.275 0.016,-0.605 -0.259,-0.737l-0.158,-0.075c-0.274,-0.132 -0.604,-0.016 -0.736,0.259l-1.636,3.408c-0.131,0.275 -0.015,0.605 0.259,0.737l0.158,0.076c0.275,0.131 0.605,0.015 0.737,-0.26l1.635,-3.408Z" style="fill:#fff;"/><path d="M22.48,20.882c-0.132,-0.275 -0.016,-0.605 0.259,-0.737l0.158,-0.076c0.274,-0.132 0.604,-0.016 0.736,0.259l1.636,3.409c0.131,0.274 0.015,0.604 -0.259,0.736l-0.158,0.076c-0.275,0.132 -0.605,0.016 -0.737,-0.259l-1.635,-3.408Z" style="fill:#fff;"/><path d="M40.703,30.586c0,-0.789 -0.64,-1.43 -1.429,-1.43l-0.453,0c-0.789,0 -1.43,0.641 -1.43,1.43l0,7.225c0,0.789 0.641,1.43 1.43,1.43l0.453,0c0.789,0 1.429,-0.641 1.429,-1.43l0,-7.225Z" style="fill:#fff;"/><path d="M26.652,40.553c0,-0.789 -0.641,-1.429 -1.43,-1.429l-0.453,0c-0.789,0 -1.429,0.64 -1.429,1.429l0,7.225c0,0.789 0.64,1.43 1.429,1.43l0.453,0c0.789,0 1.43,-0.641 1.43,-1.43l0,-7.225Z" style="fill:#fff;"/><path d="M33.022,40.583c0,-0.789 -0.64,-1.429 -1.429,-1.429l-0.453,0c-0.789,0 -1.429,0.64 -1.429,1.429l0,7.225c0,0.789 0.64,1.43 1.429,1.43l0.453,0c0.789,0 1.429,-0.641 1.429,-1.43l0,-7.225Z" style="fill:#fff;"/><path d="M20.618,28.245c0.538,-3.809 3.592,-6.732 7.274,-6.732c3.682,0 6.736,2.923 7.274,6.732l-14.548,0Z" style="fill:#fff;"/><ellipse cx="24.21" cy="25.218" rx="0.724" ry="0.838" style="fill:#ffcd01;"/><ellipse cx="30.798" cy="25.218" rx="0.724" ry="0.838" style="fill:#ffcd01;"/></g><path d="M47.596,35.423l56.564,0" style="fill:none;stroke:#554946;stroke-width:1.5px;"/><path d="M144.979,36.647l56.565,0" style="fill:none;stroke:#554946;stroke-width:1.5px;"/><g><g><rect x="104.169" y="15.896" width="40.535" height="40.239" style="fill:#002156;fill-opacity:0.996078;stroke:#fff;stroke-width:1.5px;"/><ellipse cx="144.886" cy="36.596" rx="4.415" ry="4.394" style="fill:#ddd;stroke:#fff;stroke-width:2px;"/><ellipse cx="103.782" cy="35.973" rx="4.415" ry="4.394" style="fill:#ddd;stroke:#fff;stroke-width:2px;"/></g><g><path d="M116.058,40.351l3.634,-4.085l1.828,2.219l6.647,-6.619l5.175,4.4l0,5.95l-17.284,0l0,-1.865Z" style="fill:#fff;"/><ellipse cx="117.881" cy="32.761" rx="2.071" ry="2.138" style="fill:#fff;"/><path d="M136.191,29.712c0,-1.435 -1.166,-2.601 -2.601,-2.601l-18.039,0c-1.436,0 -2.601,1.166 -2.601,2.601l0,13.4c0,1.436 1.165,2.601 2.601,2.601l18.039,0c1.435,0 2.601,-1.165 2.601,-2.601l0,-13.4Z" style="fill:none;stroke:#fff;stroke-width:2px;"/></g></g><rect x="203.677" y="16.389" width="40.535" height="40.239" style="fill:#d65500;fill-opacity:0.996078;stroke:#fff;stroke-width:1.5px;"/><ellipse cx="203.496" cy="37.089" rx="4.415" ry="4.394" style="fill:#ddd;stroke:#fff;stroke-width:2px;"/><ellipse cx="47.919" cy="35.715" rx="4.415" ry="4.394" style="fill:#ddd;stroke:#fff;stroke-width:2px;"/><g><path d="M231.877,27.626c0,-1.888 -1.533,-3.42 -3.42,-3.42l-6.842,0c-1.888,0 -3.421,1.532 -3.421,3.42l0,16.326c0,1.888 1.533,3.421 3.421,3.421l6.842,0c1.887,0 3.42,-1.533 3.42,-3.421l0,-16.326Z" style="fill:#fff;"/><rect x="219.491" y="27.506" width="10.688" height="15.66" style="fill:#d65500;"/><rect x="223.651" y="43.938" width="2.435" height="2.517" style="fill:#d65500;"/></g></svg>