<?xml version="1.0" encoding="UTF-8" standalone="no"?><!DOCTYPE svg PUBLIC "-//W3C//DTD SVG 1.1//EN" "http://www.w3.org/Graphics/SVG/1.1/DTD/svg11.dtd"><svg width="100%" height="100%" viewBox="0 0 782 528" version="1.1" xmlns="http://www.w3.org/2000/svg" xmlns:xlink="http://www.w3.org/1999/xlink" xml:space="preserve" style="fill-rule:evenodd;clip-rule:evenodd;stroke-linecap:round;stroke-linejoin:round;stroke-miterlimit:1.5;"><rect x="0" y="0" width="781.632" height="527.965" style="fill:#f5f5f5;"/><rect x="42.432" y="111.198" width="109.511" height="108.71" style="fill:#d60000;fill-opacity:0.996078;stroke:#554946;stroke-width:5.5px;"/><ellipse cx="97.187" cy="163.037" rx="31.367" ry="31.713" style="fill:none;stroke:#fffdfd;stroke-width:6px;"/><path d="M100.565,152.096l0,15.819l-13.221,0" style="fill:none;stroke:#fffdfd;stroke-width:2px;"/><path d="M152.005,164.862c63.695,-5.99 87.402,7.985 86.511,37.151c-2.23,72.977 75.866,47.234 83.757,68.693" style="fill:none;stroke:#554946;stroke-width:5.5px;"/><circle cx="516.315" cy="252.979" r="200.139" style="fill:#554946;"/><path d="M433.392,317.092l-24.174,45.919l11.93,20.263l37.698,19.846l22.074,-2.361l24.174,-45.918l-71.702,-37.749l0,0Z" style="fill:#a37d1b;"/><path d="M494.289,87.55c40.892,-18.144 155.713,39.111 162.756,85.685c3.627,23.972 -30.576,42.85 -50.84,56.153l-128.682,-67.745c2.221,-34.776 1.188,-67.181 16.766,-74.093l0,0Z" style="fill:#fffefe;"/><path d="M430.317,296.552c-1.819,6.311 0.161,13.425 3.022,19.428l72.837,38.345c8.575,-2.787 13.117,-3.853 16.367,-9.219c13.511,-22.3 44.804,-81.726 83.571,-115.447l-128.403,-67.599c-7.81,46.095 -39.998,108.839 -47.394,134.492l0,0Z" style="fill:#ffb800;"/><path d="M421.063,384.865l1.527,8.281l27.666,14.565l6.533,-4.037l-35.726,-18.809" style="fill:#090000;stroke:#000;stroke-width:3.43px;"/><ellipse cx="315.347" cy="264.285" rx="11.574" ry="12.001" style="fill:#fff;stroke:#554946;stroke-width:5.5px;"/><ellipse cx="154.438" cy="165.214" rx="11.178" ry="11.123" style="fill:#ddd;stroke:#fff;stroke-width:2px;"/></svg>