<?xml version="1.0" encoding="UTF-8" standalone="no"?><!DOCTYPE svg PUBLIC "-//W3C//DTD SVG 1.1//EN" "http://www.w3.org/Graphics/SVG/1.1/DTD/svg11.dtd"><svg width="100%" height="100%" viewBox="0 0 282 168" version="1.1" xmlns="http://www.w3.org/2000/svg" xmlns:xlink="http://www.w3.org/1999/xlink" xml:space="preserve" style="fill-rule:evenodd;clip-rule:evenodd;stroke-linecap:round;stroke-linejoin:round;stroke-miterlimit:1.5;"><rect x="0" y="0" width="281.97" height="167.556" style="fill:#f5f5f5;"/><g><path d="M146.39,86.054c32.276,-5.516 49.221,52.216 73.328,55.537" style="fill:none;stroke:#888;stroke-width:2.5px;"/><path d="M148.314,83.848c32.276,5.517 49.221,-52.216 73.328,-55.537" style="fill:none;stroke:#888;stroke-width:2.5px;"/><g><rect x="226.564" y="119.702" width="40.535" height="40.239" style="fill:#d65500;fill-opacity:0.996078;stroke:#fff;stroke-width:1.5px;"/><ellipse cx="226.382" cy="140.402" rx="4.415" ry="4.394" style="fill:#ddd;stroke:#fff;stroke-width:2px;"/></g><g><g><rect x="227.406" y="6.001" width="40.535" height="40.239" style="fill:#d65500;fill-opacity:0.996078;stroke:#fff;stroke-width:1.5px;"/><ellipse cx="227.224" cy="26.701" rx="4.415" ry="4.394" style="fill:#ddd;stroke:#fff;stroke-width:2px;"/></g><g><path d="M241.584,21.202l14.375,0c0.13,10.322 -1.856,15.963 -6.936,14.762c-5.661,1.344 -8.04,-4.928 -7.439,-14.762Z" style="fill:#fff;"/><g><path d="M258.403,18.791l-3.238,2.706" style="fill:none;stroke:#fff;stroke-width:2px;stroke-linecap:square;"/><path d="M238.813,18.803l3.238,2.707" style="fill:none;stroke:#fff;stroke-width:2px;stroke-linecap:square;"/></g><g><path d="M258.441,34.847l-3.237,-2.707" style="fill:none;stroke:#fff;stroke-width:2px;stroke-linecap:square;"/><path d="M238.852,34.834l3.237,-2.706" style="fill:none;stroke:#fff;stroke-width:2px;stroke-linecap:square;"/></g><path d="M237.157,26.541l22.677,0" style="fill:none;stroke:#fff;stroke-width:2px;stroke-linecap:square;"/><rect x="247.365" y="23.194" width="2.605" height="12.948" style="fill:#d65500;"/><path d="M244.359,19.476l9.272,0c-0.357,-2.787 -1.627,-4.51 -4.554,-4.739c-2.659,0.167 -4.538,1.67 -4.718,4.739Z" style="fill:#fff;"/></g></g><g><path d="M243.354,146.867l0,4.691l3.887,2.614l4.191,-2.614l0,-4.691l-8.078,0Z" style="fill:#fff;"/><path d="M249.543,147.458c3.965,-2.221 8.945,-11.436 7.206,-15.664c-2.854,-6.943 -15.783,-7.239 -18.301,0c-1.095,3.145 1.602,10.73 6.73,15.664l4.365,0Z" style="fill:none;stroke:#fff;stroke-width:1.5px;"/><path d="M248.809,129.667c2.64,0.068 4.301,1.134 4.204,3.989" style="fill:none;stroke:#fff;stroke-width:1.5px;"/></g><path d="M57.606,84.788l46.516,0" style="fill:none;stroke:#888;stroke-width:2.5px;stroke-linecap:square;stroke-linejoin:miter;"/><rect x="104.411" y="64.575" width="40.535" height="40.239" style="fill:#002156;fill-opacity:0.996078;stroke:#fff;stroke-width:1.5px;"/><ellipse cx="145.128" cy="85.275" rx="4.415" ry="4.394" style="fill:#ddd;stroke:#fff;stroke-width:2px;"/><ellipse cx="104.024" cy="84.652" rx="4.415" ry="4.394" style="fill:#ddd;stroke:#fff;stroke-width:2px;"/><g><path id="Back" d="M128.705,92.718l6.442,-6.987l-6.442,-7.123l-1.227,1.344l5.214,5.779l-5.214,5.644l1.227,1.343Z" style="fill:#fff;fill-rule:nonzero;stroke:#fffcfc;stroke-width:0.24px;stroke-linecap:butt;stroke-miterlimit:1.41421;"/><path id="Back1" d="M118.911,92.061l-6.442,-6.988l6.442,-7.122l1.227,1.344l-5.215,5.778l5.215,5.644l-1.227,1.344Z" style="fill:#fff;fill-rule:nonzero;stroke:#fffcfc;stroke-width:0.24px;stroke-linecap:butt;stroke-miterlimit:1.41421;"/><path d="M121.541,93.359l3.986,-16.34" style="fill:none;stroke:#fffdfd;stroke-width:2.5px;"/></g><rect x="12.875" y="63.332" width="40.068" height="39.775" style="fill:#d60000;fill-opacity:0.996078;stroke:#fff;stroke-width:1.5px;"/><g><ellipse cx="32.909" cy="82.299" rx="11.477" ry="11.603" style="fill:none;stroke:#fffdfd;stroke-width:2px;"/><path d="M34.145,78.296l0,5.787l-4.837,0" style="fill:none;stroke:#fffdfd;stroke-width:2px;"/></g><ellipse cx="53.857" cy="83.095" rx="4.09" ry="4.07" style="fill:#ddd;stroke:#fff;stroke-width:2px;"/></g></svg>