<?xml version="1.0" encoding="UTF-8" standalone="no"?><!DOCTYPE svg PUBLIC "-//W3C//DTD SVG 1.1//EN" "http://www.w3.org/Graphics/SVG/1.1/DTD/svg11.dtd"><svg width="100%" height="100%" viewBox="0 0 100 16" version="1.1" xmlns="http://www.w3.org/2000/svg" xmlns:xlink="http://www.w3.org/1999/xlink" xml:space="preserve" style="fill-rule:evenodd;clip-rule:evenodd;stroke-linecap:square;stroke-miterlimit:1.5;"><rect x="0" y="0" width="100" height="15.712" style="fill:#f5f5f5;"/><path d="M14.428,7.553l29.863,0" style="fill:none;stroke:#888;stroke-width:0.7px;"/><path d="M55.336,7.838l29.864,0" style="fill:none;stroke:#888;stroke-width:0.7px;"/><rect x="2.685" y="2.326" width="10.467" height="10.39" style="fill:#ffcd00;fill-opacity:0.992157;stroke:#fff;stroke-width:0.39px;stroke-linecap:round;stroke-linejoin:round;"/><path d="M10.1,6.511c0,-0.315 -0.256,-0.571 -0.571,-0.571l-2.756,0c-0.315,0 -0.571,0.256 -0.571,0.571l0,2.347c0,0.315 0.256,0.571 0.571,0.571l2.756,0c0.315,0 0.571,-0.256 0.571,-0.571l0,-2.347l0,0Z" style="fill:#fff;"/><path d="M5.771,6.266c0,-0.204 -0.165,-0.369 -0.369,-0.369l-0.117,0c-0.204,0 -0.369,0.165 -0.369,0.369l0,1.866c0,0.203 0.165,0.369 0.369,0.369l0.117,0c0.204,0 0.369,-0.166 0.369,-0.369l0,-1.866Z" style="fill:#fff;"/><path d="M9.458,3.722c0.034,-0.071 0.004,-0.156 -0.067,-0.19l-0.041,-0.019c-0.071,-0.035 -0.156,-0.005 -0.19,0.066l-0.422,0.88c-0.034,0.071 -0.004,0.157 0.067,0.191l0.04,0.019c0.071,0.034 0.157,0.004 0.191,-0.067l0.422,-0.88Z" style="fill:#fff;"/><path d="M6.644,3.806c-0.034,-0.071 -0.004,-0.157 0.067,-0.191l0.04,-0.019c0.071,-0.034 0.156,-0.004 0.191,0.067l0.422,0.88c0.034,0.071 0.004,0.156 -0.067,0.19l-0.041,0.019c-0.071,0.035 -0.156,0.005 -0.19,-0.066l-0.422,-0.88Z" style="fill:#fff;"/><path d="M11.349,6.311c0,-0.203 -0.165,-0.369 -0.369,-0.369l-0.117,0c-0.203,0 -0.369,0.166 -0.369,0.369l0,1.866c0,0.204 0.166,0.369 0.369,0.369l0.117,0c0.204,0 0.369,-0.165 0.369,-0.369l0,-1.866Z" style="fill:#fff;"/><path d="M7.721,8.885c0,-0.204 -0.165,-0.369 -0.369,-0.369l-0.117,0c-0.204,0 -0.369,0.165 -0.369,0.369l0,1.866c0,0.203 0.165,0.369 0.369,0.369l0.117,0c0.204,0 0.369,-0.166 0.369,-0.369l0,-1.866Z" style="fill:#fff;"/><path d="M9.366,8.893c0,-0.204 -0.165,-0.369 -0.369,-0.369l-0.117,0c-0.204,0 -0.369,0.165 -0.369,0.369l0,1.865c0,0.204 0.165,0.37 0.369,0.37l0.117,0c0.204,0 0.369,-0.166 0.369,-0.37l0,-1.865Z" style="fill:#fff;"/><path d="M6.163,5.707c0.139,-0.984 0.928,-1.738 1.878,-1.738c0.951,0 1.74,0.754 1.879,1.738l-3.757,0l0,0Z" style="fill:#fff;"/><ellipse cx="7.091" cy="4.925" rx="0.187" ry="0.216" style="fill:#ffcd01;"/><ellipse cx="8.792" cy="4.925" rx="0.187" ry="0.216" style="fill:#ffcd01;"/><g><rect x="44.483" y="2.362" width="10.467" height="10.39" style="fill:#002156;fill-opacity:0.992157;stroke:#fff;stroke-width:0.39px;stroke-linecap:round;stroke-linejoin:round;"/><ellipse cx="54.997" cy="7.707" rx="1.14" ry="1.135" style="fill:#ddd;stroke:#fff;stroke-width:0.52px;stroke-linecap:round;stroke-linejoin:round;"/><ellipse cx="44.383" cy="7.546" rx="1.14" ry="1.135" style="fill:#ddd;stroke:#fff;stroke-width:0.52px;stroke-linecap:round;stroke-linejoin:round;"/></g><g><path d="M47.553,8.676l0.939,-1.054l0.472,0.573l1.716,-1.71l1.336,1.137l0,1.536l-4.463,0l0,-0.482l0,0Z" style="fill:#fff;"/><ellipse cx="48.024" cy="6.717" rx="0.535" ry="0.552" style="fill:#fff;"/><path d="M52.752,5.929c0,-0.37 -0.301,-0.671 -0.672,-0.671l-4.658,0c-0.37,0 -0.671,0.301 -0.671,0.671l0,3.46c0,0.371 0.301,0.672 0.671,0.672l4.658,0c0.371,0 0.672,-0.301 0.672,-0.672l0,-3.46l0,0Z" style="fill:none;stroke:#fff;stroke-width:0.52px;stroke-linecap:round;stroke-linejoin:round;"/></g><rect x="85.959" y="2.518" width="10.467" height="10.39" style="fill:#d65500;fill-opacity:0.992157;stroke:#fff;stroke-width:0.39px;stroke-linecap:round;stroke-linejoin:round;"/><ellipse cx="85.913" cy="7.863" rx="1.14" ry="1.135" style="fill:#ddd;stroke:#fff;stroke-width:0.52px;stroke-linecap:round;stroke-linejoin:round;"/><ellipse cx="13.213" cy="7.636" rx="1.14" ry="1.135" style="fill:#ddd;stroke:#fff;stroke-width:0.52px;stroke-linecap:round;stroke-linejoin:round;"/><path d="M93.241,5.42c0,-0.488 -0.396,-0.884 -0.883,-0.884l-1.767,0c-0.487,0 -0.883,0.396 -0.883,0.884l0,4.215c0,0.488 0.396,0.884 0.883,0.884l1.767,0c0.487,0 0.883,-0.396 0.883,-0.884l0,-4.215l0,0Z" style="fill:#fff;"/><rect x="90.043" y="5.389" width="2.76" height="4.044" style="fill:#d65500;"/><rect x="91.117" y="9.632" width="0.629" height="0.65" style="fill:#d65500;"/></svg>